<svg xmlns="http://www.w3.org/2000/svg" width="17" height="17" viewBox="0 0 17 17" fill="none">
<path d="M8.5 17C6.81886 17 5.17547 16.5015 3.77765 15.5675C2.37984 14.6335 1.29037 13.306 0.647024 11.7528C0.00367928 10.1996 -0.16465 8.49057 0.163324 6.84173C0.491299 5.19289 1.30085 3.67834 2.48959 2.48959C3.67834 1.30085 5.19289 0.491299 6.84173 0.163324C8.49057 -0.16465 10.1996 0.00367928 11.7528 0.647024C13.306 1.29037 14.6335 2.37984 15.5675 3.77765C16.5015 5.17547 17 6.81886 17 8.5C16.9974 10.7535 16.101 12.914 14.5075 14.5075C12.914 16.101 10.7535 16.9974 8.5 17ZM8.5 1C7.01664 1 5.56659 1.43987 4.33322 2.26398C3.09985 3.08809 2.13856 4.25943 1.5709 5.62987C1.00325 7.00032 0.854721 8.50832 1.14411 9.96318C1.4335 11.418 2.14781 12.7544 3.1967 13.8033C4.24559 14.8522 5.58196 15.5665 7.03682 15.8559C8.49168 16.1453 9.99968 15.9968 11.3701 15.4291C12.7406 14.8614 13.9119 13.9001 14.736 12.6668C15.5601 11.4334 16 9.98336 16 8.5C15.9976 6.51161 15.2067 4.60534 13.8007 3.19933C12.3947 1.79332 10.4884 1.00238 8.5 1Z" fill="#0E223D"/>
<path d="M8.87091 7.097L12.8609 11.087C12.9098 11.1237 12.9494 11.1713 12.9767 11.2259C13.004 11.2806 13.0182 11.3409 13.0182 11.402C13.0182 11.4631 13.004 11.5234 12.9767 11.578C12.9494 11.6327 12.9098 11.6803 12.8609 11.717C12.8242 11.7659 12.7766 11.8055 12.722 11.8328C12.6673 11.8601 12.607 11.8743 12.5459 11.8743C12.4848 11.8743 12.4245 11.8601 12.3699 11.8328C12.3152 11.8055 12.2676 11.7659 12.2309 11.717L8.55491 8.042L4.87991 11.717C4.66991 11.927 4.45991 11.822 4.24991 11.717C4.03991 11.507 4.14491 11.297 4.24991 11.087L8.23991 7.097C8.34491 6.887 8.65991 6.887 8.87091 7.097Z" fill="#0E223D"/>
<path d="M8.87091 4.276L12.8609 8.266C12.9098 8.3027 12.9494 8.35027 12.9767 8.40494C13.004 8.45961 13.0182 8.51989 13.0182 8.581C13.0182 8.64211 13.004 8.70238 12.9767 8.75705C12.9494 8.81172 12.9098 8.85929 12.8609 8.896C12.8242 8.94485 12.7766 8.9845 12.722 9.01181C12.6673 9.03911 12.607 9.05333 12.5459 9.05333C12.4848 9.05333 12.4245 9.03911 12.3699 9.01181C12.3152 8.9845 12.2676 8.94485 12.2309 8.896L8.55491 5.221L4.87991 8.896C4.66991 9.106 4.45991 9.001 4.24991 8.896C4.03991 8.686 4.14491 8.476 4.24991 8.266L8.23991 4.276C8.34491 4.066 8.65991 4.066 8.87091 4.276Z" fill="#0E223D"/>
</svg>