<svg width="14" height="14" viewBox="0 0 14 14" fill="current" xmlns="http://www.w3.org/2000/svg">
<path d="M7 0.25C8.33502 0.25 9.64007 0.645881 10.7501 1.38758C11.8601 2.12928 12.7253 3.18349 13.2362 4.41689C13.7471 5.65029 13.8808 7.00749 13.6203 8.31686C13.3599 9.62623 12.717 10.829 11.773 11.773C10.829 12.717 9.62623 13.3599 8.31686 13.6203C7.00749 13.8808 5.65029 13.7471 4.41689 13.2362C3.18349 12.7253 2.12928 11.8601 1.38758 10.7501C0.645881 9.64007 0.25 8.33502 0.25 7C0.252117 5.21044 0.963956 3.49478 2.22937 2.22937C3.49478 0.963956 5.21044 0.252117 7 0.25ZM7 12.25C8.03835 12.25 9.05339 11.9421 9.91674 11.3652C10.7801 10.7883 11.453 9.9684 11.8504 9.00909C12.2477 8.04978 12.3517 6.99418 12.1491 5.97578C11.9466 4.95738 11.4465 4.02192 10.7123 3.28769C9.97809 2.55346 9.04262 2.05345 8.02422 1.85088C7.00582 1.6483 5.95022 1.75227 4.99091 2.14963C4.0316 2.54699 3.21166 3.2199 2.63478 4.08326C2.05791 4.94661 1.75 5.96165 1.75 7C1.75159 8.3919 2.30522 9.72634 3.28944 10.7106C4.27367 11.6948 5.6081 12.2484 7 12.25Z" fill="current"/>
<path d="M7 9.75C6.80109 9.75 6.61032 9.67098 6.46967 9.53033C6.32902 9.38968 6.25 9.19891 6.25 9V5C6.25 4.80109 6.32902 4.61032 6.46967 4.46967C6.61032 4.32902 6.80109 4.25 7 4.25C7.19891 4.25 7.38968 4.32902 7.53033 4.46967C7.67098 4.61032 7.75 4.80109 7.75 5V9C7.75 9.19891 7.67098 9.38968 7.53033 9.53033C7.38968 9.67098 7.19891 9.75 7 9.75Z" fill="current"/>
<path d="M9 7.75H5C4.80109 7.75 4.61032 7.67098 4.46967 7.53033C4.32902 7.38968 4.25 7.19891 4.25 7C4.25 6.80109 4.32902 6.61032 4.46967 6.46967C4.61032 6.32902 4.80109 6.25 5 6.25H9C9.19891 6.25 9.38968 6.32902 9.53033 6.46967C9.67098 6.61032 9.75 6.80109 9.75 7C9.75 7.19891 9.67098 7.38968 9.53033 7.53033C9.38968 7.67098 9.19891 7.75 9 7.75Z" fill="current"/>
</svg>
