<svg width="14" height="14" viewBox="0 0 14 14" fill="none" xmlns="http://www.w3.org/2000/svg">
<mask id="mask0_1098_395" style="mask-type:alpha" maskUnits="userSpaceOnUse" x="0" y="0" width="14" height="14">
<rect width="14" height="14" fill="#D9D9D9"/>
</mask>
<g mask="url(#mask0_1098_395)">
<path d="M10.8116 8.30418C10.7266 8.20618 10.6216 8.12759 10.5036 8.07372C10.3856 8.01986 10.2574 7.99198 10.1277 7.99198C9.99799 7.99198 9.8698 8.01986 9.7518 8.07372C9.63381 8.12759 9.52877 8.20618 9.4438 8.30418C9.12371 8.62165 8.8045 8.93824 8.48966 9.26095C8.46119 9.30206 8.41759 9.33021 8.36841 9.33922C8.31923 9.34824 8.26848 9.33739 8.22729 9.30905C8.02002 9.19624 7.79963 9.10441 7.60111 8.98109C6.69011 8.39122 5.88207 7.65586 5.20919 6.80432C4.85927 6.39001 4.57064 5.9276 4.35213 5.43126C4.32847 5.39038 4.32032 5.34235 4.32915 5.29594C4.33798 5.24954 4.36321 5.20786 4.40023 5.17852C4.72031 4.8698 5.03166 4.55233 5.3465 4.23487C5.44939 4.1496 5.5322 4.0427 5.58905 3.92177C5.64589 3.80083 5.67536 3.66885 5.67536 3.53522C5.67536 3.4016 5.64589 3.26961 5.58905 3.14868C5.5322 3.02775 5.44939 2.92084 5.3465 2.83558C5.09637 2.58283 4.84625 2.33533 4.597 2.08346C4.34775 1.83159 4.08364 1.56485 3.82302 1.30948C3.73758 1.21224 3.63238 1.13433 3.51445 1.08097C3.39652 1.0276 3.26856 1 3.13911 1C3.00967 1 2.88171 1.0276 2.76378 1.08097C2.64585 1.13433 2.54065 1.21224 2.45521 1.30948C2.1325 1.62694 1.82378 1.9514 1.4932 2.26362C1.20145 2.53763 1.02639 2.91344 1.00432 3.31308C0.975343 3.97044 1.09243 4.62605 1.34715 5.23274C1.83149 6.49117 2.53075 7.65589 3.41373 8.675C4.57482 10.067 6.01856 11.1962 7.64921 11.9878C8.3775 12.3709 9.17554 12.6032 9.99564 12.6708C10.2685 12.7019 10.5449 12.6671 10.8016 12.5694C11.0583 12.4718 11.2878 12.314 11.471 12.1094C11.7448 11.8033 12.0544 11.5234 12.3456 11.2348C12.4468 11.1494 12.5282 11.043 12.5842 10.923C12.6402 10.803 12.6695 10.6723 12.67 10.5399C12.6705 10.4075 12.6422 10.2765 12.5871 10.1561C12.532 10.0357 12.4514 9.92871 12.3508 9.84253C11.8389 9.32713 11.3258 8.81434 10.8116 8.30418Z" fill="#D9A700"/>
</g>
</svg>
