<svg xmlns="http://www.w3.org/2000/svg" width="8" height="8" viewBox="0 0 8 8" fill="none">
  <path d="M0.74984 7.50084C0.651365 7.50086 0.553854 7.48144 0.462904 7.44369C0.371953 7.40593 0.289352 7.35059 0.21984 7.28084C0.150145 7.21119 0.0948574 7.12849 0.0571364 7.03746C0.0194153 6.94644 0 6.84887 0 6.75034C0 6.65181 0.0194153 6.55424 0.0571364 6.46322C0.0948574 6.37219 0.150145 6.28949 0.21984 6.21984L6.21984 0.21984C6.28949 0.150145 6.37219 0.0948574 6.46322 0.0571364C6.55424 0.0194153 6.65181 0 6.75034 0C6.84887 0 6.94644 0.0194153 7.03746 0.0571364C7.12849 0.0948574 7.21119 0.150145 7.28084 0.21984C7.35047 0.289556 7.40568 0.372309 7.44331 0.46337C7.48095 0.554431 7.50027 0.652015 7.50018 0.750547C7.50009 0.849079 7.48058 0.946627 7.44277 1.03762C7.40497 1.12861 7.3496 1.21126 7.27984 1.28084L1.27984 7.28084C1.21033 7.35059 1.12773 7.40593 1.03678 7.44369C0.945825 7.48144 0.848315 7.50086 0.74984 7.50084Z" fill="#5F7D95"/>
  <path d="M6.74983 7.5008C6.65135 7.50083 6.55384 7.4814 6.46289 7.44365C6.37194 7.4059 6.28934 7.35056 6.21983 7.28081L0.219828 1.2808C0.0793779 1.14018 0.000488281 0.949556 0.000488281 0.750805C0.000488281 0.552054 0.0793779 0.36143 0.219828 0.220805C0.360454 0.0803545 0.551078 0.00146484 0.749828 0.00146484C0.948579 0.00146484 1.1392 0.0803545 1.27983 0.220805L7.27983 6.2208C7.38458 6.32569 7.45591 6.45927 7.48479 6.60467C7.51368 6.75007 7.49883 6.90076 7.44212 7.03773C7.3854 7.17469 7.28938 7.29178 7.16616 7.3742C7.04294 7.45662 6.89807 7.50067 6.74983 7.5008Z" fill="#5F7D95"/>
</svg>