<svg width="20" height="20" viewBox="0 0 20 20" fill="none" xmlns="http://www.w3.org/2000/svg">
  <path d="M11.9153 0.821576C11.8667 0.78336 11.81 0.75628 11.7492 0.742316C11.6885 0.728351 11.6253 0.727818 11.5644 0.740851L0.820758 3.16034C0.72895 3.18095 0.647093 3.23158 0.588764 3.30375C0.530435 3.37593 0.499145 3.46534 0.500018 3.55724V17.2662C0.49997 17.3611 0.534752 17.4529 0.598109 17.5249C0.661465 17.5969 0.749191 17.6444 0.845349 17.6588L11.5945 19.2725C11.7028 19.2888 11.8134 19.2625 11.9018 19.1993C11.9903 19.1361 12.0494 19.0413 12.0662 18.9356C12.0678 18.9153 12.0678 18.8949 12.0662 18.8746V1.13449C12.0661 1.07472 12.0526 1.01568 12.0265 0.961597C12.0004 0.90751 11.9625 0.859715 11.9153 0.821576Z" fill="#1565C0"/>
  <path d="M19.4756 17.6227H11.3171C11.2074 17.6015 11.1079 17.5455 11.0341 17.4635C10.9603 17.3814 10.9164 17.278 10.9092 17.1691C10.9092 16.951 11.0913 16.7711 11.3171 17.0601H19.013V2.94762H11.3171C11.0936 3.2442 10.9092 3.06645 10.9092 2.8462C10.9175 2.73658 10.9616 2.63244 11.035 2.54905C11.1084 2.46567 11.2073 2.40743 11.3171 2.38281H19.4756C19.6992 2.44823 19.5941 2.8462 19.5941 2.8462V17.1691C19.5941 17.1691 19.6992 17.5671 19.4756 17.6227Z" fill="#1565C0"/>
  <path d="M7.23918 13.5882C7.15082 13.588 7.06491 13.5599 6.99436 13.508C6.92382 13.4561 6.87246 13.3832 6.84801 13.3004L5.60857 9.06869L4.36804 13.3004C4.33553 13.3754 4.28109 13.4393 4.21152 13.4843C4.14195 13.5293 4.06033 13.5533 3.97687 13.5533C3.8934 13.5533 3.81178 13.5293 3.74221 13.4843C3.67264 13.4393 3.6182 13.3754 3.5857 13.3004L1.95508 7.73084C1.93671 7.68056 1.92889 7.6272 1.9321 7.57391C1.9353 7.52062 1.94947 7.46849 1.97374 7.42065C1.99801 7.37281 2.03188 7.3302 2.07337 7.2954C2.11485 7.2606 2.1631 7.23431 2.21522 7.21807C2.26734 7.20183 2.32226 7.196 2.37675 7.2009C2.43123 7.2058 2.48414 7.2213 2.53234 7.24655C2.58054 7.27181 2.62304 7.3063 2.65731 7.34791C2.69158 7.38952 2.71693 7.43743 2.73183 7.48879L2.73855 7.51169L3.97799 11.7423L5.2174 7.51062C5.2499 7.43562 5.30435 7.3716 5.37391 7.32661C5.44348 7.28162 5.5251 7.2576 5.60857 7.2576C5.69204 7.2576 5.77366 7.28162 5.84322 7.32661C5.91279 7.3716 5.96724 7.43562 5.99974 7.51062L7.23806 11.7423L8.4775 7.51169C8.50599 7.41126 8.57401 7.32592 8.66676 7.27424C8.75951 7.22256 8.86945 7.20875 8.97259 7.23584H8.98153C9.08556 7.26476 9.17357 7.33282 9.22618 7.42504C9.27878 7.51726 9.29169 7.62607 9.26206 7.72757L7.63032 13.2971C7.60648 13.3805 7.55538 13.4541 7.48479 13.5066C7.41419 13.5592 7.32797 13.5878 7.23918 13.5882Z" fill="#FAFAFA"/>
  <path d="M17.842 5.76958H11.3174C11.2089 5.72067 11.1148 5.64608 11.0436 5.55256C10.9723 5.45905 10.9262 5.34962 10.9094 5.23425C10.9094 5.01618 11.0916 4.83623 11.3174 5.20477H17.842C18.0655 4.83623 18.2499 5.014 18.2499 5.23425C18.2331 5.34962 18.187 5.45905 18.1158 5.55256C18.0445 5.64608 17.9504 5.72067 17.842 5.76958Z" fill="#1565C0"/>
  <path d="M17.842 8.02805H11.3173C11.2087 8.02468 11.1056 7.98045 11.0296 7.90466C10.9536 7.82887 10.9105 7.72733 10.9094 7.62129C10.9094 7.40322 11.0916 7.22336 11.3173 7.46324H17.842C18.0655 7.22336 18.2499 7.40104 18.2499 7.62129C18.2488 7.72733 18.2057 7.82887 18.1297 7.90466C18.0537 7.98045 17.9506 8.02468 17.842 8.02805Z" fill="#1565C0"/>
  <path d="M17.842 10.2873H11.3173C11.0938 10.4083 10.9094 10.2306 10.9094 10.0103C10.9094 9.79009 11.0916 9.61236 11.3173 9.72358H17.842C18.0655 9.61454 18.2499 9.79118 18.2499 10.0103C18.2499 10.2295 18.0677 10.4051 17.842 10.2873Z" fill="#1565C0"/>
  <path d="M17.842 12.5433H11.3173C11.0938 12.793 10.9094 12.6152 10.9094 12.395C10.912 12.2884 10.9552 12.1867 11.0306 12.1096C11.1061 12.0326 11.2084 11.9858 11.3173 11.9785H17.842C17.951 11.9858 18.0532 12.0326 18.1286 12.1096C18.2041 12.1867 18.2474 12.2884 18.2499 12.395C18.2465 12.6152 18.0677 12.7963 17.842 12.5433Z" fill="#1565C0"/>
  <path d="M17.842 14.802H11.3173C11.0938 15.1815 10.9094 15.0026 10.9094 14.7835C10.9273 14.6672 10.9737 14.557 11.0447 14.462C11.1158 14.3671 11.2093 14.2903 11.3173 14.2383H17.842C17.95 14.2903 18.0435 14.3671 18.1146 14.462C18.1856 14.557 18.232 14.6672 18.2499 14.7835C18.2465 15.0026 18.0677 15.1815 17.842 14.802Z" fill="#1565C0"/>
</svg>
