<svg width="12" height="14" viewBox="0 0 12 14" fill="none" xmlns="http://www.w3.org/2000/svg">
  <path d="M10.7252 14H0.689989C0.506993 14 0.331492 13.9273 0.202094 13.7979C0.0726955 13.6685 0 13.493 0 13.31C0 13.127 0.0726955 12.9515 0.202094 12.8221C0.331492 12.6927 0.506993 12.62 0.689989 12.62H10.7252C10.9082 12.62 11.0837 12.6927 11.2131 12.8221C11.3425 12.9515 11.4152 13.127 11.4152 13.31C11.4152 13.493 11.3425 13.6685 11.2131 13.7979C11.0837 13.9273 10.9082 14 10.7252 14Z" fill="#4F5E71"/>
  <path d="M9.13552 0.00333343C9.7601 -0.026157 10.3725 0.183023 10.8485 0.588445C11.218 1.07528 11.4179 1.66962 11.4179 2.28076C11.4179 2.89189 11.218 3.48624 10.8485 3.97307L3.52268 11.2998C3.45632 11.3661 3.37714 11.4182 3.28998 11.4528C3.20283 11.4874 3.10952 11.504 3.01577 11.5013L0.671646 11.4369C0.492019 11.4319 0.321441 11.357 0.196192 11.2281C0.0709435 11.0993 0.000906161 10.9266 0.000976616 10.7469V8.36969C0.00113766 8.18675 0.0739384 8.01137 0.203374 7.88209L7.5283 0.549805C7.97362 0.167368 8.54938 -0.028398 9.13552 0.00333343ZM2.75633 10.1177L9.87243 3.00157C9.99529 2.78364 10.0516 2.53448 10.0343 2.2849C10.0516 2.03532 9.99529 1.78616 9.87243 1.56823C9.65172 1.43299 9.39482 1.36876 9.13644 1.38423C8.91631 1.36759 8.6963 1.41794 8.50533 1.52867L1.38004 8.65212V10.0763L2.75633 10.1177Z" fill="#4F5E71"/>
</svg>
