<svg width="14" height="14" viewBox="0 0 14 14" fill="none" xmlns="http://www.w3.org/2000/svg">
<mask id="mask0_1098_332" style="mask-type:alpha" maskUnits="userSpaceOnUse" x="0" y="0" width="14" height="14">
<rect width="14" height="14" fill="#D9D9D9"/>
</mask>
<g mask="url(#mask0_1098_332)">
<path d="M2.33317 11.6663C2.01234 11.6663 1.73768 11.5521 1.50921 11.3236C1.28074 11.0952 1.1665 10.8205 1.1665 10.4997V3.49967C1.1665 3.17884 1.28074 2.90419 1.50921 2.67572C1.73768 2.44724 2.01234 2.33301 2.33317 2.33301H11.6665C11.9873 2.33301 12.262 2.44724 12.4905 2.67572C12.7189 2.90419 12.8332 3.17884 12.8332 3.49967V10.4997C12.8332 10.8205 12.7189 11.0952 12.4905 11.3236C12.262 11.5521 11.9873 11.6663 11.6665 11.6663H2.33317ZM6.99984 7.58301L2.33317 4.66634V10.4997H11.6665V4.66634L6.99984 7.58301ZM6.99984 6.41634L11.6665 3.49967H2.33317L6.99984 6.41634ZM2.33317 4.66634V3.49967V10.4997V4.66634Z" fill="#D92E2E"/>
</g>
</svg>
