<svg width="19" height="19" viewBox="0 0 19 19" fill="none" xmlns="http://www.w3.org/2000/svg">
  <g clip-path="url(#clip0_196_388)">
    <path d="M18.6029 17.0221H11.0809V18.2059C11.0846 18.3283 11.0289 18.4434 10.9361 18.5176C10.8434 18.5955 10.7172 18.6215 10.6021 18.5955L0.308008 16.2205C0.126172 16.1797 0 16.0164 0 15.8309V2.375C0 2.17832 0.141016 2.01504 0.333984 1.98535L10.6244 0.40078C10.8396 0.367382 11.0437 0.51582 11.0771 0.731054C11.0809 0.749609 11.0809 0.771873 11.0809 0.790428V1.97793H18.6029C18.8219 1.97793 19 2.15605 19 2.375V16.625C19 16.8439 18.8219 17.0221 18.6029 17.0221ZM11.0809 11.4779H13.4559V9.89707H11.0809V11.4779ZM11.0809 9.10293H13.4559V7.52207H11.0809V9.10293ZM14.25 9.10293H18.2096V7.52207H14.25V9.10293ZM14.25 9.89707V11.4779H18.2096V9.89707H14.25ZM14.25 12.2721V13.8529H18.2096V12.2721H14.25ZM13.4559 12.2721H11.0809V13.8529H13.4559V12.2721ZM11.0809 6.72793H13.4559V5.14707H11.0809V6.72793ZM14.25 6.72793H18.2096V5.14707H14.25V6.72793ZM18.2096 14.6471H14.25V16.2279H18.2096V14.6471ZM13.4559 16.2279V14.6471H11.0809V16.2279H13.4559ZM7.85977 6.53867C7.9748 6.35312 7.91914 6.1082 7.73359 5.99316C7.6668 5.95605 7.59629 5.9375 7.52207 5.9375C7.38477 5.9375 7.25859 6.00801 7.18809 6.12305L5.54414 8.7541L3.9002 6.12305C3.82598 6.00801 3.6998 5.9375 3.5625 5.9375C3.34355 5.9375 3.16543 6.11562 3.16914 6.33457C3.16914 6.40879 3.19141 6.4793 3.22852 6.54238L5.07656 9.5L3.22852 12.4539C3.10605 12.6357 3.1543 12.8807 3.33613 13.0031C3.51797 13.1256 3.76289 13.0773 3.88535 12.8955C3.88906 12.8881 3.89648 12.8807 3.9002 12.8732L5.54414 10.2459L7.18809 12.877C7.29941 13.0662 7.54063 13.1293 7.72988 13.0217C7.91914 12.9103 7.98223 12.6691 7.87461 12.4799C7.8709 12.4725 7.86719 12.465 7.85977 12.4576L6.01172 9.5L7.85977 6.53867ZM11.0809 4.35293H13.4559V2.77207H11.0809V4.35293ZM14.25 2.77207V4.35293H18.2096V2.77207H14.25Z" fill="#0E9B65"/>
  </g>
  <defs>
    <clipPath id="clip0_196_388">
      <rect width="19" height="19" fill="white" transform="matrix(1 0 0 -1 0 19)"/>
    </clipPath>
  </defs>
</svg>
