<svg width="17" height="17" viewBox="0 0 17 17" fill="none" xmlns="http://www.w3.org/2000/svg">
  <path d="M8.5 17C6.81886 17 5.17547 16.5015 3.77765 15.5675C2.37984 14.6335 1.29037 13.306 0.647024 11.7528C0.00367928 10.1996 -0.16465 8.49057 0.163324 6.84173C0.491299 5.19289 1.30085 3.67834 2.48959 2.48959C3.67834 1.30085 5.19289 0.491299 6.84173 0.163324C8.49057 -0.16465 10.1996 0.00367928 11.7528 0.647024C13.306 1.29037 14.6335 2.37984 15.5675 3.77765C16.5015 5.17547 17 6.81886 17 8.5C16.9974 10.7535 16.101 12.914 14.5075 14.5075C12.914 16.101 10.7535 16.9974 8.5 17ZM8.5 1C7.01664 1 5.56659 1.43987 4.33322 2.26398C3.09985 3.08809 2.13856 4.25943 1.5709 5.62987C1.00325 7.00032 0.854721 8.50832 1.14411 9.96318C1.4335 11.418 2.14781 12.7544 3.1967 13.8033C4.24559 14.8522 5.58196 15.5665 7.03682 15.8559C8.49168 16.1453 9.99968 15.9968 11.3701 15.4291C12.7406 14.8614 13.9119 13.9001 14.736 12.6668C15.5601 11.4334 16 9.98336 16 8.5C15.9976 6.51161 15.2067 4.60534 13.8007 3.19933C12.3947 1.79332 10.4884 1.00238 8.5 1Z" fill="#0E223D"/>
  <path d="M8.87115 7.097L12.8611 11.087C12.91 11.1237 12.9497 11.1713 12.977 11.2259C13.0043 11.2806 13.0185 11.3409 13.0185 11.402C13.0185 11.4631 13.0043 11.5234 12.977 11.578C12.9497 11.6327 12.91 11.6803 12.8611 11.717C12.8244 11.7659 12.7769 11.8055 12.7222 11.8328C12.6675 11.8601 12.6073 11.8743 12.5461 11.8743C12.485 11.8743 12.4248 11.8601 12.3701 11.8328C12.3154 11.8055 12.2679 11.7659 12.2311 11.717L8.55515 8.042L4.88015 11.717C4.67015 11.927 4.46015 11.822 4.25015 11.717C4.04015 11.507 4.14515 11.297 4.25015 11.087L8.24015 7.097C8.34515 6.887 8.66015 6.887 8.87115 7.097Z" fill="#0E223D"/>
  <path d="M8.87115 4.27601L12.8611 8.26601C12.91 8.30272 12.9497 8.35029 12.977 8.40496C13.0043 8.45963 13.0185 8.5199 13.0185 8.58101C13.0185 8.64212 13.0043 8.70239 12.977 8.75706C12.9497 8.81173 12.91 8.8593 12.8611 8.89601C12.8244 8.94487 12.7769 8.98452 12.7222 9.01182C12.6675 9.03913 12.6073 9.05334 12.5461 9.05334C12.485 9.05334 12.4248 9.03913 12.3701 9.01182C12.3154 8.98452 12.2679 8.94487 12.2311 8.89601L8.55515 5.22101L4.88015 8.89601C4.67015 9.10601 4.46015 9.00101 4.25015 8.89601C4.04015 8.68601 4.14515 8.47601 4.25015 8.26601L8.24015 4.27601C8.34515 4.06601 8.66015 4.06601 8.87115 4.27601Z" fill="#0E223D"/>
</svg>
