<svg width="10" height="9" viewBox="0 0 10 9" fill="none" xmlns="http://www.w3.org/2000/svg">
  <path d="M5.24097 5.34081L9.23097 1.35081C9.27983 1.3141 9.31948 1.26653 9.34678 1.21186C9.37409 1.15719 9.38831 1.09692 9.38831 1.03581C9.38831 0.9747 9.37409 0.914427 9.34678 0.859757C9.31948 0.805087 9.27983 0.757518 9.23097 0.72081C9.19426 0.671953 9.1467 0.632304 9.09203 0.604998C9.03736 0.577692 8.97708 0.563477 8.91597 0.563477C8.85486 0.563477 8.79459 0.577692 8.73992 0.604998C8.68525 0.632304 8.63768 0.671953 8.60097 0.72081L4.92597 4.39581L1.25097 0.72081C1.04097 0.51081 0.830973 0.61581 0.620973 0.72081C0.410973 0.93081 0.515973 1.14081 0.620973 1.35081L4.61097 5.34081C4.71597 5.55081 5.03097 5.55081 5.24097 5.34081Z" fill="#5F7D95"/>
  <path d="M5.24097 8.1621L9.23097 4.1721C9.27983 4.13539 9.31948 4.08782 9.34678 4.03315C9.37409 3.97848 9.38831 3.91821 9.38831 3.8571C9.38831 3.79599 9.37409 3.73572 9.34678 3.68105C9.31948 3.62638 9.27983 3.57881 9.23097 3.5421C9.19426 3.49324 9.1467 3.45359 9.09203 3.42629C9.03736 3.39898 8.97708 3.38477 8.91597 3.38477C8.85486 3.38477 8.79459 3.39898 8.73992 3.42629C8.68525 3.45359 8.63768 3.49324 8.60097 3.5421L4.92597 7.2171L1.25097 3.5421C1.04097 3.3321 0.830973 3.4371 0.620973 3.5421C0.410973 3.7521 0.515973 3.9621 0.620973 4.1721L4.61097 8.1621C4.71597 8.3721 5.03097 8.3721 5.24097 8.1621Z" fill="#5F7D95"/>
</svg>
