<svg xmlns="http://www.w3.org/2000/svg" width="502.3" height="512" viewBox="0 0 502.3 512">
  <g id="gif" transform="translate(-4275 6153)">
    <path id="Path_13818" data-name="Path 13818" d="M437.6,497H19.8V172.3L96.3,91.4,170,14.9H437.6Z" transform="translate(4270.1 -6153)" fill="#00bdcb"/>
    <path id="Path_13819" data-name="Path 13819" d="M438.6,512H19.8A14.937,14.937,0,0,1,4.9,497.1V256.9a14.9,14.9,0,0,1,29.8,0V482.2h389V449.4a14.9,14.9,0,0,1,29.8,0v47.7A15,15,0,0,1,438.6,512Z" transform="translate(4270.1 -6153)" fill="#fff"/>
    <path id="Path_13820" data-name="Path 13820" d="M19.8,177.1v-4.8L175.6,14.9V177.1Z" transform="translate(4270.1 -6153)" fill="#00bdcb"/>
    <rect id="Rectangle_2995" data-name="Rectangle 2995" width="296.1" height="163.6" transform="translate(4466.3 -5933.6)" fill="#00bdcb"/>
    <path id="Path_13821" data-name="Path 13821" d="M492.2,204.6H453.4V14.9A14.937,14.937,0,0,0,438.5,0h-264a12.252,12.252,0,0,0-1.9.2h0a12.091,12.091,0,0,0-1.8.5c-.2.1-.3.1-.5.2a8.865,8.865,0,0,0-1.7.8h-.1c-.6.3-1.1.7-1.6,1-.1.1-.3.2-.4.3A17.383,17.383,0,0,0,165,4.3L9.2,161.9a9.957,9.957,0,0,0-1,1.1c-.2.3-.4.5-.6.8-.1.1-.2.3-.3.4-.2.3-.4.7-.6,1a.349.349,0,0,1-.1.2,11.731,11.731,0,0,0-.5,1.1c0,.1-.1.2-.1.3-.1.3-.3.7-.4,1,0,.1-.1.2-.1.3a2.959,2.959,0,0,0-.2,1c0,.1-.1.3-.1.4a2.769,2.769,0,0,0-.1.9,4.331,4.331,0,0,1-.1.5v6.2A14.937,14.937,0,0,0,19.9,192H175.7a14.937,14.937,0,0,0,14.9-14.9V29.8H423.8V204.6H196.2a14.937,14.937,0,0,0-14.9,14.9V383.1A14.937,14.937,0,0,0,196.2,398H492.3a14.937,14.937,0,0,0,14.9-14.9V219.4A15,15,0,0,0,492.2,204.6ZM50.7,162.2,160.7,51V162.2Zm426.6,206H211V234.3H477.3V368.2Z" transform="translate(4270.1 -6153)" fill="#fff"/>
    <path id="Path_13822" data-name="Path 13822" d="M298.7,270.3c-7.5,0-11.8,4.2-11.8,13.1v34.7c0,8.9,4.3,13.1,11.7,13.1s11.8-4.2,11.8-13.1v-4.5h-7.7c-3.9,0-6.2-3.8-6.2-7.9,0-3.8,2.2-7.9,6.2-7.9h22a6.089,6.089,0,0,1,6.2,6.4v13.7c0,22.5-14.1,30.9-32.2,30.9s-32.1-8.4-32.1-30.9V283.2c0-22.5,14.3-30.9,31.4-30.9,18.7,0,32.9,9.4,32.9,26.1,0,7.9-3.3,9.7-10.2,9.7-5.5,0-10.1-1.4-10.2-6.2C310.2,277.4,309.8,270.3,298.7,270.3Z" transform="translate(4270.1 -6153)" fill="#fff"/>
    <path id="Path_13823" data-name="Path 13823" d="M342.5,258.7c0-4.3,5.1-6.2,10.2-6.2s10.2,1.8,10.2,6.2V342c0,4.2-5.1,6.3-10.2,6.3s-10.2-2.1-10.2-6.3Z" transform="translate(4270.1 -6153)" fill="#fff"/>
    <path id="Path_13824" data-name="Path 13824" d="M377.1,258.8c0-4.2,4.5-6.3,8.9-6.3h45.4c4.3,0,6.2,4.6,6.2,8.8,0,4.8-2.2,9-6.2,9H397.5v22.1h19.8c3.9,0,6.2,3.8,6.2,8,0,3.5-1.8,7.7-6.2,7.7H397.5v33.8c0,4.2-5.1,6.3-10.2,6.3s-10.2-2.1-10.2-6.3V258.8Z" transform="translate(4270.1 -6153)" fill="#fff"/>
  </g>
</svg>
