<svg width="16" height="16" viewBox="0 0 16 16" fill="none" xmlns="http://www.w3.org/2000/svg">
<path d="M5.33333 16H1.77778C1.28889 16 0.87037 15.8259 0.522222 15.4778C0.174074 15.1296 0 14.7111 0 14.2222V8C0 6.88889 0.211111 5.84815 0.633333 4.87778C1.05556 3.90741 1.62593 3.06296 2.34444 2.34444C3.06296 1.62593 3.90741 1.05556 4.87778 0.633333C5.84815 0.211111 6.88889 0 8 0C9.11111 0 10.1519 0.211111 11.1222 0.633333C12.0926 1.05556 12.937 1.62593 13.6556 2.34444C14.3741 3.06296 14.9444 3.90741 15.3667 4.87778C15.7889 5.84815 16 6.88889 16 8V14.2222C16 14.7111 15.8259 15.1296 15.4778 15.4778C15.1296 15.8259 14.7111 16 14.2222 16H10.6667V8.88889H14.2222V8C14.2222 6.26667 13.6185 4.7963 12.4111 3.58889C11.2037 2.38148 9.73333 1.77778 8 1.77778C6.26667 1.77778 4.7963 2.38148 3.58889 3.58889C2.38148 4.7963 1.77778 6.26667 1.77778 8V8.88889H5.33333V16ZM3.55556 10.6667H1.77778V14.2222H3.55556V10.6667ZM12.4444 10.6667V14.2222H14.2222V10.6667H12.4444Z" fill="#00703C"/>
</svg>
