<svg width="17" height="20" viewBox="0 0 17 20" fill="none" xmlns="http://www.w3.org/2000/svg">
  <g clip-path="url(#clip0_409_8504)">
    <path d="M11.7787 0.130859H1.15575C0.89346 0.130859 0.631165 0.392297 0.631165 0.784454V19.3465C0.631165 19.4773 0.89346 19.7387 1.15575 19.7387H15.7131C15.9754 19.7387 16.2377 19.4773 16.2377 19.3465V4.70602C16.2377 4.44458 16.2377 4.44458 16.1066 4.31387L12.041 0.261578C11.9099 0.130859 11.9099 0.130859 11.7787 0.130859Z" fill="#E9E9E0"/>
    <path d="M15.7131 20H1.15574C0.762295 20 0.5 19.6078 0.5 19.3464V0.784314C0.5 0.261438 0.762295 0 1.15574 0H11.7787C11.9098 0 12.041 0 12.1721 0.130719L16.2377 4.18301C16.3689 4.31373 16.3689 4.44444 16.3689 4.70588V19.3464C16.3689 19.6078 15.9754 20 15.7131 20ZM1.15574 0.261438C1.02459 0.261438 0.762295 0.522876 0.762295 0.784314V19.3464C0.762295 19.3464 0.893443 19.6078 1.15574 19.6078H15.7131C15.8443 19.6078 16.1066 19.4771 16.1066 19.3464V4.70588C16.1066 4.57516 16.1066 4.57516 15.9754 4.44444L11.9098 0.392157L11.7787 0.261438H1.15574Z" fill="#707070"/>
    <path d="M11.9099 0.261719V4.44473H16.2377L11.9099 0.261719Z" fill="#D9D7CA"/>
    <path d="M5.22134 6.79741C6.16294 6.79741 6.92625 6.09511 6.92625 5.22878C6.92625 4.36245 6.16294 3.66016 5.22134 3.66016C4.27974 3.66016 3.51642 4.36245 3.51642 5.22878C3.51642 6.09511 4.27974 6.79741 5.22134 6.79741Z" fill="#F3D55B"/>
    <path d="M0.631165 13.7257H16.3689V9.80411L12.6967 6.53613L8.89346 10.5884L6.7951 8.62764L0.631165 13.7257Z" fill="#26B99A"/>
    <path d="M7.97544 15.5557H7.3197V16.7321H7.97544C8.23773 16.7321 8.36888 16.7321 8.36888 16.6014C8.50003 16.4707 8.50003 16.34 8.50003 16.2093C8.50003 16.0785 8.50003 15.9478 8.36888 15.8171C8.23774 15.6864 8.23773 15.5557 7.97544 15.5557Z" fill="#14A085"/>
    <path d="M0.631165 13.7256V19.0851C0.631165 19.3465 0.89346 19.6079 1.15575 19.6079H15.8443C16.1066 19.6079 16.3689 19.3465 16.3689 19.0851V13.7256H0.631165ZM6.00821 17.5164C6.00821 17.7779 6.00821 17.9086 5.87707 18.17C5.74592 18.3007 5.61477 18.4315 5.35248 18.5622C5.09018 18.6929 4.95903 18.6929 4.69674 18.6929C4.3033 18.6929 4.041 18.5622 3.77871 18.4315C3.51641 18.3007 3.51641 17.9086 3.51641 17.6472H4.3033C4.3033 17.7779 4.3033 17.9086 4.43444 18.0393C4.56559 18.17 4.56559 18.17 4.82789 18.17C4.95903 18.17 5.09018 18.17 5.22133 18.0393C5.35248 17.9086 5.35248 17.7779 5.35248 17.6472V15.1635H6.13936V17.5164H6.00821ZM9.02461 16.9936C8.76231 17.255 8.50002 17.255 7.97543 17.255H7.31969V18.5622H6.5328V14.9021H7.97543C8.23772 14.9021 8.50002 14.9021 8.63116 15.0328C8.89346 15.1635 9.02461 15.2942 9.15576 15.4249C9.2869 15.5557 9.2869 15.8171 9.2869 16.0785C9.41805 16.6014 9.2869 16.8628 9.02461 16.9936ZM10.7295 17.7779C10.8607 17.9086 11.123 18.0393 11.3853 18.0393C11.6476 18.0393 11.9099 18.0393 12.041 17.9086V17.255H11.3853V16.7321H12.8279V18.17C12.6967 18.3007 12.5656 18.4315 12.3033 18.5622C12.041 18.6929 11.7787 18.6929 11.5164 18.6929C11.2541 18.6929 10.8607 18.5622 10.7295 18.4315C10.5984 18.3007 10.3361 18.0393 10.2049 17.7779C10.0738 17.5164 9.81149 17.255 9.81149 16.9936V16.7321C9.81149 16.34 9.81149 16.0785 9.94264 15.8171C10.0738 15.5557 10.2049 15.2942 10.4672 15.1635C10.7295 15.0328 10.9918 14.9021 11.2541 14.9021C11.6476 14.9021 12.041 15.0328 12.3033 15.1635C12.5656 15.4249 12.6967 15.6864 12.6967 16.0785H12.041C12.041 15.8171 11.9099 15.6864 11.7787 15.6864C11.6476 15.5557 11.5164 15.5557 11.2541 15.5557C10.9918 15.5557 10.8607 15.6864 10.7295 15.8171C10.5984 15.9478 10.4672 16.34 10.4672 16.7321V16.9936C10.5984 17.255 10.5984 17.5164 10.7295 17.7779Z" fill="#14A085"/>
  </g>
  <defs>
    <clipPath id="clip0_409_8504">
      <rect width="16" height="20" fill="white" transform="translate(0.5)"/>
    </clipPath>
  </defs>
</svg>
