<svg width="14" height="14" viewBox="0 0 14 14" fill="none" xmlns="http://www.w3.org/2000/svg">
<mask id="mask0_1098_355" style="mask-type:alpha" maskUnits="userSpaceOnUse" x="0" y="0" width="14" height="14">
<rect width="14" height="14" fill="#D9D9D9"/>
</mask>
<g mask="url(#mask0_1098_355)">
<path d="M3.49984 8.16699H8.1665V7.00033H3.49984V8.16699ZM3.49984 6.41699H10.4998V5.25033H3.49984V6.41699ZM3.49984 4.66699H10.4998V3.50033H3.49984V4.66699ZM1.1665 12.8337V2.33366C1.1665 2.01283 1.28074 1.73817 1.50921 1.5097C1.73768 1.28123 2.01234 1.16699 2.33317 1.16699H11.6665C11.9873 1.16699 12.262 1.28123 12.4905 1.5097C12.7189 1.73817 12.8332 2.01283 12.8332 2.33366V9.33366C12.8332 9.65449 12.7189 9.92915 12.4905 10.1576C12.262 10.3861 11.9873 10.5003 11.6665 10.5003H3.49984L1.1665 12.8337ZM3.004 9.33366H11.6665V2.33366H2.33317V9.98991L3.004 9.33366Z" fill="#CAB709"/>
</g>
</svg>
