<svg width="18" height="4" viewBox="0 0 18 4" fill="none" xmlns="http://www.w3.org/2000/svg">
  <path d="M14 1.99987C14 1.6043 14.1173 1.21744 14.337 0.888539C14.5568 0.559641 14.8692 0.303586 15.2346 0.152211C15.6001 0.000835463 16.0022 -0.0387293 16.3901 0.0384412C16.7781 0.115612 17.1345 0.306099 17.4142 0.585804C17.6939 0.86551 17.8844 1.22177 17.9615 1.60973C18.0387 1.99769 17.9992 2.39955 17.8478 2.765C17.6964 3.13046 17.44 3.44319 17.1111 3.66295C16.7822 3.88272 16.3956 3.99987 16 3.99987C15.4696 3.99987 14.9609 3.789 14.5858 3.41393C14.2107 3.03886 14 2.5303 14 1.99987ZM7 1.99987C7 1.6043 7.11727 1.21744 7.33704 0.888539C7.5568 0.559641 7.86917 0.303586 8.23462 0.152211C8.60007 0.000835463 9.00217 -0.0387293 9.39014 0.0384412C9.7781 0.115612 10.1345 0.306099 10.4142 0.585804C10.6939 0.86551 10.8844 1.22177 10.9615 1.60973C11.0387 1.99769 10.9992 2.39955 10.8478 2.765C10.6964 3.13046 10.44 3.44319 10.1111 3.66295C9.78219 3.88272 9.39556 3.99987 9 3.99987C8.46957 3.99987 7.96089 3.789 7.58582 3.41393C7.21074 3.03886 7 2.5303 7 1.99987ZM0 1.99987C0 1.6043 0.117273 1.21744 0.337036 0.888539C0.556799 0.559641 0.869167 0.303586 1.23462 0.152211C1.60007 0.000835463 2.00217 -0.0387293 2.39014 0.0384412C2.7781 0.115612 3.13448 0.306099 3.41418 0.585804C3.69389 0.86551 3.88438 1.22177 3.96155 1.60973C4.03872 1.99769 3.99915 2.39955 3.84778 2.765C3.6964 3.13046 3.43998 3.44319 3.11108 3.66295C2.78219 3.88272 2.39556 3.99987 2 3.99987C1.46957 3.99987 0.960888 3.789 0.585815 3.41393C0.210743 3.03886 0 2.5303 0 1.99987Z" fill="#00703C"/>
</svg>
