<svg width="16" height="20" viewBox="0 0 16 20" fill="none" xmlns="http://www.w3.org/2000/svg">
  <path d="M11.3877 0H1.02251C0.733934 0 0.5 0.233934 0.5 0.687873V19.6433C0.5 19.7665 0.733934 20.0005 1.02251 20.0005H15.335C15.6236 20.0005 15.8575 19.7665 15.8575 19.6433V4.63511C15.8575 4.38653 15.8243 4.30653 15.7657 4.2476L11.6099 0.0917878C11.551 0.033215 11.471 0 11.3877 0Z" fill="#E9E9E0"/>
  <path d="M11.5717 0.0537109V4.28559H15.8036L11.5717 0.0537109Z" fill="#D9D7CA"/>
  <path d="M5.14807 11.9013C5.02378 11.9013 4.9045 11.8609 4.80271 11.7849C4.43091 11.5059 4.38091 11.1956 4.40448 10.9841C4.46949 10.4027 5.18843 9.79411 6.54203 9.17409C7.07919 7.99692 7.59027 6.54653 7.89492 5.33472C7.53848 4.55899 7.19205 3.55254 7.44455 2.96217C7.53313 2.75537 7.64349 2.5968 7.84956 2.52823C7.93099 2.50108 8.13671 2.4668 8.21243 2.4668C8.39243 2.4668 8.55065 2.69859 8.6628 2.84145C8.76816 2.97574 9.00709 3.26039 8.52958 5.27079C9.01102 6.2651 9.69318 7.27798 10.3468 7.97156C10.815 7.88692 11.2179 7.8437 11.5461 7.8437C12.1054 7.8437 12.4443 7.97406 12.5825 8.24264C12.6968 8.46479 12.65 8.72444 12.4432 9.01409C12.2443 9.29231 11.97 9.43945 11.6504 9.43945C11.2161 9.43945 10.7103 9.16516 10.1464 8.62336C9.13316 8.83516 7.94992 9.21302 6.99347 9.63125C6.69489 10.2648 6.40882 10.7752 6.14238 11.1495C5.7763 11.662 5.46058 11.9013 5.14807 11.9013ZM6.09881 10.0705C5.33558 10.4995 5.0245 10.852 5.002 11.0506C4.99843 11.0834 4.98878 11.1699 5.15593 11.2977C5.20915 11.2809 5.51987 11.1391 6.09881 10.0705ZM10.9693 8.48408C11.2604 8.70801 11.3314 8.82123 11.5218 8.82123C11.6054 8.82123 11.8436 8.81766 11.9539 8.66372C12.0072 8.58908 12.0279 8.54122 12.0361 8.51551C11.9922 8.49229 11.9339 8.44515 11.6164 8.44515C11.4361 8.4455 11.2093 8.45336 10.9693 8.48408ZM8.30136 6.13331C8.046 7.0169 7.70885 7.97085 7.34634 8.8348C8.09278 8.54515 8.90423 8.29229 9.66639 8.11335C9.18424 7.55334 8.70244 6.85404 8.30136 6.13331ZM8.08457 3.1111C8.04957 3.12288 7.60956 3.73861 8.11886 4.25969C8.45779 3.50432 8.09993 3.1061 8.08457 3.1111Z" fill="#CC4B4C"/>
  <path d="M15.335 20.0003H1.02251C0.733934 20.0003 0.5 19.7663 0.5 19.4778V13.9287H15.8575V19.4778C15.8575 19.7663 15.6236 20.0003 15.335 20.0003Z" fill="#CC4B4C"/>
  <path d="M4.38763 18.9287H3.80154V15.3301H4.83657C4.98943 15.3301 5.14086 15.3544 5.29051 15.4033C5.44015 15.4522 5.57444 15.5254 5.69337 15.6229C5.8123 15.7204 5.90838 15.8387 5.98159 15.9769C6.05481 16.1151 6.0916 16.2705 6.0916 16.4433C6.0916 16.6258 6.06052 16.7908 5.99874 16.939C5.93695 17.0873 5.85052 17.2119 5.7398 17.3126C5.62909 17.4133 5.49551 17.4916 5.33944 17.5469C5.18336 17.6023 5.0105 17.6298 4.82192 17.6298H4.38727L4.38763 18.9287ZM4.38763 15.7744V17.2001H4.92478C4.99621 17.2001 5.06693 17.188 5.13729 17.1633C5.20729 17.139 5.27158 17.099 5.33015 17.0437C5.38872 16.9883 5.43587 16.9112 5.47158 16.8119C5.5073 16.7126 5.52515 16.5897 5.52515 16.4433C5.52515 16.3847 5.51694 16.3169 5.50087 16.2408C5.48444 16.1644 5.45122 16.0912 5.40087 16.0212C5.35015 15.9512 5.27944 15.8926 5.18836 15.8454C5.09729 15.7983 4.97657 15.7747 4.82692 15.7747L4.38763 15.7744Z" fill="white"/>
  <path d="M9.68564 17.0294C9.68564 17.3255 9.65385 17.5787 9.59028 17.7887C9.5267 17.9987 9.44634 18.1744 9.34848 18.3162C9.25063 18.458 9.14098 18.5694 9.01883 18.6509C8.89669 18.7323 8.77883 18.793 8.6649 18.8341C8.55097 18.8748 8.44668 18.9009 8.35239 18.9123C8.2581 18.923 8.1881 18.9287 8.14239 18.9287H6.78021V15.3301H7.86417C8.16703 15.3301 8.43311 15.3783 8.6624 15.474C8.89169 15.5697 9.08241 15.6979 9.23384 15.8572C9.38527 16.0165 9.49813 16.1983 9.57313 16.4015C9.64813 16.6051 9.68564 16.8144 9.68564 17.0294ZM7.94738 18.4991C8.34453 18.4991 8.63097 18.3723 8.80669 18.1184C8.98241 17.8644 9.07026 17.4966 9.07026 17.0148C9.07026 16.8651 9.05241 16.7169 9.01669 16.5705C8.98062 16.424 8.91169 16.2915 8.80919 16.1726C8.70668 16.0537 8.5674 15.9576 8.39168 15.8844C8.21596 15.8112 7.9881 15.7744 7.70809 15.7744H7.3663V18.4991H7.94738Z" fill="white"/>
  <path d="M11.1309 15.7744V16.9073H12.6349V17.3076H11.1309V18.9287H10.5352V15.3301H12.786V15.7744H11.1309Z" fill="white"/>
</svg>
