<svg width="14" height="18" viewBox="0 0 14 18" fill="none" xmlns="http://www.w3.org/2000/svg">
<g clip-path="url(#clip0_818_81)">
<path d="M9.7541 0H0.459016C0.229508 0 0 0.235294 0 0.588235V17.2941C0 17.4118 0.229508 17.6471 0.459016 17.6471H13.1967C13.4262 17.6471 13.6557 17.4118 13.6557 17.2941V4.11765C13.6557 3.88235 13.6557 3.88235 13.541 3.76471L9.98361 0.117647C9.86885 0 9.86885 0 9.7541 0Z" fill="#E9E9E0"/>
<path d="M13.3115 18H0.57377C0.229508 18 0 17.6471 0 17.4118V0.705882C0 0.235294 0.229508 0 0.57377 0H9.86885C9.98361 0 10.0984 0 10.2131 0.117647L13.7705 3.76471C13.8852 3.88235 13.8852 4 13.8852 4.23529V17.4118C13.8852 17.6471 13.541 18 13.3115 18ZM0.57377 0.235294C0.459016 0.235294 0.229508 0.470588 0.229508 0.705882V17.4118C0.229508 17.4118 0.344262 17.6471 0.57377 17.6471H13.3115C13.4262 17.6471 13.6557 17.5294 13.6557 17.4118V4.23529C13.6557 4.11765 13.6557 4.11765 13.541 4L9.98361 0.352941L9.86885 0.235294H0.57377Z" fill="#707070"/>
<path d="M9.98364 0.235352V4.00006H13.7705L9.98364 0.235352Z" fill="#D9D7CA"/>
<path d="M4.13121 6.1176C4.95511 6.1176 5.62301 5.48553 5.62301 4.70583C5.62301 3.92614 4.95511 3.29407 4.13121 3.29407C3.30731 3.29407 2.6394 3.92614 2.6394 4.70583C2.6394 5.48553 3.30731 6.1176 4.13121 6.1176Z" fill="#F3D55B"/>
<path d="M0.114746 12.3529H13.8852V8.8235L10.6721 5.88232L7.34425 9.52938L5.50819 7.76468L0.114746 12.3529Z" fill="#26B99A"/>
<path d="M0.114746 12.3529V17.1764C0.114746 17.4117 0.344254 17.647 0.573762 17.647H13.4262C13.6557 17.647 13.8852 17.4117 13.8852 17.1764V12.3529H0.114746Z" fill="#14A085"/>
<path d="M3.90165 14H3.32788V15.0588H3.90165C4.13116 15.0588 4.24591 15.0588 4.24591 14.9412C4.36067 14.8235 4.36067 14.7059 4.36067 14.5882C4.36067 14.4706 4.36067 14.3529 4.24591 14.2353C4.24591 14.1176 4.13116 14 3.90165 14Z" fill="#14A085"/>
<path d="M2.29517 16.4236V12.9881H3.59401C3.84371 12.9881 4.05643 13.0379 4.23218 13.1374C4.40793 13.2358 4.54189 13.3728 4.63405 13.5484C4.72729 13.7229 4.7739 13.9242 4.7739 14.1523C4.7739 14.3804 4.72675 14.5817 4.63244 14.7562C4.53814 14.9307 4.4015 15.0665 4.22254 15.1638C4.04464 15.2611 3.82924 15.3098 3.57633 15.3098H2.74848V14.7277H3.46381C3.59776 14.7277 3.70814 14.7036 3.79495 14.6555C3.88282 14.6063 3.94819 14.5387 3.99106 14.4526C4.035 14.3653 4.05697 14.2653 4.05697 14.1523C4.05697 14.0382 4.035 13.9387 3.99106 13.8537C3.94819 13.7676 3.88282 13.7011 3.79495 13.6541C3.70707 13.606 3.59562 13.582 3.46059 13.582H2.99121V16.4236H2.29517Z" fill="#E9E9E0"/>
<path d="M7.97962 12.9881V16.4236H7.37843L5.94616 14.2613H5.92205V16.4236H5.22601V12.9881H5.83685L7.25786 15.1487H7.2868V12.9881H7.97962Z" fill="#E9E9E0"/>
<path d="M10.7377 14.0986C10.7152 14.017 10.6835 13.9449 10.6428 13.8822C10.6021 13.8185 10.5523 13.7648 10.4933 13.7212C10.4355 13.6765 10.369 13.6423 10.294 13.6189C10.2201 13.5954 10.1381 13.5836 10.0481 13.5836C9.8798 13.5836 9.73191 13.6273 9.60438 13.7145C9.47793 13.8017 9.37934 13.9286 9.30861 14.0953C9.23788 14.2608 9.20252 14.4632 9.20252 14.7025C9.20252 14.9418 9.23734 15.1454 9.307 15.3131C9.37666 15.4809 9.47525 15.6089 9.60278 15.6973C9.7303 15.7845 9.88087 15.8281 10.0545 15.8281C10.212 15.8281 10.3465 15.799 10.458 15.7409C10.5705 15.6816 10.6562 15.5983 10.7152 15.4909C10.7752 15.3836 10.8052 15.2566 10.8052 15.1101L10.9466 15.1319H10.0979V14.5851H11.4755V15.0179C11.4755 15.3198 11.4144 15.5793 11.2922 15.7962C11.1701 16.0121 11.0018 16.1787 10.7875 16.2961C10.5732 16.4124 10.3278 16.4706 10.0513 16.4706C9.74263 16.4706 9.4715 16.3996 9.23788 16.2575C9.00426 16.1144 8.82208 15.9114 8.69134 15.6486C8.56167 15.3847 8.49683 15.0716 8.49683 14.7092C8.49683 14.4308 8.53541 14.1825 8.61257 13.9644C8.6908 13.7452 8.80011 13.5596 8.9405 13.4075C9.08088 13.2554 9.24431 13.1397 9.43078 13.0603C9.61725 12.9809 9.81925 12.9412 10.0368 12.9412C10.2233 12.9412 10.3969 12.9697 10.5576 13.0267C10.7184 13.0826 10.8609 13.162 10.9852 13.2649C11.1106 13.3678 11.2129 13.4903 11.2922 13.6323C11.3715 13.7732 11.4224 13.9286 11.445 14.0986H10.7377Z" fill="#E9E9E0"/>
</g>
<defs>
<clipPath id="clip0_818_81">
<rect width="14" height="18" fill="white"/>
</clipPath>
</defs>
</svg>
