<svg width="14" height="14" viewBox="0 0 14 14" fill="none" xmlns="http://www.w3.org/2000/svg">
<mask id="mask0_1461_2485" style="mask-type:alpha" maskUnits="userSpaceOnUse" x="0" y="0" width="14" height="14">
<rect width="14" height="14" fill="#D9D9D9"/>
</mask>
<g mask="url(#mask0_1461_2485)">
<path d="M5.48366 11.4045C5.30866 11.0837 5.15553 10.7507 5.02428 10.4055C4.89303 10.0604 4.78366 9.7031 4.69616 9.33366H2.97533C3.25727 9.81977 3.6097 10.2427 4.03262 10.6024C4.45553 10.9621 4.93921 11.2295 5.48366 11.4045ZM2.47949 8.16699H4.46283C4.43366 7.97255 4.41178 7.78053 4.3972 7.59095C4.38262 7.40137 4.37533 7.20449 4.37533 7.00033C4.37533 6.79616 4.38262 6.59928 4.3972 6.4097C4.41178 6.22012 4.43366 6.0281 4.46283 5.83366H2.47949C2.43088 6.0281 2.39442 6.22012 2.37012 6.4097C2.34581 6.59928 2.33366 6.79616 2.33366 7.00033C2.33366 7.20449 2.34581 7.40137 2.37012 7.59095C2.39442 7.78053 2.43088 7.97255 2.47949 8.16699ZM2.97533 4.66699H4.69616C4.78366 4.29755 4.89303 3.94026 5.02428 3.59512C5.15553 3.24998 5.30866 2.91699 5.48366 2.59616C4.93921 2.77116 4.45553 3.03852 4.03262 3.39824C3.6097 3.75796 3.25727 4.18088 2.97533 4.66699ZM5.89199 4.66699H8.10866C7.99199 4.23921 7.8413 3.83574 7.65658 3.45658C7.47185 3.07741 7.2531 2.71283 7.00033 2.36283C6.74755 2.71283 6.5288 3.07741 6.34408 3.45658C6.15935 3.83574 6.00866 4.23921 5.89199 4.66699ZM9.30449 4.66699H11.0253C10.7434 4.18088 10.391 3.75796 9.96803 3.39824C9.54512 3.03852 9.06144 2.77116 8.51699 2.59616C8.69199 2.91699 8.84512 3.24998 8.97637 3.59512C9.10762 3.94026 9.21699 4.29755 9.30449 4.66699ZM7.00033 12.8337C6.2031 12.8337 5.44963 12.6805 4.73991 12.3743C4.03019 12.068 3.4104 11.65 2.88053 11.1201C2.35067 10.5903 1.93262 9.97047 1.62637 9.26074C1.32012 8.55102 1.16699 7.79755 1.16699 7.00033C1.16699 6.19338 1.32012 5.43748 1.62637 4.73262C1.93262 4.02776 2.35067 3.4104 2.88053 2.88053C3.4104 2.35067 4.03019 1.93262 4.73991 1.62637C5.44963 1.32012 6.2031 1.16699 7.00033 1.16699C7.80727 1.16699 8.56317 1.32012 9.26803 1.62637C9.9729 1.93262 10.5903 2.35067 11.1201 2.88053C11.65 3.4104 12.068 4.02776 12.3743 4.73262C12.6805 5.43748 12.8337 6.19338 12.8337 7.00033C12.8337 7.09755 12.8312 7.19477 12.8264 7.29199C12.8215 7.38921 12.8142 7.48644 12.8045 7.58366H11.6232C11.6427 7.48644 11.6548 7.39165 11.6597 7.29928C11.6646 7.20692 11.667 7.10727 11.667 7.00033C11.667 6.79616 11.6548 6.59928 11.6305 6.4097C11.6062 6.22012 11.5698 6.0281 11.5212 5.83366H9.53783C9.56699 6.0281 9.58887 6.22012 9.60345 6.4097C9.61803 6.59928 9.62533 6.79616 9.62533 7.00033V7.29928C9.62533 7.39165 9.62047 7.48644 9.61074 7.58366H8.44408C8.4538 7.48644 8.45866 7.39165 8.45866 7.29928V7.00033C8.45866 6.79616 8.45137 6.59928 8.43678 6.4097C8.4222 6.22012 8.40033 6.0281 8.37116 5.83366H5.62949C5.60033 6.0281 5.57845 6.22012 5.56387 6.4097C5.54928 6.59928 5.54199 6.79616 5.54199 7.00033C5.54199 7.20449 5.54928 7.40137 5.56387 7.59095C5.57845 7.78053 5.60033 7.97255 5.62949 8.16699H7.58366V9.33366H5.89199C6.00866 9.76144 6.15935 10.1649 6.34408 10.5441C6.5288 10.9232 6.74755 11.2878 7.00033 11.6378C7.10727 11.4823 7.20935 11.3243 7.30658 11.1639C7.4038 11.0035 7.49616 10.8406 7.58366 10.6753V12.8045C7.48644 12.8142 7.39165 12.8215 7.29928 12.8264C7.20692 12.8312 7.10727 12.8337 7.00033 12.8337ZM11.6378 12.4691L9.91699 10.7482V12.0462H8.75033V8.75033H12.0462V9.91699H10.7337L12.4545 11.6378L11.6378 12.4691Z" fill="#28A1B1"/>
</g>
</svg>
