<svg width="16" height="16" viewBox="0 0 16 16" fill="none" xmlns="http://www.w3.org/2000/svg">
<g clip-path="url(#clip0_1826_432)">
<path d="M11.6657 3.66797C11.4813 3.66797 11.3313 3.81797 11.3313 4.00234V6.00234C11.3313 6.18672 11.4813 6.33672 11.6657 6.33672H13.6657C13.85 6.33672 14 6.18672 14 6.00234C14 4.71172 12.9563 3.66797 11.6657 3.66797Z" fill="#CE2C06"/>
<path d="M11.6657 6.99941C11.1126 6.99941 10.6657 6.55254 10.6657 5.99941V4.36816C9.3938 4.54941 8.5063 5.72754 8.68755 6.99941C8.8688 8.27129 10.0469 9.15879 11.3188 8.97754C12.3438 8.83066 13.1501 8.02441 13.2969 6.99941H11.6657Z" fill="#CE2C06"/>
<path d="M9.20938 0.405859C9.13125 0.340234 9.025 0.318359 8.92813 0.340234L0.259375 2.34023C0.10625 2.37461 0 2.51211 0 2.66836V13.9996C0 14.1652 0.11875 14.3027 0.28125 14.3277L8.94687 15.6621C9.12812 15.6902 9.3 15.5652 9.32812 15.384C9.33125 15.3684 9.33125 15.3496 9.33125 15.334V0.668359C9.33438 0.565234 9.2875 0.468359 9.20938 0.405859Z" fill="#CE2C06"/>
<path d="M15.6655 14.3338H8.9999C8.81553 14.3338 8.66553 14.1838 8.66553 13.9994C8.66553 13.815 8.81553 13.665 8.9999 13.665H15.3343V2.33379H8.9999C8.81553 2.33379 8.66553 2.18379 8.66553 1.99941C8.66553 1.81504 8.81553 1.66504 8.9999 1.66504H15.6655C15.8499 1.66504 15.9999 1.81504 15.9999 1.99941V13.9994C15.9999 14.1838 15.8499 14.3338 15.6655 14.3338Z" fill="#CE2C06"/>
<path d="M13.6655 12.3338H8.9999C8.81553 12.3338 8.66553 12.1838 8.66553 11.9994C8.66553 11.815 8.81553 11.665 8.9999 11.665H13.6655C13.8499 11.665 13.9999 11.815 13.9999 11.9994C13.9999 12.1838 13.8499 12.3338 13.6655 12.3338Z" fill="#CE2C06"/>
<path d="M13.6655 10.3338H8.9999C8.81553 10.3338 8.66553 10.1838 8.66553 9.99941C8.66553 9.81504 8.81553 9.66504 8.9999 9.66504H13.6655C13.8499 9.66504 13.9999 9.81504 13.9999 9.99941C13.9999 10.1838 13.8499 10.3338 13.6655 10.3338Z" fill="#CE2C06"/>
<path d="M2.9999 11C2.81553 11 2.66553 10.85 2.66553 10.6656V5.33437C2.66553 5.15 2.81553 5 2.9999 5H4.33428C5.25615 5 5.9999 5.74688 5.9999 6.66563V7.33125C5.9999 8.25313 5.25303 8.99687 4.33428 8.99687H3.33428V10.6625C3.33428 10.8531 3.18428 11 2.9999 11ZM3.33428 8.33438H4.33428C4.8874 8.33438 5.33428 7.8875 5.33428 7.33437V6.66875C5.33428 6.11562 4.8874 5.66875 4.33428 5.66875H3.33428V8.33438Z" fill="#FAFAFA"/>
</g>
<defs>
<clipPath id="clip0_1826_432">
<rect width="16" height="16" fill="white"/>
</clipPath>
</defs>
</svg>
