<svg width="14" height="14" viewBox="0 0 14 14" fill="none" xmlns="http://www.w3.org/2000/svg">
  <path d="M7 14C5.04583 14 3.39062 13.3219 2.03437 11.9656C0.678125 10.6094 0 8.95417 0 7C0 5.04583 0.678125 3.39062 2.03437 2.03437C3.39062 0.678125 5.04583 0 7 0C8.00625 0 8.96875 0.207813 9.8875 0.623438C10.8063 1.03906 11.5938 1.63333 12.25 2.40625V0H14V6.125H7.875V4.375H11.55C11.0833 3.55833 10.4453 2.91667 9.63594 2.45C8.82656 1.98333 7.94792 1.75 7 1.75C5.54167 1.75 4.30208 2.26042 3.28125 3.28125C2.26042 4.30208 1.75 5.54167 1.75 7C1.75 8.45833 2.26042 9.69792 3.28125 10.7188C4.30208 11.7396 5.54167 12.25 7 12.25C8.12292 12.25 9.13646 11.9292 10.0406 11.2875C10.9448 10.6458 11.5792 9.8 11.9438 8.75H13.7812C13.3729 10.2958 12.5417 11.5573 11.2875 12.5344C10.0333 13.5115 8.60417 14 7 14Z" fill="#E48203"/>
</svg>
