<svg width="6" height="9" viewBox="0 0 6 9" fill="none" xmlns="http://www.w3.org/2000/svg">
<path d="M5.84131 4.8502C5.94294 4.75738 6 4.6317 6 4.50068C6 4.36965 5.94294 4.24397 5.84131 4.15115L1.4388 0.14438C1.33677 0.051916 1.19863 0 1.05462 0C0.910611 0 0.772469 0.051916 0.67044 0.14438L0.158693 0.612667C0.0570621 0.705494 0 0.831177 0 0.962197C0 1.09322 0.0570621 1.2189 0.158693 1.31173L3.6445 4.50068L0.158693 7.69097C0.0575135 7.78374 0.000737364 7.90914 0.000737364 8.03983C0.000737364 8.17052 0.0575135 8.29591 0.158693 8.38868L0.671923 8.85562C0.773952 8.94809 0.912094 9 1.0561 9C1.20011 9 1.33826 8.94809 1.44028 8.85562L5.84131 4.8502Z" fill="#5F7D95"/>
</svg>