<svg width="14" height="14" viewBox="0 0 14 14" fill="none" xmlns="http://www.w3.org/2000/svg">
  <path d="M6.25539 0C7.49259 0 8.70201 0.366872 9.7307 1.05422C10.7594 1.74157 11.5612 2.71853 12.0346 3.86156C12.5081 5.00458 12.632 6.26233 12.3906 7.47576C12.1492 8.68919 11.5535 9.80379 10.6786 10.6786C9.80379 11.5535 8.68919 12.1492 7.47576 12.3906C6.26233 12.632 5.00458 12.5081 3.86156 12.0346C2.71853 11.5612 1.74157 10.7594 1.05422 9.7307C0.366872 8.70201 0 7.49259 0 6.25539C0.00180914 4.59691 0.661438 3.00688 1.83416 1.83416C3.00688 0.661438 4.59691 0.00180914 6.25539 0ZM6.25539 11.0117C7.19565 11.0117 8.11478 10.7329 8.89658 10.2105C9.67837 9.68811 10.2877 8.94563 10.6475 8.07695C11.0073 7.20827 11.1015 6.2524 10.9181 5.33021C10.7346 4.40802 10.2818 3.56094 9.61698 2.89608C8.95212 2.23122 8.10504 1.77844 7.18285 1.59501C6.26067 1.41158 5.30479 1.50572 4.43611 1.86554C3.56743 2.22536 2.82496 2.83469 2.30258 3.61649C1.7802 4.39828 1.50139 5.31742 1.50139 6.25767C1.5036 7.51755 2.00527 8.72516 2.89643 9.61574C3.78758 10.5063 4.99551 11.0072 6.25539 11.0086V11.0117Z" fill="#00703C"/>
  <path d="M13.2501 14C13.1514 14.0003 13.0536 13.9811 12.9624 13.9434C12.8711 13.9057 12.7883 13.8504 12.7185 13.7805L9.57981 10.6411C9.43883 10.5001 9.35962 10.3088 9.35962 10.1095C9.35962 9.91007 9.43883 9.71885 9.57981 9.57786C9.7208 9.43687 9.91202 9.35767 10.1114 9.35767C10.3108 9.35767 10.502 9.43687 10.643 9.57786L13.781 12.7188C13.8861 12.8238 13.9576 12.9576 13.9866 13.1033C14.0156 13.249 14.0006 13.4 13.9437 13.5372C13.8868 13.6745 13.7904 13.7917 13.6668 13.874C13.5432 13.9564 13.3979 14.0003 13.2494 14H13.2501Z" fill="#00703C"/>
</svg>
