<svg width="19" height="17" viewBox="0 0 19 17" fill="none" xmlns="http://www.w3.org/2000/svg">
  <mask id="mask0_2_2074" style="mask-type:luminance" maskUnits="userSpaceOnUse" x="0" y="0" width="19" height="17">
    <path d="M18.64 0.75H0.85498V16.499H18.64V0.75Z" fill="white"/>
  </mask>
  <g mask="url(#mask0_2_2074)">
    <path d="M14.88 3.19598H17.889M1.60504 3.19598H11.38M14.88 14.052H17.889M1.60403 14.052H11.379M8.06604 8.62398H17.888M1.60303 8.62398H4.50305" stroke="#5F7D95" stroke-width="1.5" stroke-linecap="round" stroke-linejoin="round"/>
    <path d="M13.14 4.89201C13.4762 4.89201 13.8048 4.7923 14.0844 4.6055C14.364 4.41871 14.5819 4.1532 14.7105 3.84257C14.8392 3.53193 14.8729 3.19012 14.8073 2.86035C14.7417 2.53058 14.5798 2.22767 14.342 1.98992C14.1043 1.75217 13.8014 1.59027 13.4716 1.52467C13.1419 1.45908 12.8 1.49274 12.4894 1.62141C12.1787 1.75008 11.9132 1.96797 11.7264 2.24754C11.5396 2.5271 11.4399 2.85578 11.4399 3.19201C11.4399 3.64287 11.6191 4.07528 11.9379 4.39409C12.2567 4.7129 12.6891 4.89201 13.14 4.89201Z" stroke="#5F7D95" stroke-width="1.5" stroke-linecap="round" stroke-linejoin="round"/>
    <path d="M6.35504 10.32C6.69127 10.32 7.01994 10.2203 7.2995 10.0335C7.57906 9.84668 7.79696 9.58118 7.92563 9.27055C8.0543 8.95991 8.08796 8.6181 8.02237 8.28833C7.95677 7.95856 7.79488 7.65565 7.55713 7.4179C7.31938 7.18015 7.01647 7.01824 6.68671 6.95265C6.35694 6.88705 6.0151 6.92072 5.70447 7.04939C5.39383 7.17806 5.12833 7.39595 4.94153 7.67551C4.75473 7.95508 4.65503 8.28375 4.65503 8.61998C4.65503 9.07085 4.83414 9.50325 5.15295 9.82206C5.47177 10.1409 5.90417 10.32 6.35504 10.32Z" stroke="#5F7D95" stroke-width="1.5" stroke-linecap="round" stroke-linejoin="round"/>
    <path d="M14.8441 14.056C14.8296 13.6098 14.6458 13.1857 14.3301 12.87C14.0144 12.5543 13.5904 12.3705 13.1441 12.356C12.8079 12.356 12.4792 12.4557 12.1996 12.6425C11.9201 12.8293 11.7022 13.0948 11.5735 13.4055C11.4448 13.7161 11.4112 14.0579 11.4768 14.3877C11.5424 14.7174 11.7042 15.0204 11.942 15.2581C12.1797 15.4958 12.4827 15.6578 12.8124 15.7234C13.1422 15.7889 13.484 15.7553 13.7947 15.6266C14.1053 15.4979 14.3708 15.2801 14.5576 15.0005C14.7444 14.7209 14.8441 14.3922 14.8441 14.056ZM14.8441 14.056C14.8371 13.876 14.8441 13.965 14.8441 14.056Z" stroke="#5F7D95" stroke-width="1.5" stroke-linecap="round"/>
  </g>
</svg>
