<svg width="16" height="16" viewBox="0 0 16 16" fill="none" xmlns="http://www.w3.org/2000/svg">
<g clip-path="url(#clip0_1826_420)">
<path d="M9.76008 14.6182C9.78193 14.6182 9.80104 14.6209 9.82289 14.6209H14.6674C15.2354 14.6209 15.6942 14.1594 15.6942 13.5941V2.36491C15.6942 1.79962 15.2327 1.33811 14.6674 1.33811H9.82289C9.80104 1.33811 9.7792 1.34084 9.76008 1.34084V0L0.305908 1.26165V14.7056L9.76008 16V14.6182ZM9.82289 1.92524H14.6674C14.9104 1.92524 15.1071 2.12186 15.1071 2.36491V13.5941C15.1071 13.8372 14.9104 14.0338 14.6674 14.0338H9.82289C9.80104 14.0338 9.7792 14.0311 9.76008 14.0283V10.4427H14.2687C14.3779 10.4427 14.4653 10.3554 14.4653 10.2461C14.4653 10.1369 14.3779 10.0495 14.2687 10.0495H9.76008V8.85066H14.2687C14.3779 8.85066 14.4653 8.76327 14.4653 8.65404C14.4653 8.5448 14.3779 8.45742 14.2687 8.45742H9.76008V7.29408H14.2687C14.3779 7.29408 14.4653 7.20669 14.4653 7.09746C14.4653 6.98822 14.3779 6.90084 14.2687 6.90084H9.76008V5.72657H12.1851C12.2943 5.72657 12.3817 5.63919 12.3817 5.52995C12.3817 5.42072 12.2943 5.33333 12.1851 5.33333H9.76008V1.9307C9.78193 1.92797 9.80104 1.92524 9.82289 1.92524ZM3.06133 7.03192L2.27484 7.04557V9.51152L1.63583 9.49514V7.05649L0.89577 7.07015V6.50486L3.06406 6.44752L3.06133 7.03192ZM5.09853 9.57979L4.81726 8.99812C4.70256 8.77419 4.62883 8.61034 4.54417 8.42738H4.53598C4.47317 8.61034 4.39398 8.77419 4.30113 8.99266L4.04989 9.55521L3.27979 9.5361L4.14274 7.96859L3.30983 6.43932L4.08539 6.42021L4.35028 6.98822C4.4404 7.17938 4.50867 7.33231 4.58241 7.50981H4.5906C4.66433 7.30773 4.72441 7.16573 4.80087 6.98003L5.06303 6.39563L5.87956 6.37378L4.9893 7.94948L5.92871 9.60164L5.09853 9.57979ZM8.68686 6.93907L7.74472 6.95545V9.64806L6.98281 9.62895V6.96911L6.10348 6.98276V6.36832L8.68686 6.30005V6.93907Z" fill="#157077"/>
</g>
<defs>
<clipPath id="clip0_1826_420">
<rect width="16" height="16" fill="white"/>
</clipPath>
</defs>
</svg>
