<svg xmlns="http://www.w3.org/2000/svg" width="20" height="20" viewBox="0 0 20 20" fill="none">
<path d="M13.2089 0H2.84394C2.55537 0 2.32144 0.233929 2.32144 0.687857V19.6429C2.32144 19.7661 2.55537 20 2.84394 20H17.1561C17.4447 20 17.6786 19.7661 17.6786 19.6429V4.635C17.6786 4.38643 17.6454 4.30643 17.5868 4.2475L13.4311 0.0917857C13.3722 0.0332143 13.2922 0 13.2089 0Z" fill="#E9E9E0"/>
<path d="M13.3929 0.0539551V4.28574H17.6247L13.3929 0.0539551Z" fill="#D9D7CA"/>
<path d="M17.1561 19.9999H2.84394C2.55537 19.9999 2.32144 19.766 2.32144 19.4774V13.9285H17.6786V19.4774C17.6786 19.766 17.4447 19.9999 17.1561 19.9999Z" fill="#0E9B65"/>
<path d="M7.27822 17.1803L8.19144 18.9285H7.51287L6.94144 17.571H6.89251L6.27715 18.9285H5.59858L6.51179 17.1803L5.54001 15.3296H6.20894L6.84358 16.7946H6.89251L7.58108 15.3296H8.25001L7.27822 17.1803Z" fill="white"/>
<path d="M9.65608 15.3301V18.4844H11.3114V18.9286H9.06036V15.3301H9.65608Z" fill="white"/>
<path d="M13.9432 17.9422C13.9432 18.0722 13.9164 18.1986 13.8625 18.3208C13.8086 18.4429 13.7332 18.5501 13.6357 18.6429C13.5382 18.7358 13.4175 18.8097 13.2743 18.8651C13.1311 18.9204 12.9682 18.9479 12.7861 18.9479C12.7079 18.9479 12.6275 18.9436 12.5443 18.9358C12.4611 18.9279 12.3775 18.9136 12.2929 18.8943C12.2082 18.8747 12.1275 18.8479 12.0511 18.8136C11.9746 18.7793 11.9086 18.7379 11.8532 18.689L11.9557 18.269C12.0011 18.2951 12.0589 18.3204 12.1289 18.3447C12.1989 18.369 12.2711 18.3918 12.3461 18.4129C12.4207 18.4343 12.4957 18.4511 12.5707 18.4643C12.6454 18.4772 12.7154 18.484 12.7807 18.484C12.9793 18.484 13.1314 18.4376 13.2371 18.3447C13.3429 18.2518 13.3957 18.1143 13.3957 17.9322C13.3957 17.8215 13.3582 17.7272 13.2836 17.649C13.2086 17.5708 13.115 17.5001 13.0029 17.4365C12.8907 17.3729 12.7693 17.3097 12.6389 17.2461C12.5086 17.1826 12.3864 17.1076 12.2729 17.0215C12.1589 16.9354 12.0646 16.8336 11.9896 16.7165C11.9146 16.5993 11.8775 16.4529 11.8775 16.2772C11.8775 16.1179 11.9068 15.9761 11.9654 15.8526C12.0239 15.729 12.1029 15.6236 12.2021 15.5376C12.3014 15.4515 12.4171 15.3854 12.5489 15.3397C12.6807 15.294 12.82 15.2715 12.9664 15.2715C13.1161 15.2715 13.2675 15.2854 13.4204 15.3129C13.5732 15.3404 13.6968 15.3854 13.7914 15.4472C13.7718 15.4893 13.7489 15.5358 13.7232 15.5865C13.6971 15.6372 13.6725 15.684 13.65 15.7279C13.6271 15.7718 13.6075 15.8086 13.5914 15.8379C13.575 15.8672 13.5654 15.8836 13.5621 15.8868C13.5425 15.8772 13.5207 15.8643 13.4961 15.8479C13.4714 15.8315 13.4364 15.8154 13.3911 15.799C13.3454 15.7826 13.2854 15.7715 13.2104 15.7647C13.1354 15.7579 13.0393 15.7597 12.9221 15.7697C12.8568 15.7765 12.7954 15.7947 12.7364 15.8258C12.6775 15.8568 12.6257 15.8947 12.58 15.9404C12.5343 15.9861 12.4986 16.0372 12.4725 16.0943C12.4464 16.1511 12.4336 16.2061 12.4336 16.2579C12.4336 16.3879 12.4707 16.4929 12.5457 16.5729C12.6204 16.6529 12.7132 16.7226 12.8239 16.7829C12.9346 16.8433 13.055 16.9018 13.1854 16.9586C13.3154 17.0154 13.4368 17.0851 13.5493 17.1661C13.6618 17.2472 13.755 17.3493 13.83 17.4711C13.9057 17.5933 13.9432 17.7501 13.9432 17.9422Z" fill="white"/>
<path d="M8.39286 5.71422V4.28564H4.10715V5.71422V6.4285V7.14279V7.85707V8.57136V9.28564V9.99993V10.7142V12.1428H7.67858H8.39286H15.8929V10.7142V9.99993V9.28564V8.57136V7.85707V7.14279V5.71422H8.39286ZM4.82143 4.99993H7.67858V5.71422H4.82143V4.99993ZM4.82143 6.4285H7.67858V7.14279H4.82143V6.4285ZM4.82143 7.85707H7.67858V8.57136H4.82143V7.85707ZM4.82143 9.28564H7.67858V9.99993H4.82143V9.28564ZM7.67858 11.4285H4.82143V10.7142H7.67858V11.4285ZM15.1786 11.4285H8.39286V10.7142H15.1786V11.4285ZM15.1786 9.99993H8.39286V9.28564H15.1786V9.99993ZM15.1786 8.57136H8.39286V7.85707H15.1786V8.57136ZM8.39286 7.14279V6.4285H15.1786V7.14279H8.39286Z" fill="#C8BDB8"/>
</svg>