<svg width="14" height="14" viewBox="0 0 14 14" fill="none" xmlns="http://www.w3.org/2000/svg">
<mask id="mask0_1098_379" style="mask-type:alpha" maskUnits="userSpaceOnUse" x="0" y="0" width="14" height="14">
<rect width="14" height="14" fill="#D9D9D9"/>
</mask>
<g mask="url(#mask0_1098_379)">
<path d="M3.18934 10.6917C3.14483 10.6717 3.11268 10.6491 3.16461 10.604C3.19676 10.579 3.23138 10.5564 3.266 10.5339C3.58993 10.3208 3.89409 10.0878 4.09439 9.74446C4.26254 9.45877 4.23534 9.29087 4.02515 9.08036C2.85303 7.89251 2.33869 6.4716 2.59586 4.79257C2.74176 3.84529 3.16956 3.02583 3.79271 2.31412C4.16857 1.88308 4.61615 1.53475 5.10577 1.24405C5.13545 1.22651 5.17748 1.22149 5.18243 1.17639C5.17254 1.15133 5.15523 1.15884 5.14039 1.15884C4.30705 1.15884 3.47371 1.1413 2.64285 1.16386C1.8466 1.18892 1.15915 1.81291 1.16163 2.70756C1.16657 5.32134 1.16163 7.93511 1.16163 10.5514C1.16163 11.3633 1.77241 12.0425 2.57113 12.0725C3.24621 12.1001 3.92129 12.0776 4.59884 12.0751C4.6483 12.0776 4.69776 12.0801 4.74721 12.0801H8.31796C9.20818 12.0801 10.0984 12.0851 10.9886 12.0801C11.8145 12.0801 12.4847 11.4034 12.4847 10.5689V10.5539V9.08788C12.4847 9.0528 12.497 9.01521 12.4748 8.97762C12.4303 8.98012 12.4129 9.01771 12.3882 9.04277C11.9085 9.53145 11.3422 9.92489 10.7215 10.2031C9.20076 10.8822 7.65277 10.9298 6.08253 10.3835C5.94653 10.3334 5.79816 10.3284 5.65721 10.3634C5.44949 10.4161 5.24425 10.4787 5.03901 10.5414C4.43564 10.7318 3.81991 10.817 3.18934 10.6917ZM4.98213 6.46909C5.02417 6.41396 5.04642 6.38138 5.07115 6.3488C5.39509 5.9328 5.71903 5.51681 6.04297 5.0983C6.13694 4.97801 6.2309 4.85522 6.29025 4.70987C6.35949 4.54447 6.28531 4.3891 6.11715 4.32895C6.04297 4.3064 5.96384 4.29638 5.88471 4.30139C5.44455 4.29888 5.00191 4.29888 4.56175 4.30139C4.49993 4.30139 4.43811 4.30891 4.37876 4.32394C4.24029 4.35903 4.15621 4.50187 4.19083 4.64471C4.21556 4.73994 4.28974 4.81512 4.38371 4.83768C4.44306 4.85271 4.50488 4.86023 4.5667 4.85772C4.83376 4.86023 5.1033 4.85772 5.37036 4.86023C5.40004 4.86023 5.43713 4.84018 5.45938 4.88529C5.43713 4.91536 5.41487 4.94543 5.39262 4.973C5.00933 5.46418 4.62852 5.95787 4.24523 6.44904C4.15126 6.57184 4.10181 6.70716 4.17105 6.85752C4.24029 7.00789 4.38124 7.03545 4.52466 7.04548C4.63841 7.05299 4.75463 7.04798 4.87085 7.04798C5.27145 7.04798 5.66957 7.05049 6.07017 7.04548C6.28283 7.04297 6.39658 6.91266 6.37433 6.71218C6.35702 6.5543 6.25069 6.4716 6.05286 6.46909C5.70419 6.46659 5.35553 6.46909 4.98213 6.46909ZM7.8506 5.15093C7.5415 4.87777 7.20025 4.86023 6.86642 5.06071C6.46088 5.30129 6.31251 5.69473 6.36196 6.15083C6.40895 6.57685 6.59193 6.92519 7.0321 7.06803C7.30658 7.15825 7.56128 7.12567 7.78631 6.94022C7.84565 6.89261 7.86296 6.90263 7.905 6.95526C7.9866 7.06051 8.12755 7.10061 8.25119 7.05299C8.37484 7.0154 8.45644 6.90013 8.45644 6.76981C8.45891 6.26861 8.46138 5.76741 8.45644 5.2662C8.45397 5.06572 8.26851 4.93792 8.07563 4.97801C7.96929 5.00057 7.90995 5.07324 7.8506 5.15093ZM9.56426 6.08066C9.55437 6.70716 10.0662 7.1808 10.7092 7.11564C11.3002 7.0555 11.6835 6.60692 11.6637 5.9729C11.6439 5.3464 11.184 4.91787 10.5534 4.93792C9.96238 4.95546 9.54448 5.43661 9.56426 6.08066ZM9.34665 5.58196C9.34665 5.18852 9.34913 4.79758 9.34665 4.40413C9.34665 4.20365 9.22054 4.07835 9.03261 4.08086C8.84962 4.08336 8.72845 4.20867 8.72598 4.40163C8.7235 4.51941 8.72598 4.63469 8.72598 4.75247V6.74475C8.72598 6.90013 8.81994 7.03545 8.94358 7.06803C9.11421 7.11564 9.28978 7.0129 9.33429 6.83998C9.34171 6.80991 9.34665 6.77984 9.34418 6.74726C9.34913 6.35883 9.34665 5.9704 9.34665 5.58196Z" fill="#FDFEFE"/>
<path d="M4.59542 12.0784C3.92034 12.0784 3.24279 12.101 2.56771 12.0759C1.76899 12.0433 1.1582 11.3642 1.1582 10.5547C1.1582 7.94097 1.16315 5.3272 1.1582 2.71091C1.1582 1.81627 1.84812 1.19227 2.64189 1.16971C3.47276 1.14716 4.3061 1.1647 5.13944 1.1647C5.15428 1.1647 5.17406 1.15718 5.18148 1.18224C5.17653 1.22735 5.13202 1.23237 5.10482 1.24991C4.6152 1.54061 4.16762 1.88894 3.79175 2.31998C3.17108 3.03168 2.74081 3.84865 2.59491 4.79843C2.33774 6.47495 2.85456 7.89837 4.0242 9.08622C4.23192 9.29923 4.25912 9.46463 4.09344 9.75031C3.89314 10.0936 3.58898 10.3267 3.26504 10.5397C3.23042 10.5598 3.1958 10.5848 3.16119 10.6074C3.10926 10.6525 3.1414 10.675 3.18591 10.6951C3.1958 10.7176 3.20817 10.7377 3.22301 10.7577C3.50738 11.0133 3.77692 11.2865 4.05635 11.5471C4.1874 11.6699 4.31846 11.7977 4.44458 11.9255C4.49651 11.9732 4.58306 11.9882 4.59542 12.0784Z" fill="#0180C7"/>
<path d="M4.59603 12.0774C4.58367 11.9896 4.49712 11.9746 4.44519 11.922C4.31907 11.7917 4.18801 11.6664 4.05695 11.5436C3.77753 11.2829 3.50799 11.0098 3.22362 10.7542C3.20878 10.7341 3.19641 10.7141 3.18652 10.6915C3.81709 10.8168 4.43282 10.7316 5.03866 10.5437C5.24391 10.481 5.44915 10.4184 5.65687 10.3657C5.79782 10.3282 5.94619 10.3357 6.08219 10.3858C7.64996 10.9321 9.19794 10.882 10.7212 10.2054C11.3419 9.92719 11.9081 9.53625 12.3879 9.04758C12.4126 9.02252 12.4299 8.98493 12.4744 8.98242C12.4967 9.01751 12.4843 9.0551 12.4843 9.09269V10.5587C12.4893 11.3957 11.8265 12.0774 11.0006 12.0849H10.9883C10.098 12.0899 9.20783 12.0849 8.31762 12.0849H4.7444C4.69494 12.0799 4.64549 12.0774 4.59603 12.0774Z" fill="#0180C7"/>
<path d="M4.98119 6.46884C5.35459 6.46884 5.70573 6.46633 6.05439 6.46884C6.24975 6.47134 6.35608 6.55404 6.37586 6.71192C6.39812 6.90989 6.28437 7.04271 6.0717 7.04522C5.67111 7.05023 5.27298 7.04773 4.87239 7.04773C4.75616 7.04773 4.64241 7.05274 4.52619 7.04522C4.38277 7.0377 4.24182 7.00763 4.17258 6.85727C4.10334 6.70691 4.1528 6.57158 4.24676 6.44879C4.62758 5.95761 5.01086 5.46392 5.39415 4.97274C5.41641 4.94267 5.43866 4.9126 5.46092 4.88503C5.43619 4.84243 5.40157 4.86248 5.3719 4.85997C5.10483 4.85747 4.83529 4.85997 4.56823 4.85747C4.50641 4.85747 4.44459 4.84995 4.38524 4.83742C4.24429 4.80484 4.15774 4.662 4.18989 4.52166C4.21214 4.42643 4.28633 4.34875 4.3803 4.32619C4.43964 4.31116 4.50146 4.30364 4.56328 4.30364C5.00345 4.30113 5.44608 4.30113 5.88624 4.30364C5.96537 4.30113 6.04203 4.31116 6.11869 4.3312C6.28684 4.38884 6.35855 4.54672 6.29178 4.71212C6.23244 4.85496 6.13847 4.97776 6.0445 5.10055C5.72056 5.51906 5.39662 5.93505 5.07269 6.34855C5.04548 6.38113 5.02076 6.4137 4.98119 6.46884Z" fill="#0180C7"/>
<path d="M7.8501 5.15061C7.90945 5.07292 7.97127 5.00025 8.07265 4.9802C8.268 4.9401 8.45099 5.06791 8.45346 5.26839C8.46088 5.76959 8.45841 6.2708 8.45346 6.772C8.45346 6.90231 8.36939 7.01759 8.24822 7.05518C8.12458 7.1028 7.98363 7.0652 7.90203 6.95745C7.85999 6.90482 7.84268 6.8948 7.78333 6.94241C7.5583 7.12786 7.3036 7.16043 7.02912 7.07022C6.58896 6.92487 6.40845 6.57653 6.35899 6.15301C6.30706 5.69441 6.4579 5.30348 6.86344 5.0629C7.19975 4.85991 7.541 4.87745 7.8501 5.15061ZM6.97472 6.0653C6.97967 6.17557 7.01429 6.28082 7.07858 6.36853C7.21211 6.54897 7.46681 6.58656 7.64733 6.45123C7.677 6.42868 7.7042 6.40111 7.72893 6.36853C7.86741 6.17807 7.86741 5.86482 7.72893 5.67437C7.65969 5.57663 7.55089 5.51899 7.43466 5.51649C7.16265 5.49894 6.97225 5.71196 6.97472 6.0653ZM9.56376 6.08034C9.54398 5.43629 9.96188 4.95514 10.5554 4.9376C11.1859 4.91755 11.6459 5.34608 11.6657 5.97258C11.6854 6.6066 11.3021 7.05518 10.7111 7.11532C10.0657 7.18048 9.55387 6.70684 9.56376 6.08034ZM10.1844 6.0202C10.1795 6.1455 10.2166 6.26829 10.2908 6.37104C10.4268 6.55147 10.6815 6.58656 10.8595 6.44622C10.8867 6.42617 10.909 6.40111 10.9312 6.37605C11.0747 6.18559 11.0747 5.86482 10.9337 5.67437C10.8645 5.57914 10.7557 5.51899 10.6394 5.51649C10.3724 5.50145 10.1844 5.70694 10.1844 6.0202ZM9.34615 5.58164C9.34615 5.97008 9.34862 6.35851 9.34615 6.74694C9.34862 6.92487 9.21015 7.07272 9.03458 7.07773C9.0049 7.07773 8.97276 7.07523 8.94308 7.06771C8.81944 7.03513 8.72547 6.90231 8.72547 6.74443V4.75215C8.72547 4.63437 8.723 4.51909 8.72547 4.40131C8.72795 4.20835 8.84912 4.08304 9.0321 4.08304C9.22004 4.08054 9.34615 4.20584 9.34615 4.40632C9.34862 4.79726 9.34615 5.1907 9.34615 5.58164Z" fill="#0180C7"/>
<path d="M6.97512 6.06477C6.97265 5.71142 7.16306 5.49841 7.43259 5.51344C7.54881 5.51845 7.65762 5.57609 7.72686 5.67383C7.86534 5.86178 7.86534 6.17754 7.72686 6.36799C7.59333 6.54843 7.33863 6.58602 7.15811 6.45069C7.12844 6.42814 7.10124 6.40057 7.07651 6.36799C7.01469 6.28028 6.98007 6.17503 6.97512 6.06477ZM10.1848 6.01966C10.1848 5.70891 10.3728 5.50091 10.6398 5.51595C10.7561 5.51845 10.8649 5.5786 10.9341 5.67383C11.0751 5.86428 11.0751 6.18756 10.9316 6.37551C10.7932 6.55344 10.536 6.58351 10.3604 6.44317C10.3332 6.42313 10.311 6.39807 10.2912 6.3705C10.217 6.26775 10.1824 6.14496 10.1848 6.01966Z" fill="white"/>
<path fill-rule="evenodd" clip-rule="evenodd" d="M2.77834 1.34203C1.98719 1.34203 1.34203 1.99255 1.34203 2.79992V10.3932C1.34203 11.2005 1.98719 11.8511 2.77834 11.8511H10.8917C11.6828 11.8511 12.328 11.2005 12.328 10.3932V2.79992C12.328 1.99255 11.6828 1.34203 10.8917 1.34203H2.77834ZM1 2.79992C1 1.80797 1.79401 1 2.77834 1H10.8917C11.876 1 12.67 1.80797 12.67 2.79992V10.3932C12.67 11.3851 11.876 12.1931 10.8917 12.1931H2.77834C1.79401 12.1931 1 11.3851 1 10.3932V2.79992Z" fill="#0180C7"/>
</g>
</svg>
