<svg xmlns="http://www.w3.org/2000/svg" width="512" height="490.75" viewBox="0 0 512 490.75">
  <g id="docx" transform="translate(0 -10.626)">
    <g id="Group_3936" data-name="Group 3936">
      <path id="Path_13810" data-name="Path 13810" d="M294.656,13.014a10.667,10.667,0,0,0-9.045-2.133l-277.333,64A10.668,10.668,0,0,0,0,85.377V448.044a10.667,10.667,0,0,0,9.045,10.539L286.378,501.25a10.667,10.667,0,0,0,12.288-10.538V21.377A10.661,10.661,0,0,0,294.656,13.014Z" fill="#fff"/>
      <path id="Path_13811" data-name="Path 13811" d="M501.334,458.71H288a10.667,10.667,0,0,1,0-21.334H490.667V74.71H288a10.667,10.667,0,1,1,0-21.333H501.333A10.667,10.667,0,0,1,512,64.044v384A10.666,10.666,0,0,1,501.334,458.71Z" fill="#fff"/>
    </g>
    <path id="Path_13812" data-name="Path 13812" d="M181.334,352.044a10.666,10.666,0,0,1-10.24-7.723L138.667,230.87,106.24,344.321a11.094,11.094,0,0,1-20.5,0L43.072,194.988a10.667,10.667,0,1,1,20.33-6.466q.094.3.172.6L96,302.55,128.427,189.1a11.094,11.094,0,0,1,20.5,0l32.4,113.451,32.427-113.429a10.539,10.539,0,0,1,12.945-7.386l.239.068a10.666,10.666,0,0,1,7.317,13.184L191.6,344.321A10.667,10.667,0,0,1,181.334,352.044Z" fill="#1565c0"/>
    <g id="Group_3937" data-name="Group 3937">
      <path id="Path_13813" data-name="Path 13813" d="M458.667,138.71H288a10.667,10.667,0,0,1,0-21.334H458.667a10.667,10.667,0,0,1,0,21.334Z" fill="#fff"/>
      <path id="Path_13814" data-name="Path 13814" d="M458.667,202.71H288a10.667,10.667,0,0,1,0-21.334H458.667a10.667,10.667,0,0,1,0,21.334Z" fill="#fff"/>
      <path id="Path_13815" data-name="Path 13815" d="M458.667,266.71H288a10.667,10.667,0,0,1,0-21.334H458.667a10.667,10.667,0,0,1,0,21.334Z" fill="#fff"/>
      <path id="Path_13816" data-name="Path 13816" d="M458.667,330.71H288a10.667,10.667,0,0,1,0-21.334H458.667a10.667,10.667,0,0,1,0,21.334Z" fill="#fff"/>
      <path id="Path_13817" data-name="Path 13817" d="M458.667,394.71H288a10.667,10.667,0,0,1,0-21.334H458.667a10.667,10.667,0,0,1,0,21.334Z" fill="#fff"/>
    </g>
  </g>
</svg>
