<svg xmlns="http://www.w3.org/2000/svg" width="393.143" height="512" viewBox="0 0 393.143 512">
  <g id="pdf" transform="translate(-6.5)">
    <path id="Path_13825" data-name="Path 13825" d="M285.22,0H19.876C12.489,0,6.5,5.989,6.5,17.609V502.857c0,3.154,5.989,9.143,13.376,9.143H386.267c7.387,0,13.376-5.989,13.376-9.143v-384.2c0-6.363-.85-8.411-2.35-9.92L290.907,2.35A8.079,8.079,0,0,0,285.22,0Z" transform="translate(0)" fill="#e9e9e0"/>
    <path id="Path_13826" data-name="Path 13826" d="M37.5.151V108.485H145.834Z" transform="translate(252.429 1.23)" fill="#d9d7ca"/>
    <path id="Path_13827" data-name="Path 13827" d="M36.58,248.426h0a14.678,14.678,0,0,1-8.841-2.981c-9.518-7.141-10.8-15.086-10.194-20.5,1.664-14.885,20.069-30.464,54.72-46.336A613.727,613.727,0,0,0,106.9,80.325C97.773,60.467,88.9,34.7,95.368,19.589c2.267-5.294,5.093-9.353,10.368-11.109a44.886,44.886,0,0,1,9.289-1.573c4.608,0,8.658,5.934,11.529,9.591,2.7,3.438,8.814,10.725-3.41,62.19,12.325,25.454,29.787,51.383,46.519,69.138a177.874,177.874,0,0,1,30.7-3.273c14.318,0,22.994,3.337,26.533,10.213,2.926,5.687,1.728,12.334-3.566,19.749-5.093,7.122-12.114,10.889-20.3,10.889-11.118,0-24.064-7.022-38.5-20.891a438.083,438.083,0,0,0-80.713,25.8C76.177,206.533,68.854,219.6,62.033,229.18,52.662,242.3,44.58,248.426,36.58,248.426Zm24.338-46.866c-19.538,10.981-27.5,20-28.078,25.088-.091.841-.338,3.054,3.941,6.327C38.143,232.545,46.1,228.915,60.918,201.559ZM185.6,160.947c7.451,5.733,9.271,8.631,14.144,8.631,2.139,0,8.238-.091,11.063-4.032a14.473,14.473,0,0,0,2.1-3.794c-1.125-.594-2.615-1.8-10.743-1.8A133.679,133.679,0,0,0,185.6,160.947Zm-68.3-60.178a651.807,651.807,0,0,1-24.448,69.157,456.822,456.822,0,0,1,59.392-18.469A312.965,312.965,0,0,1,117.3,100.769ZM111.752,23.4c-.9.3-12.16,16.064.878,29.4C121.306,33.468,112.145,23.274,111.752,23.4Z" transform="translate(88.906 56.251)" fill="#cc4b4c"/>
    <path id="Path_13828" data-name="Path 13828" d="M386.267,194.429H19.876A13.376,13.376,0,0,1,6.5,181.053V39H399.643V181.053A13.376,13.376,0,0,1,386.267,194.429Z" transform="translate(0 317.571)" fill="#fff"/>
    <g id="Group_3940" data-name="Group 3940" transform="translate(91.017 392.448)">
      <path id="Path_13829" data-name="Path 13829" d="M30.747,135.047h-15V42.924h26.5A37.187,37.187,0,0,1,53.861,44.8a31.6,31.6,0,0,1,10.313,5.623,29.361,29.361,0,0,1,7.378,9.061,25.1,25.1,0,0,1,2.816,11.941,32.662,32.662,0,0,1-2.377,12.69,26.521,26.521,0,0,1-6.629,9.563,29.867,29.867,0,0,1-10.249,6,39.44,39.44,0,0,1-13.248,2.121H30.738v33.253Zm0-80.75V90.8H44.5a16.338,16.338,0,0,0,5.44-.942,13.7,13.7,0,0,0,4.937-3.063A14.972,14.972,0,0,0,58.5,80.858a28.109,28.109,0,0,0,1.371-9.435,25.524,25.524,0,0,0-.622-5.184,14.969,14.969,0,0,0-2.56-5.623,15.151,15.151,0,0,0-5.44-4.5,20.21,20.21,0,0,0-9.253-1.81H30.747Z" transform="translate(-15.744 -42.924)" fill="#cc4b4c"/>
      <path id="Path_13830" data-name="Path 13830" d="M98.461,86.426a67.68,67.68,0,0,1-2.441,19.438,48.322,48.322,0,0,1-6.19,13.5,31.794,31.794,0,0,1-8.439,8.567,42.327,42.327,0,0,1-9.061,4.69,37.437,37.437,0,0,1-8,2,53.276,53.276,0,0,1-5.376.421H24.084V42.924H51.833a52.722,52.722,0,0,1,20.434,3.685A42.428,42.428,0,0,1,86.9,56.419a40.269,40.269,0,0,1,8.686,13.934A46.144,46.144,0,0,1,98.461,86.426Zm-44.5,37.623q15.25,0,22-9.746t6.747-28.251a47.85,47.85,0,0,0-1.371-11.374,24.333,24.333,0,0,0-5.312-10.185,28.036,28.036,0,0,0-10.688-7.378Q58.589,54.3,47.837,54.3h-8.75v69.751H53.963Z" transform="translate(52.167 -42.924)" fill="#cc4b4c"/>
      <path id="Path_13831" data-name="Path 13831" d="M49.848,54.3v29h38.5V93.548h-38.5v41.5H34.6V42.924H92.216V54.3Z" transform="translate(137.781 -42.924)" fill="#cc4b4c"/>
    </g>
  </g>
</svg>
