<svg xmlns="http://www.w3.org/2000/svg" width="512" height="490.689" viewBox="0 0 512 490.689">
  <g id="ppt" transform="translate(0 -10.638)">
    <g id="Group_3942" data-name="Group 3942">
      <path id="Path_13833" data-name="Path 13833" d="M373.3,117.4a10.712,10.712,0,0,0-10.7,10.7v64a10.712,10.712,0,0,0,10.7,10.7h64A10.712,10.712,0,0,0,448,192.1,74.643,74.643,0,0,0,373.3,117.4Z" fill="#fff"/>
      <path id="Path_13834" data-name="Path 13834" d="M373.3,224a31.966,31.966,0,0,1-32-32V139.8A74.487,74.487,0,1,0,425.5,224H373.3Z" fill="#fff"/>
      <path id="Path_13835" data-name="Path 13835" d="M294.7,13a10.48,10.48,0,0,0-9-2.1L8.3,74.9A10.709,10.709,0,0,0,0,85.4V448a10.56,10.56,0,0,0,9,10.5l277.3,42.7a10.714,10.714,0,0,0,12.2-8.9,8.6,8.6,0,0,0,.1-1.6V21.4A10.384,10.384,0,0,0,294.7,13Z" fill="#fff"/>
      <path id="Path_13836" data-name="Path 13836" d="M501.3,458.7H288a10.7,10.7,0,1,1,0-21.4H490.7V74.7H288a10.7,10.7,0,1,1,0-21.4H501.3A10.712,10.712,0,0,1,512,64V448A10.712,10.712,0,0,1,501.3,458.7Z" fill="#fff"/>
      <path id="Path_13837" data-name="Path 13837" d="M437.3,394.7H288a10.7,10.7,0,1,1,0-21.4H437.3a10.7,10.7,0,1,1,0,21.4Z" fill="#fff"/>
      <path id="Path_13838" data-name="Path 13838" d="M437.3,330.7H288a10.7,10.7,0,1,1,0-21.4H437.3a10.7,10.7,0,1,1,0,21.4Z" fill="#fff"/>
    </g>
    <path id="Path_13839" data-name="Path 13839" d="M96,352a10.712,10.712,0,0,1-10.7-10.7V170.7A10.712,10.712,0,0,1,96,160h42.7A53.283,53.283,0,0,1,192,213.3v21.3a53.283,53.283,0,0,1-53.3,53.3h-32v53.3A10.671,10.671,0,0,1,96,352Zm10.7-85.3h32a31.966,31.966,0,0,0,32-32V213.4a31.966,31.966,0,0,0-32-32h-32Z" fill="#ce2c06"/>
  </g>
</svg>
