<?xml version="1.0" encoding="utf-8"?>
<!-- Generator: Adobe Illustrator 22.1.0, SVG Export Plug-In . SVG Version: 6.00 Build 0)  -->
<svg version="1.1" id="Layer_1" xmlns="http://www.w3.org/2000/svg" xmlns:xlink="http://www.w3.org/1999/xlink" x="0px" y="0px"
	 viewBox="0 0 48 48" style="enable-background:new 0 0 48 48;" xml:space="preserve">
<style type="text/css">
	.st0{fill:#CFD8DC;}
	.st1{fill:#3F51B5;}
	.st2{fill:#9C27B0;}
	.st3{fill:#268C0A;}
	.st4{fill:#256D16;}
	.st5{fill:#303F9F;}
	.st6{fill:#FDD835;}
	.st7{fill:#7B1FA2;}
	.st8{fill:#AF7000;}
	.st9{fill:#FFC107;}
	.st10{fill:#5B3B07;}
	.st11{fill:#FFEB3B;}
</style>
<path class="st0" d="M17,24L7,17.5c0,0,1-1.9,1-3.7S7,10,7,10l10,6.5V24z M17,40L7,32.5c0,0,1-0.9,1-2.8S7,26,7,26l10,6.5V40z
	 M17,32L7,24.5c0,0,1-0.9,1-2.8S7,18,7,18l10,6.5V32z"/>
<path class="st1" d="M17.6,34c-0.2,0-0.4-0.1-0.6-0.2l-10.6-8c-0.4-0.3-0.5-1-0.2-1.4c0.3-0.4,1-0.5,1.4-0.2l10.6,8
	c0.4,0.3,0.5,1,0.2,1.4C18.2,33.9,17.9,34,17.6,34z"/>
<path class="st1" d="M42,25H16c0,0,1,1.7,1,4.2S16,33,16,33h26c0,0,1-1,1-4S42,25,42,25z"/>
<path class="st2" d="M17.6,26c-0.2,0-0.4-0.1-0.6-0.2l-10.6-8c-0.4-0.3-0.5-1-0.2-1.4c0.3-0.4,1-0.5,1.4-0.2l10.6,8
	c0.4,0.3,0.5,1,0.2,1.4C18.2,25.9,17.9,26,17.6,26z"/>
<path class="st2" d="M42,17H16c0,0,1,1.7,1,4.2S16,25,16,25h26c0,0,1-1,1-4S42,17,42,17z"/>
<path class="st3" d="M18.6,41c0-0.3-0.1-0.6-0.4-0.8l-10.6-8c-0.4-0.3-1.1-0.3-1.4,0.2c-0.3,0.4-0.3,1.1,0.2,1.4L16,41H18.6z"/>
<path class="st3" d="M42,33H16c0,0,1,1.7,1,4.2S16,41,16,41h26c0,0,1-1,1-4S42,33,42,33z"/>
<path class="st4" d="M42,33H16c0,0,0.4,0.8,0.7,2h26C42.5,33.6,42,33,42,33z"/>
<path class="st5" d="M42,25H16c0,0,0.4,0.8,0.7,2h26C42.5,25.6,42,25,42,25z"/>
<path class="st6" d="M21,32c0.1-0.5,0.3-1.4,0.3-2.5s-0.2-2-0.3-2.5h-2c0,0,0.3,1.3,0.3,2.5S19,32,19,32H21z M21,24
	c0.1-0.5,0.3-1.4,0.3-2.5s-0.2-2-0.3-2.5h-2c0,0,0.3,1.3,0.3,2.5S19,24,19,24H21z M21,40c0.1-0.5,0.3-1.4,0.3-2.5s-0.2-2-0.3-2.5h-2
	c0,0,0.3,1.3,0.3,2.5S19,40,19,40H21z"/>
<path class="st7" d="M42.8,19c-0.3-1.4-0.8-2-0.8-2L30.8,8.6c0,0-0.8-0.6-1.8-0.6C27.8,8,7,8,7,8l0,0C6.7,8,6.4,8.1,6.2,8.4
	C5.9,8.9,6,9.5,6.4,9.8l9.7,7.5c0.2,0.3,0.4,0.9,0.6,1.7H42.8z"/>
<path class="st8" d="M32,16L21,8h-5l11,8c1.8,1.3,2,1.6,2,3s0,19,0,19s0,3-2,3c1.1,0,3.7,0,5,0c2,0,2-3,2-3s0-18,0-19
	C34,17,32.4,16.4,32,16z"/>
<g>
	<path class="st9" d="M34,27v4h-5v-4H34 M34.3,26h-5.5c-0.4,0-0.8,0.3-0.8,0.8v4.5c0,0.4,0.3,0.8,0.8,0.8h5.5c0.4,0,0.8-0.3,0.8-0.8
		v-4.5C35,26.3,34.7,26,34.3,26L34.3,26z"/>
</g>
<path class="st10" d="M31.5,28.5c-0.3,0-0.5,0.2-0.5,0.5s0.2,0.5,0.5,0.5S32,29.3,32,29S31.8,28.5,31.5,28.5z"/>
<path class="st11" d="M31.5,29c-0.3,0-0.5-0.2-0.5-0.5v-3c0-0.3,0.2-0.5,0.5-0.5s0.5,0.2,0.5,0.5v3C32,28.8,31.8,29,31.5,29z"/>
</svg>
