<svg xmlns="http://www.w3.org/2000/svg" width="563.5" height="585.9" viewBox="0 0 563.5 585.9">
  <g id="txt" transform="translate(-11.2)">
    <path id="Path_13862" data-name="Path 13862" d="M357.4,535.3c.8,0,1.5.1,2.3.1H537.1a37.62,37.62,0,0,0,37.6-37.6V86.6A37.685,37.685,0,0,0,537.1,49H359.7c-.8,0-1.6.1-2.3.1V0L11.2,46.2V538.5l346.2,47.4V535.3Zm2.3-464.8H537.1a16.089,16.089,0,0,1,16.1,16.1V497.8a16.09,16.09,0,0,1-16.1,16.1H359.7a16.407,16.407,0,0,1-2.3-.2V382.4H522.5a7.2,7.2,0,0,0,0-14.4H357.4V324.1H522.5a7.2,7.2,0,0,0,0-14.4H357.4V267.1H522.5a7.2,7.2,0,1,0,0-14.4H357.4v-43h88.8a7.2,7.2,0,1,0,0-14.4H357.4V70.7A17.852,17.852,0,0,1,359.7,70.5Zm-247.6,187-28.8.5v90.3l-23.4-.6V258.4l-27.1.5V238.2l79.4-2.1-.1,21.4Zm74.6,93.3-10.3-21.3c-4.2-8.2-6.9-14.2-10-20.9h-.3c-2.3,6.7-5.2,12.7-8.6,20.7l-9.2,20.6-28.2-.7,31.6-57.4-30.5-56,28.4-.7,9.7,20.8c3.3,7,5.8,12.6,8.5,19.1h.3c2.7-7.4,4.9-12.6,7.7-19.4l9.6-21.4,29.9-.8-32.6,57.7,34.4,60.5Zm131.4-96.7-34.5.6v98.6l-27.9-.7V255.2l-32.2.5V233.2l94.6-2.5v23.4Z" fill="#fff"/>
  </g>
</svg>
