<svg xmlns="http://www.w3.org/2000/svg" width="512" height="490.689" viewBox="0 0 512 490.689">
  <g id="xlsx" transform="translate(0 -10.638)">
    <g id="Group_3948" data-name="Group 3948">
      <path id="Path_13873" data-name="Path 13873" d="M294.7,13a10.48,10.48,0,0,0-9-2.1L8.3,74.9A10.709,10.709,0,0,0,0,85.4V448a10.56,10.56,0,0,0,9,10.5l277.3,42.7a10.714,10.714,0,0,0,12.2-8.9,8.6,8.6,0,0,0,.1-1.6V21.4A10.384,10.384,0,0,0,294.7,13Z" fill="#fff"/>
      <path id="Path_13874" data-name="Path 13874" d="M501.3,458.7H288a10.7,10.7,0,1,1,0-21.4H490.7V74.7H288a10.7,10.7,0,1,1,0-21.4H501.3A10.712,10.712,0,0,1,512,64V448A10.712,10.712,0,0,1,501.3,458.7Z" fill="#fff"/>
    </g>
    <g id="Group_3949" data-name="Group 3949">
      <path id="Path_13875" data-name="Path 13875" d="M202.7,352a10.53,10.53,0,0,1-9-5L87,176.4a10.664,10.664,0,0,1,17.7-11.9c.1.2.3.4.4.6L211.8,335.8a10.681,10.681,0,0,1-3.4,14.7A11.566,11.566,0,0,1,202.7,352Z" fill="#0e9b65"/>
      <path id="Path_13876" data-name="Path 13876" d="M96,352a10.564,10.564,0,0,1-10.6-10.7,11.027,11.027,0,0,1,1.6-5.6L193.7,165a10.686,10.686,0,1,1,18.5,10.7,2.092,2.092,0,0,1-.4.6L105.1,347A10.827,10.827,0,0,1,96,352Z" fill="#0e9b65"/>
    </g>
    <g id="Group_3950" data-name="Group 3950">
      <path id="Path_13877" data-name="Path 13877" d="M373.3,458.7A10.712,10.712,0,0,1,362.6,448V64A10.7,10.7,0,0,1,384,64V448A10.712,10.712,0,0,1,373.3,458.7Z" fill="#fff"/>
      <path id="Path_13878" data-name="Path 13878" d="M501.3,394.7H288a10.7,10.7,0,1,1,0-21.4H501.3a10.7,10.7,0,1,1,0,21.4Z" fill="#fff"/>
      <path id="Path_13879" data-name="Path 13879" d="M501.3,330.7H288a10.7,10.7,0,1,1,0-21.4H501.3a10.7,10.7,0,0,1,0,21.4Z" fill="#fff"/>
      <path id="Path_13880" data-name="Path 13880" d="M501.3,266.7H288a10.7,10.7,0,1,1,0-21.4H501.3a10.7,10.7,0,1,1,0,21.4Z" fill="#fff"/>
      <path id="Path_13881" data-name="Path 13881" d="M501.3,202.7H288a10.7,10.7,0,1,1,0-21.4H501.3a10.7,10.7,0,1,1,0,21.4Z" fill="#fff"/>
      <path id="Path_13882" data-name="Path 13882" d="M501.3,138.7H288a10.7,10.7,0,1,1,0-21.4H501.3a10.7,10.7,0,1,1,0,21.4Z" fill="#fff"/>
    </g>
  </g>
</svg>
