<svg xmlns="http://www.w3.org/2000/svg" width="419.801" height="500" viewBox="0 0 419.801 500">
  <g id="zip" transform="translate(-7831 6670)">
    <path id="XMLID_445_" d="M422.3,477.9a13.828,13.828,0,0,1-13.8,13.8h-305a13.828,13.828,0,0,1-13.8-13.8V34.1a13.828,13.828,0,0,1,13.8-13.8H333.6V109h88.7Z" transform="translate(7784.9 -6676)" fill="#fff"/>
    <path id="XMLID_442_" d="M333.6,6H103.5A28.125,28.125,0,0,0,75.4,34.1V477.9A28.125,28.125,0,0,0,103.5,506h305a28.125,28.125,0,0,0,28.1-28.1V109.1Zm88.7,471.9a13.828,13.828,0,0,1-13.8,13.8h-305a13.828,13.828,0,0,1-13.8-13.8V34.1a13.828,13.828,0,0,1,13.8-13.8H333.6V109h88.7Z" transform="translate(7784.9 -6676)" fill="#1565c0"/>
    <path id="XMLID_441_" d="M333.6,6V109.1h103Z" transform="translate(7784.9 -6676)" fill="#003a7d"/>
    <g id="XMLID_435_" transform="translate(7784.9 -6676)">
      <path id="XMLID_439_" d="M465.9,450.8H46.1V308a17.669,17.669,0,0,1,17.7-17.7H448.1A17.669,17.669,0,0,1,465.8,308V450.8Z" fill="#1565c0"/>
      <path id="XMLID_438_" d="M436.6,450.8v19.5l29.3-19.5Z" fill="#003a7d"/>
      <path id="XMLID_437_" d="M75.4,450.8v19.5L46.1,450.8Z" fill="#003a7d"/>
      <path id="XMLID_436_" d="M64.1,308.4H447.8V432.9H64.1Z" fill="#fff"/>
    </g>
    <g id="XMLID_427_" transform="translate(7784.9 -6676)">
      <path id="XMLID_434_" d="M298.3,78.6h-177a6.7,6.7,0,0,1,0-13.4h177a6.7,6.7,0,1,1,0,13.4Z" fill="#1565c0"/>
      <path id="XMLID_433_" d="M298.3,110.6h-177a6.7,6.7,0,0,1,0-13.4h177a6.7,6.7,0,1,1,0,13.4Z" fill="#1565c0"/>
      <path id="XMLID_432_" d="M391.8,142.5H121.3a6.7,6.7,0,0,1,0-13.4H391.8a6.7,6.7,0,1,1,0,13.4Z" fill="#1565c0"/>
      <path id="XMLID_431_" d="M391.8,174.5H121.3a6.7,6.7,0,1,1,0-13.4H391.8a6.7,6.7,0,1,1,0,13.4Z" fill="#1565c0"/>
      <path id="XMLID_430_" d="M391.8,206.5H121.3a6.7,6.7,0,1,1,0-13.4H391.8a6.7,6.7,0,1,1,0,13.4Z" fill="#1565c0"/>
      <path id="XMLID_429_" d="M391.8,238.4H121.3a6.7,6.7,0,1,1,0-13.4H391.8a6.7,6.7,0,1,1,0,13.4Z" fill="#1565c0"/>
      <path id="XMLID_428_" d="M391.8,270.4H121.3a6.7,6.7,0,0,1,0-13.4H391.8a6.7,6.7,0,0,1,0,13.4Z" fill="#1565c0"/>
    </g>
    <g id="XMLID_134_" transform="translate(7784.9 -6676)">
      <path id="XMLID_107_" d="M208.6,384.8H231v11.8H189.1V388L211,359.1H190V347.3h40.4v8.3l-21.8,29.2Z" fill="#1565c0"/>
      <path id="XMLID_109_" d="M261.2,335.9H245.8V325.6h15.4Zm0,60.7H245.8V347.3h15.4Z" fill="#1565c0"/>
      <path id="XMLID_112_" d="M322.8,373.1c0,7.4-1.7,13.4-5,17.8-3.3,4.5-8,6.7-14.1,6.7a13.467,13.467,0,0,1-11.1-5.4v23.3H277.2V347.3h14.5l.5,5.4a14.238,14.238,0,0,1,4.9-4.6,12.792,12.792,0,0,1,6.5-1.6,16.538,16.538,0,0,1,14.2,7.1c3.4,4.7,5,10.9,5,18.6v.9Zm-15.3-1a23.233,23.233,0,0,0-1.8-10,6.141,6.141,0,0,0-5.8-3.8,8.677,8.677,0,0,0-4.4,1,6.864,6.864,0,0,0-2.8,2.8v20.6a6.194,6.194,0,0,0,2.9,2.4,11.525,11.525,0,0,0,4.4.8,6.088,6.088,0,0,0,5.8-3.3c1.2-2.2,1.8-5.4,1.8-9.4v-1.1Z" fill="#1565c0"/>
    </g>
  </g>
</svg>
