<?xml version="1.0" encoding="utf-8"?>
<!-- Generator: Adobe Illustrator 23.0.0, SVG Export Plug-In . SVG Version: 6.00 Build 0)  -->
<svg version="1.1" id="Layer_1" xmlns="http://www.w3.org/2000/svg" xmlns:xlink="http://www.w3.org/1999/xlink" x="0px" y="0px"
	 viewBox="0 0 48 48" style="enable-background:new 0 0 48 48;" xml:space="preserve">
<style type="text/css">
	.st0{fill:none;}
	.st1{fill:#FFFFFF;}
</style>
<path class="st0" d="M0,0h48v48H0V0z"/>
<path class="st1" d="M41.9,33.2l-1.7,7.1C40,41.3,39.2,42,38.1,42C20.4,41.9,6,27.5,6,9.8c0-1.1,0.6-1.9,1.7-2.1L14.8,6
	c1-0.2,2,0.4,2.5,1.3l3.3,7.7c0.4,0.9,0.1,2-0.6,2.5l-3.8,3.1c2.4,4.8,6.3,8.8,11.2,11.2l3.1-3.8c0.6-0.7,1.6-1,2.5-0.6l7.7,3.3
	C41.6,31.1,42.1,32.2,41.9,33.2z"/>
</svg>
