<?xml version="1.0" encoding="utf-8"?>
<!-- Generator: Adobe Illustrator 23.0.0, SVG Export Plug-In . SVG Version: 6.00 Build 0)  -->
<svg version="1.1" id="Layer_1" xmlns="http://www.w3.org/2000/svg" xmlns:xlink="http://www.w3.org/1999/xlink" x="0px" y="0px"
	 viewBox="0 0 24 24" style="enable-background:new 0 0 24 24;" xml:space="preserve">
<style type="text/css">
	.st0{fill:none;}
	.st1{fill:#0E223D;}
</style>
<path class="st0" d="M0,0h24v24H0V0z"/>
<g>
	<path class="st1" d="M19.5,16.7l-0.8,3.6c-0.1,0.5-0.5,0.9-1.1,0.9C8.7,21.1,1.5,13.9,1.5,5c0-0.5,0.3-0.9,0.8-1.1l3.6-0.8
		c0.5-0.1,1,0.2,1.2,0.6l1.7,3.8c0.2,0.5,0.1,1-0.3,1.3l-1.9,1.5c1.2,2.4,3.2,4.4,5.6,5.6l1.5-1.9c0.3-0.4,0.8-0.5,1.3-0.3l3.8,1.7
		C19.3,15.7,19.6,16.2,19.5,16.7z"/>
	<path class="st1" d="M22.3,7.9l-3.6,3.8c-0.1,0.1-0.3,0.2-0.5,0.2c-0.2,0-0.4-0.1-0.5-0.2c-0.3-0.3-0.3-0.8,0-1.1L20,8.1h-6.8
		c-0.4,0-0.7-0.3-0.7-0.8c0-0.4,0.3-0.8,0.7-0.8H20l-2.3-2.5c-0.3-0.3-0.3-0.8,0-1.1c0.3-0.3,0.7-0.3,1,0l3.6,3.8
		C22.6,7.1,22.6,7.6,22.3,7.9z"/>
</g>
</svg>
