<?xml version="1.0" encoding="utf-8"?>
<!-- Generator: Adobe Illustrator 23.0.0, SVG Export Plug-In . SVG Version: 6.00 Build 0)  -->
<svg version="1.1" id="Layer_1" xmlns="http://www.w3.org/2000/svg" xmlns:xlink="http://www.w3.org/1999/xlink" x="0px" y="0px"
	 viewBox="0 0 24 24" style="enable-background:new 0 0 24 24;" xml:space="preserve">
<style type="text/css">
	.st0{fill:none;}
	.st1{fill:#009751;}
</style>
<path class="st0" d="M0,0h24v24H0V0z"/>
<path class="st1" d="M12.6,11.3V6.5h1.6v2.1l4.1-4.1l1.2,1.1l-4.1,4.1h2.1v1.6H12.6z M18.5,19.5c-1.8,0-3.5-0.4-5.2-1.2
	s-3.2-1.8-4.5-3.1s-2.3-2.8-3.1-4.4C4.9,9.1,4.5,7.4,4.5,5.7c0-0.2,0.1-0.4,0.2-0.6c0.2-0.2,0.4-0.2,0.6-0.2h3.3
	c0.2,0,0.4,0.1,0.5,0.2c0.2,0.1,0.2,0.3,0.3,0.5L10,8.3c0,0.2,0,0.4,0,0.5S9.9,9.1,9.8,9.3l-2,2c0.6,1,1.3,1.9,2.2,2.8
	c0.9,0.9,1.8,1.6,2.9,2.2l1.9-1.9c0.1-0.1,0.3-0.2,0.5-0.3c0.2-0.1,0.4-0.1,0.6-0.1l2.8,0.6c0.2,0,0.4,0.1,0.5,0.3s0.2,0.3,0.2,0.5
	v3.3c0,0.2-0.1,0.4-0.2,0.6C18.9,19.4,18.7,19.5,18.5,19.5z M7,9.7l1.4-1.3L8,6.5H6.2C6.2,7,6.3,7.6,6.5,8.1C6.6,8.7,6.8,9.2,7,9.7z
	 M14.4,17c0.5,0.2,1.1,0.4,1.6,0.6c0.6,0.1,1.1,0.2,1.7,0.3V16l-1.9-0.4L14.4,17z"/>
</svg>
