<?xml version="1.0" encoding="utf-8"?>
<!-- Generator: Adobe Illustrator 23.0.0, SVG Export Plug-In . SVG Version: 6.00 Build 0)  -->
<svg version="1.1" id="Capa_1" xmlns="http://www.w3.org/2000/svg" xmlns:xlink="http://www.w3.org/1999/xlink" x="0px" y="0px"
	 viewBox="0 0 30 30" style="enable-background:new 0 0 30 30;" xml:space="preserve">
<style type="text/css">
	.st0{fill-rule:evenodd;clip-rule:evenodd;fill:#0E223D;}
</style>
<path class="st0" d="M6.7,3.3c0,1.8-1.5,3.3-3.3,3.3S0,5.2,0,3.3S1.5,0,3.3,0S6.7,1.5,6.7,3.3z M18.3,3.3c0,1.8-1.5,3.3-3.3,3.3
	c-1.8,0-3.3-1.5-3.3-3.3S13.2,0,15,0C16.8,0,18.3,1.5,18.3,3.3z M26.7,6.7c1.8,0,3.3-1.5,3.3-3.3S28.5,0,26.7,0s-3.3,1.5-3.3,3.3
	S24.8,6.7,26.7,6.7z M6.7,15c0,1.8-1.5,3.3-3.3,3.3S0,16.8,0,15c0-1.8,1.5-3.3,3.3-3.3S6.7,13.2,6.7,15z M15,18.3
	c1.8,0,3.3-1.5,3.3-3.3c0-1.8-1.5-3.3-3.3-3.3c-1.8,0-3.3,1.5-3.3,3.3C11.7,16.8,13.2,18.3,15,18.3z M30,15c0,1.8-1.5,3.3-3.3,3.3
	s-3.3-1.5-3.3-3.3c0-1.8,1.5-3.3,3.3-3.3S30,13.2,30,15z M3.3,30c1.8,0,3.3-1.5,3.3-3.3c0-1.8-1.5-3.3-3.3-3.3S0,24.8,0,26.7
	C0,28.5,1.5,30,3.3,30z M18.3,26.7c0,1.8-1.5,3.3-3.3,3.3c-1.8,0-3.3-1.5-3.3-3.3c0-1.8,1.5-3.3,3.3-3.3
	C16.8,23.3,18.3,24.8,18.3,26.7z M26.7,30c1.8,0,3.3-1.5,3.3-3.3c0-1.8-1.5-3.3-3.3-3.3s-3.3,1.5-3.3,3.3C23.3,28.5,24.8,30,26.7,30
	z"/>
</svg>
