<?xml version="1.0" encoding="utf-8"?>
<!-- Generator: Adobe Illustrator 23.0.0, SVG Export Plug-In . SVG Version: 6.00 Build 0)  -->
<svg version="1.1" id="Layer_1" xmlns="http://www.w3.org/2000/svg" xmlns:xlink="http://www.w3.org/1999/xlink" x="0px" y="0px"
	 viewBox="0 0 16 16" style="enable-background:new 0 0 16 16;" xml:space="preserve">
<style type="text/css">
	.st0{fill:#00703C;}
</style>
<path d="M10,8c0,1.1-0.9,2-2,2S6,9.1,6,8V3c0-1.1,0.9-2,2-2s2,0.9,2,2V8z M8,0C6.3,0,5,1.3,5,3v5c0,1.7,1.3,3,3,3s3-1.3,3-3V3
	C11,1.3,9.7,0,8,0z"/>
<path class="st0" d="M8,11c1.7,0,3-1.3,3-3V3c0-1.7-1.3-3-3-3C6.3,0,5,1.3,5,3v5C5,9.7,6.3,11,8,11z M12.8,6C12.3,6,12,6.3,12,6.8V8
	c0,2.3-1.9,4.2-4.3,4C5.7,11.9,4,9.9,4,7.8V6.8C4,6.3,3.7,6,3.3,6C2.8,6,2.5,6.3,2.5,6.8v1c0,2.8,2,5.3,4.8,5.7v1.1H6
	c-0.6,0-1,0.5-1,1.1C5,15.8,5.2,16,5.5,16h5c0.3,0,0.5-0.2,0.5-0.4c0-0.6-0.4-1.1-1-1.1H8.8v-1c2.7-0.4,4.8-2.7,4.8-5.5V6.8
	C13.5,6.3,13.2,6,12.8,6z"/>
</svg>
