<?xml version="1.0" encoding="utf-8"?>
<!-- Generator: Adobe Illustrator 23.0.0, SVG Export Plug-In . SVG Version: 6.00 Build 0)  -->
<svg version="1.1" id="Layer_1" xmlns="http://www.w3.org/2000/svg" xmlns:xlink="http://www.w3.org/1999/xlink" x="0px" y="0px"
	 viewBox="0 0 24 24" style="enable-background:new 0 0 24 24;" xml:space="preserve">
<style type="text/css">
	.st0{fill:none;}
	.st1{fill:#DE0040;}
</style>
<path class="st0" d="M0,0h24v24H0V0z"/>
<path class="st1" d="M12,11.9L8.7,8.8v1.6H7.3V6.7h4v1.3H9.6l2.4,2.2l3.8-3.6l1,0.9L12,11.9z M12,12.3c1.3,0,2.6,0.3,3.9,0.8
	c1.3,0.5,2.4,1.3,3.4,2.3c0.1,0.1,0.2,0.3,0.2,0.4c0,0.2-0.1,0.3-0.2,0.4l-1.5,1.4c-0.1,0.1-0.3,0.2-0.4,0.2c-0.2,0-0.3,0-0.4-0.1
	l-1.9-1.4c-0.1-0.1-0.2-0.1-0.2-0.2c0-0.1-0.1-0.2-0.1-0.3V14c-0.4-0.1-0.9-0.2-1.3-0.3c-0.4-0.1-0.9-0.1-1.4-0.1s-0.9,0-1.4,0.1
	c-0.4,0.1-0.9,0.2-1.3,0.3v1.8c0,0.1,0,0.2-0.1,0.3c0,0.1-0.1,0.2-0.2,0.2l-2,1.4c-0.1,0.1-0.3,0.1-0.4,0.1c-0.2,0-0.3-0.1-0.4-0.2
	l-1.5-1.4c-0.1-0.1-0.2-0.3-0.2-0.4c0-0.2,0.1-0.3,0.2-0.4c1-1,2.1-1.8,3.4-2.3C9.4,12.6,10.7,12.3,12,12.3z M8,14.4
	C7.7,14.6,7.3,14.8,7,15c-0.3,0.2-0.6,0.4-0.9,0.7l0.7,0.6L8,15.4V14.4z M16,14.5v0.9l1.2,0.9l0.7-0.6c-0.3-0.3-0.6-0.5-0.9-0.7
	S16.3,14.6,16,14.5z"/>
</svg>
