<?xml version="1.0" encoding="utf-8"?>
<!-- Generator: Adobe Illustrator 23.0.0, SVG Export Plug-In . SVG Version: 6.00 Build 0)  -->
<svg version="1.1" id="Layer_1" xmlns="http://www.w3.org/2000/svg" xmlns:xlink="http://www.w3.org/1999/xlink" x="0px" y="0px"
	 viewBox="0 0 16 16" style="enable-background:new 0 0 16 16;" xml:space="preserve">
<style type="text/css">
	.st0{fill:#0E223D;}
</style>
<path class="st0" d="M9.6,13.2h-1v-0.8c0.5-0.1,1-0.2,1.4-0.5L9,11c-0.4,0.1-0.7,0.2-1.2,0.1c-1.6-0.1-3-1.6-3-3.3V7.8L3.6,6.9v1
	c0,2.2,1.6,4.2,3.8,4.5v0.8h-1c-0.4,0-0.8,0.4-0.8,0.8c0,0.2,0.2,0.4,0.4,0.4h4c0.2,0,0.4-0.2,0.4-0.4C10.4,13.6,10,13.2,9.6,13.2z
	 M15.8,13.3l-4-3.1c0.4-0.6,0.6-1.4,0.6-2.2V7c0-0.3-0.3-0.6-0.6-0.6c-0.3,0-0.6,0.3-0.6,0.6v1c0,0.5-0.1,1-0.3,1.4l-0.6-0.5
	c0.1-0.3,0.2-0.6,0.2-0.9V4.1c0-1.3-1-2.4-2.3-2.5c-1.3,0-2.5,1-2.5,2.4v1.4L1,1.8C0.9,1.7,0.7,1.6,0.6,1.6c-0.2,0-0.4,0.1-0.5,0.2
	C-0.1,2.1,0,2.5,0.2,2.7L15,14.2c0.2,0.2,0.6,0.2,0.8-0.1C16.1,13.9,16,13.5,15.8,13.3z"/>
</svg>
