<?xml version="1.0" encoding="utf-8"?>
<!-- Generator: Adobe Illustrator 23.0.0, SVG Export Plug-In . SVG Version: 6.00 Build 0)  -->
<svg version="1.1" id="Layer_1" xmlns="http://www.w3.org/2000/svg" xmlns:xlink="http://www.w3.org/1999/xlink" x="0px" y="0px"
	 viewBox="0 0 24 24" style="enable-background:new 0 0 24 24;" xml:space="preserve">
<style type="text/css">
	.st0{fill-rule:evenodd;clip-rule:evenodd;fill:#FF6623;}
</style>
<path class="st0" d="M12,11.7l3.3-3.3v1.8h1.3V6.1h-4v1.4h1.7l-2.4,2.4L8.3,6l-1,1L12,11.7z M15.9,12.9c-1.3-0.5-2.6-0.8-3.9-0.8
	s-2.6,0.3-3.9,0.8c-1.3,0.5-2.4,1.3-3.4,2.4c-0.1,0.1-0.2,0.3-0.2,0.5c0,0.2,0.1,0.3,0.2,0.5l1.5,1.5C6.4,17.9,6.5,18,6.7,18
	c0.2,0,0.3,0,0.4-0.1l2-1.5c0.1-0.1,0.2-0.1,0.2-0.2s0.1-0.2,0.1-0.3v-1.9c0.4-0.1,0.9-0.2,1.3-0.3c0.4-0.1,0.9-0.1,1.4-0.1
	c0.5,0,0.9,0,1.4,0.1c0.4,0.1,0.9,0.2,1.3,0.3v1.9c0,0.1,0,0.2,0.1,0.3c0,0.1,0.1,0.2,0.2,0.2l1.9,1.5C17,18,17.2,18,17.3,18
	c0.2,0,0.3-0.1,0.4-0.2l1.5-1.5c0.1-0.1,0.2-0.3,0.2-0.5c0-0.2-0.1-0.3-0.2-0.5C18.3,14.3,17.2,13.5,15.9,12.9z M7,15
	c0.3-0.2,0.6-0.4,0.9-0.6v1l-1.2,0.9l-0.7-0.7C6.4,15.4,6.7,15.2,7,15z M16,15.4v-1c0.3,0.2,0.6,0.3,0.9,0.6
	c0.3,0.2,0.6,0.5,0.9,0.8l-0.7,0.6L16,15.4z"/>
</svg>
