<?xml version="1.0" encoding="utf-8"?>
<!-- Generator: Adobe Illustrator 23.0.0, SVG Export Plug-In . SVG Version: 6.00 Build 0)  -->
<svg version="1.1" id="Layer_1" xmlns="http://www.w3.org/2000/svg" xmlns:xlink="http://www.w3.org/1999/xlink" x="0px" y="0px"
	 viewBox="0 0 24 24" style="enable-background:new 0 0 24 24;" xml:space="preserve">
<style type="text/css">
	.st0{fill:none;}
	.st1{fill:#0E223D;}
</style>
<path class="st0" d="M0,0h24v24H0V0z"/>
<path class="st1" d="M16.1,5h-1.2c-1,0-1.8,0.8-1.8,1.7v10.5c0,0.9,0.8,1.8,1.8,1.8l1.2,0c0.9,0,1.8-0.8,1.8-1.8V6.7
	C17.8,5.8,17,5,16.1,5z M9.1,5H7.9c-1,0-1.8,0.8-1.8,1.8v10.5c0,1,0.8,1.8,1.8,1.8h1.2c0.9,0,1.8-0.8,1.8-1.8V6.7
	C10.8,5.8,10,5,9.1,5z"/>
</svg>
