<?xml version="1.0" encoding="utf-8"?>
<!-- Generator: Adobe Illustrator 23.0.0, SVG Export Plug-In . SVG Version: 6.00 Build 0)  -->
<svg version="1.1" id="Layer_1" xmlns="http://www.w3.org/2000/svg" xmlns:xlink="http://www.w3.org/1999/xlink" x="0px" y="0px"
	 viewBox="0 0 48 48" style="enable-background:new 0 0 48 48;" xml:space="preserve">
<style type="text/css">
	.st0{fill:none;}
	.st1{fill:#FFFFFF;}
</style>
<path class="st0" d="M0,0h48v48H0V0z"/>
<path class="st1" d="M4.1,30.9l-3.7-6.5c-0.6-0.9-0.5-2.1,0.3-2.8C14,9.2,34.9,9.8,47.4,23c0.7,0.8,0.9,1.9,0.2,2.8l-4.1,6.3
	c-0.6,0.9-1.8,1.2-2.7,0.8l-7.9-3.4c-0.9-0.4-1.5-1.4-1.3-2.3l0.7-5C27,20.2,21.3,20,16,21.7l0.4,5c0.1,0.9-0.5,1.9-1.4,2.3l-8,2.9
	C5.8,32.2,4.6,31.8,4.1,30.9z"/>
</svg>
