<?xml version="1.0" encoding="utf-8"?>
<!-- Generator: Adobe Illustrator 23.0.0, SVG Export Plug-In . SVG Version: 6.00 Build 0)  -->
<svg version="1.1" id="Layer_1" xmlns="http://www.w3.org/2000/svg" xmlns:xlink="http://www.w3.org/1999/xlink" x="0px" y="0px"
	 viewBox="0 0 16 16" style="enable-background:new 0 0 16 16;" xml:space="preserve">
<style type="text/css">
	.st0{fill:#0E223D;}
</style>
<path class="st0" d="M3.9,5.5h8.3v5H3.9V5.5z M13.8,3c0.9,0,1.7,0.8,1.7,1.7v2.1c-0.7,0-1.2,0.6-1.2,1.2c0,0.7,0.5,1.2,1.2,1.2v2.1
	c0,0.9-0.8,1.7-1.7,1.7H2.2c-0.9,0-1.7-0.7-1.7-1.7V9.2c0.7,0,1.2-0.5,1.2-1.2c0-0.7-0.6-1.2-1.2-1.2V4.7C0.5,3.8,1.3,3,2.2,3H13.8z
	 M3,10.5c0,0.5,0.4,0.8,0.8,0.8h8.3c0.4,0,0.8-0.4,0.8-0.8v-5c0-0.4-0.4-0.8-0.8-0.8H3.9C3.4,4.7,3,5.1,3,5.5V10.5z"/>
</svg>
