<svg width="40" height="40" viewBox="0 0 40 40" fill="none" xmlns="http://www.w3.org/2000/svg">
<g clip-path="url(#clip0_703_2487)">
<path d="M20 39C30.4934 39 39 30.4934 39 20C39 9.50659 30.4934 1 20 1C9.50659 1 1 9.50659 1 20C1 30.4934 9.50659 39 20 39Z" fill="white"/>
<path d="M20 39C30.4934 39 39 30.4934 39 20C39 9.50659 30.4934 1 20 1C9.50659 1 1 9.50659 1 20C1 30.4934 9.50659 39 20 39Z" stroke="#9B9B9B" stroke-width="0.5"/>
<path fill-rule="evenodd" clip-rule="evenodd" d="M20.25 28.8864C25.0197 28.8864 28.8864 25.0197 28.8864 20.25C28.8864 15.4803 25.0197 11.6136 20.25 11.6136C15.4803 11.6136 11.6136 15.4803 11.6136 20.25C11.6136 25.0197 15.4803 28.8864 20.25 28.8864ZM20.25 30.25C25.7728 30.25 30.25 25.7728 30.25 20.25C30.25 14.7272 25.7728 10.25 20.25 10.25C14.7272 10.25 10.25 14.7272 10.25 20.25C10.25 25.7728 14.7272 30.25 20.25 30.25Z" fill="#00703C"/>
<path fill-rule="evenodd" clip-rule="evenodd" d="M20.25 28.6364C24.8817 28.6364 28.6364 24.8817 28.6364 20.25C28.6364 15.6183 24.8817 11.8636 20.25 11.8636C15.6183 11.8636 11.8636 15.6183 11.8636 20.25C11.8636 24.8817 15.6183 28.6364 20.25 28.6364ZM30.5 20.25C30.5 25.9109 25.9109 30.5 20.25 30.5C14.5891 30.5 10 25.9109 10 20.25C10 14.5891 14.5891 10 20.25 10C25.9109 10 30.5 14.5891 30.5 20.25ZM28.8864 20.25C28.8864 25.0197 25.0197 28.8864 20.25 28.8864C15.4803 28.8864 11.6136 25.0197 11.6136 20.25C11.6136 15.4803 15.4803 11.6136 20.25 11.6136C25.0197 11.6136 28.8864 15.4803 28.8864 20.25ZM30.25 20.25C30.25 25.7728 25.7728 30.25 20.25 30.25C14.7272 30.25 10.25 25.7728 10.25 20.25C10.25 14.7272 14.7272 10.25 20.25 10.25C25.7728 10.25 30.25 14.7272 30.25 20.25Z" fill="#00703C"/>
<path d="M15.1073 20.968L18.7811 24.8595C18.8581 24.941 18.9625 24.9867 19.0713 24.9867C19.1801 24.9867 19.2844 24.941 19.3614 24.8595L25.393 18.4705C25.4699 18.389 25.5131 18.2785 25.5131 18.1632C25.5131 18.048 25.4699 17.9375 25.393 17.8559L24.295 16.6929C24.2181 16.6114 24.1137 16.5657 24.0049 16.5657C23.8961 16.5657 23.7918 16.6114 23.7148 16.6929L19.3279 21.3397C19.2509 21.4211 19.1466 21.4669 19.0378 21.4669C18.929 21.4669 18.8246 21.4211 18.7477 21.3397L16.7816 19.2571C16.706 19.1771 16.6039 19.1314 16.497 19.1299C16.3902 19.1283 16.2869 19.1709 16.2093 19.2487L15.1153 20.3444C15.0754 20.3844 15.0434 20.4324 15.0214 20.4856C14.9993 20.5389 14.9876 20.5963 14.9869 20.6544C14.9861 20.7126 14.9964 20.7703 15.0171 20.8242C15.0378 20.878 15.0684 20.927 15.1073 20.968Z" fill="#00703C"/>
</g>
<defs>
<clipPath id="clip0_703_2487">
<rect width="40" height="40" fill="white"/>
</clipPath>
</defs>
</svg>
