<svg width="40" height="40" viewBox="0 0 40 40" fill="none" xmlns="http://www.w3.org/2000/svg">
<g clip-path="url(#clip0_703_2504)">
<path d="M20 39C30.4934 39 39 30.4934 39 20C39 9.50659 30.4934 1 20 1C9.50659 1 1 9.50659 1 20C1 30.4934 9.50659 39 20 39Z" fill="white"/>
<path d="M20 39C30.4934 39 39 30.4934 39 20C39 9.50659 30.4934 1 20 1C9.50659 1 1 9.50659 1 20C1 30.4934 9.50659 39 20 39Z" stroke="#9B9B9B" stroke-width="0.5"/>
<path d="M30.6377 18.0274C30.5768 17.9666 30.5768 17.9666 30.5261 17.9159C30.4146 17.8043 30.2422 17.6928 30.1307 17.5812C29.2282 16.9018 28.2141 16.5063 27.0885 16.4556H26.4699C25.3443 16.4556 24.3911 15.5531 24.3911 14.3768V14.2653C24.3302 12.4602 23.0424 11 21.4605 11C19.8278 11 18.5298 12.5211 18.5298 14.4377C18.5298 16.2934 19.8278 17.8753 21.4605 17.8753C21.6836 17.8753 21.9067 17.8145 22.1399 17.7638C22.7585 17.7029 23.7117 17.5914 24.168 17.5914C25.5775 17.5914 25.7398 17.9869 25.7398 17.9869C25.4052 18.2708 25.1212 18.6663 24.8981 19.0618C24.7866 19.2849 24.675 19.5079 24.5635 19.7412C24.5026 19.802 24.2795 20.4713 23.7725 22.0532C23.4379 23.0673 22.2007 23.0064 22.2007 23.0064H20.0611C18.7124 23.0064 18.1445 21.0899 18.1445 21.0899C17.3028 18.504 15.2747 16.5875 12.7396 16.5875C9.525 16.5266 7 19.5181 7 23.1788C7 26.8396 9.53514 29.8209 12.6889 29.8209C14.4939 29.7601 16.1772 28.8677 17.1406 27.3466C17.5361 26.7787 17.9822 26.2717 18.5501 25.8864C18.9963 25.4909 19.5642 25.207 20.1219 24.9839C20.5174 24.8723 20.852 24.7608 21.2475 24.7608H23.7218C24.4519 24.7608 25.1314 24.9839 25.7499 25.3286C25.7499 25.3286 25.9223 25.4402 25.973 25.501C26.1454 25.6734 26.3685 25.785 26.5916 25.8965C27.0378 26.1196 27.5448 26.2312 28.0518 26.2312C30.2523 26.2312 31.9965 24.203 31.9965 21.6172C32.0472 20.2786 31.5402 18.9806 30.6377 18.0274ZM21.1157 14.4275C21.1157 13.3526 21.6227 12.5109 22.3021 12.5109C22.9816 12.5109 23.4886 13.3526 23.4886 14.4275C23.4886 15.5024 22.9816 16.3441 22.3021 16.3441C21.6227 16.3441 21.1157 15.4416 21.1157 14.4275ZM14.7575 27.2046C13.4595 27.2046 12.3948 25.5112 12.3948 23.3715C12.3948 21.2318 13.4697 19.5384 14.7575 19.5384C16.0454 19.5384 17.1203 21.2318 17.1203 23.3715C17.1203 25.5213 16.0555 27.2046 14.7575 27.2046ZM29.2789 24.1625C28.4372 24.1625 27.7071 23.0369 27.7071 21.5766C27.7071 20.1164 28.4372 18.9908 29.2789 18.9908C30.1205 18.9908 30.8506 20.1772 30.8506 21.5766C30.8608 22.9862 30.1814 24.1625 29.2789 24.1625Z" fill="#00703C"/>
</g>
<defs>
<clipPath id="clip0_703_2504">
<rect width="40" height="40" fill="white"/>
</clipPath>
</defs>
</svg>
