<svg width="40" height="40" viewBox="0 0 40 40" fill="none" xmlns="http://www.w3.org/2000/svg">
<g clip-path="url(#clip0_703_2719)">
<path d="M20 39C30.4934 39 39 30.4934 39 20C39 9.50659 30.4934 1 20 1C9.50659 1 1 9.50659 1 20C1 30.4934 9.50659 39 20 39Z" fill="white"/>
<path d="M20 39C30.4934 39 39 30.4934 39 20C39 9.50659 30.4934 1 20 1C9.50659 1 1 9.50659 1 20C1 30.4934 9.50659 39 20 39Z" stroke="#9B9B9B" stroke-width="0.5"/>
<path d="M19.4236 15.9027C27.5332 14.4733 34.4742 15.4012 34.9281 17.979C35.3819 20.5543 29.1756 23.8041 21.0686 25.2334C12.959 26.6628 6.01804 25.7349 5.56416 23.1571C5.11029 20.5793 11.3166 17.332 19.4236 15.9027Z" fill="white"/>
<path d="M19.2105 18.4252H18.0946V22.0913C18.0946 22.3019 18.047 22.4599 17.9542 22.5602C17.8614 22.663 17.7285 22.7182 17.5881 22.7131C17.4477 22.7182 17.3122 22.6605 17.217 22.5602C17.1192 22.4549 17.074 22.3019 17.074 22.0913V18.4252H15.9582C15.8177 18.4352 15.6798 18.3951 15.5695 18.3098C15.4015 18.1443 15.399 17.8735 15.5645 17.703C15.567 17.7005 15.572 17.6955 15.5745 17.693C15.6848 17.6102 15.8202 17.5701 15.9582 17.5776H19.2055C19.3459 17.5651 19.4863 17.6077 19.5992 17.6955C19.7672 17.8559 19.7747 18.1242 19.6117 18.2923C19.6067 18.2973 19.6017 18.3023 19.5992 18.3048C19.5139 18.3875 19.3835 18.4252 19.2105 18.4252Z" fill="#098850"/>
<path d="M23.6616 18.3701H21.3597V19.6089H23.4786C23.604 19.5988 23.7293 19.6365 23.8271 19.7142C23.9049 19.7844 23.945 19.8872 23.9425 19.99C23.945 20.0954 23.9049 20.1982 23.8271 20.2709C23.7293 20.3511 23.6015 20.3912 23.4761 20.3812H21.3572V21.8156H23.7394C23.8698 21.8055 24.0002 21.8456 24.103 21.9284C24.1857 22.0061 24.2283 22.114 24.2258 22.2268C24.2283 22.3371 24.1857 22.445 24.103 22.5177C24.0002 22.6004 23.8723 22.6406 23.7394 22.6305H20.9635C20.7428 22.6305 20.5798 22.5804 20.4845 22.4826C20.3892 22.3823 20.3391 22.2243 20.3391 22.0061V18.2121C20.334 18.0893 20.3566 17.9664 20.4043 17.8536C20.4444 17.7633 20.5196 17.6906 20.6099 17.6505C20.7227 17.6053 20.8456 17.5828 20.966 17.5878H23.6616C23.792 17.5777 23.9224 17.6153 24.0252 17.6981C24.1055 17.7708 24.1481 17.8736 24.1456 17.9815C24.1506 18.0893 24.108 18.1946 24.0252 18.2673C23.9224 18.3425 23.792 18.3802 23.6616 18.3701Z" fill="#098850"/>
<path d="M26.7433 21.868L25.9359 18.6533V22.1363C25.9484 22.2918 25.9008 22.4448 25.8055 22.5702C25.7177 22.6654 25.5924 22.7181 25.4645 22.7131C25.3366 22.7181 25.2137 22.6654 25.1284 22.5702C25.0332 22.4473 24.9855 22.2918 24.9981 22.1338V18.1417C24.9981 17.9236 25.0557 17.7731 25.1711 17.6954C25.3115 17.6127 25.472 17.5725 25.635 17.5801H25.951C26.0914 17.5725 26.2318 17.5901 26.3647 17.6327C26.45 17.6678 26.5177 17.733 26.5553 17.8183C26.6155 17.9612 26.6606 18.1067 26.6957 18.2571L27.4279 21.0205L28.1601 18.2571C28.1952 18.1067 28.2429 17.9612 28.3005 17.8183C28.3382 17.733 28.4059 17.6678 28.4911 17.6327C28.624 17.5926 28.7645 17.575 28.9049 17.5801H29.2208C29.3838 17.5725 29.5443 17.6127 29.6847 17.6954C29.8001 17.7706 29.8578 17.9186 29.8578 18.1417V22.1338C29.8703 22.2893 29.8227 22.4423 29.7274 22.5676C29.6396 22.6654 29.5117 22.7181 29.3813 22.7106C29.2534 22.7156 29.1331 22.6629 29.0478 22.5676C28.9525 22.4448 28.9049 22.2893 28.9174 22.1338V18.6533L28.11 21.868C28.0573 22.0762 28.0122 22.2316 27.9796 22.3269C27.942 22.4297 27.8793 22.5225 27.794 22.5927C27.6887 22.678 27.5558 22.7206 27.4204 22.7131C27.3151 22.7156 27.2098 22.6905 27.117 22.6354C27.0367 22.5877 26.9715 22.5175 26.9239 22.4373C26.8762 22.3545 26.8411 22.2642 26.8135 22.1715C26.796 22.0737 26.7709 21.9734 26.7433 21.868Z" fill="#098850"/>
<path d="M14.0399 20.6291H11.7379C11.7354 20.8749 11.7906 21.1156 11.8984 21.3363C11.9912 21.5269 12.1366 21.6848 12.3147 21.7977C12.4877 21.903 12.6883 21.9556 12.8914 21.9531C13.0218 21.9556 13.1522 21.9381 13.2776 21.903C13.398 21.8679 13.5108 21.8152 13.6161 21.7475C13.7214 21.6798 13.8242 21.6021 13.9195 21.5218C14.0098 21.4416 14.1302 21.3313 14.2756 21.1933C14.3483 21.1357 14.4411 21.1081 14.5339 21.1156C14.6392 21.1106 14.7445 21.1457 14.8248 21.2159C14.9025 21.2886 14.9451 21.3914 14.9376 21.4968C14.9301 21.6297 14.885 21.7575 14.8122 21.8704C14.7144 22.0309 14.5865 22.1688 14.4336 22.2791C14.2405 22.4221 14.0274 22.5324 13.7992 22.6051C13.5158 22.6954 13.2174 22.7405 12.9215 22.7355C12.1642 22.7355 11.5774 22.5199 11.1562 22.0886C10.7374 21.6572 10.5243 21.073 10.5243 20.3332C10.5217 20.0047 10.5744 19.6762 10.6797 19.3653C10.775 19.0819 10.9305 18.8212 11.1336 18.598C11.3367 18.3823 11.5875 18.2143 11.8658 18.109C12.1743 17.9911 12.5027 17.9335 12.8337 17.941C13.2475 17.9284 13.6562 18.0288 14.0173 18.2319C14.3308 18.4099 14.5865 18.6707 14.7571 18.9842C14.915 19.2725 15.0003 19.596 15.0028 19.9245C15.0028 20.2229 14.9175 20.411 14.747 20.5013C14.5264 20.599 14.2831 20.6417 14.0399 20.6291ZM11.7379 19.9596H13.8719C13.8443 19.5584 13.734 19.255 13.5459 19.0544C13.3528 18.8513 13.082 18.7434 12.8036 18.7535C12.5303 18.7459 12.267 18.8563 12.0815 19.0594C11.8909 19.265 11.778 19.5634 11.7379 19.9596Z" fill="#D12027"/>
<path d="M13.9846 25.8949C11.615 25.8949 9.57627 25.6416 8.08927 25.1652C7.33699 24.9245 6.7377 24.6286 6.30389 24.2875C5.85754 23.934 5.59173 23.5353 5.514 23.0964C5.48641 22.9334 5.48139 22.7679 5.50396 22.6024C5.52903 22.4294 5.57667 22.2589 5.64437 22.0984C5.7848 21.7624 6.02051 21.4163 6.3465 21.0703C6.66496 20.7293 7.07621 20.3807 7.56268 20.0397C8.0993 19.6685 8.65852 19.3325 9.23777 19.0341C9.86717 18.7082 10.5668 18.3872 11.3165 18.0862C12.0738 17.7803 12.8888 17.4895 13.7414 17.2237C14.609 16.9503 15.5243 16.697 16.4571 16.4739C17.4175 16.2432 18.4105 16.0401 19.4086 15.867C20.6498 15.6539 21.8936 15.4909 23.1022 15.3831C24.2758 15.2778 25.4218 15.2251 26.505 15.2251C28.8747 15.2251 30.9134 15.4784 32.4004 15.9548C33.1527 16.1955 33.752 16.4914 34.1858 16.8325C34.6321 17.186 34.8979 17.5847 34.9757 18.0236C35.0033 18.1866 35.0083 18.3521 34.9857 18.5176C34.9606 18.6906 34.913 18.8611 34.8453 19.0216C34.7049 19.3551 34.4691 19.7037 34.1432 20.0497C33.8247 20.3907 33.4134 20.7393 32.927 21.0803C32.3903 21.4514 31.8312 21.7875 31.2519 22.0859C30.6225 22.4144 29.9229 22.7328 29.1731 23.0337C28.4158 23.3397 27.6009 23.6305 26.7483 23.8963C25.8807 24.1697 24.9654 24.4204 24.0326 24.6461C23.0722 24.8768 22.0791 25.0799 21.0811 25.253C19.8399 25.4661 18.5961 25.6291 17.3874 25.7369C16.2139 25.8422 15.0679 25.8949 13.9846 25.8949ZM26.5402 15.3104C25.4544 15.3104 24.3084 15.363 23.1298 15.4683C21.9162 15.5762 20.6699 15.7417 19.4236 15.9548C15.5168 16.6268 11.9259 17.7402 9.31799 19.0843C8.74125 19.3777 8.18458 19.7087 7.65297 20.0723C7.169 20.4083 6.76026 20.7518 6.4443 21.0853C5.7823 21.785 5.50396 22.4545 5.6143 23.0739C5.68953 23.5001 5.9503 23.8913 6.38913 24.2349C6.81291 24.5684 7.40471 24.8568 8.14195 25.09C9.60387 25.5539 11.6099 25.7996 13.9445 25.8021C15.0303 25.8021 16.1763 25.7495 17.3548 25.6441C18.5685 25.5363 19.8148 25.3708 21.0611 25.1577C24.9679 24.4856 28.5588 23.3723 31.1667 22.0282C31.7434 21.7348 32.3001 21.4038 32.8317 21.0402C33.3157 20.7042 33.7244 20.3606 34.0404 20.0271C34.7024 19.3275 34.9807 18.658 34.8704 18.0386C34.7951 17.6123 34.5344 17.2212 34.0955 16.8776C33.6717 16.5441 33.0799 16.2557 32.3427 16.0225C30.8833 15.5561 28.8772 15.3104 26.5402 15.3104Z" fill="#098850"/>
<path d="M32.8699 17.7873C33.8047 17.7873 34.5625 17.0295 34.5625 16.0947C34.5625 15.1599 33.8047 14.4021 32.8699 14.4021C31.9351 14.4021 31.1772 15.1599 31.1772 16.0947C31.1772 17.0295 31.9351 17.7873 32.8699 17.7873Z" fill="white"/>
<path d="M33.7851 16.4976C33.7751 16.7208 33.6748 16.9339 33.5093 17.0844C33.3287 17.2323 33.098 17.3075 32.8648 17.295C32.6918 17.3 32.5188 17.2524 32.3708 17.1621C32.2279 17.0718 32.1126 16.9389 32.0424 16.7835C31.9621 16.6029 31.922 16.4098 31.922 16.2142V15.9961C31.9195 15.7955 31.9596 15.5949 32.0398 15.4093C32.1101 15.2488 32.2279 15.1134 32.3784 15.0206C32.5313 14.9278 32.7069 14.8802 32.8849 14.8827C33.1131 14.8702 33.3363 14.9454 33.5118 15.0933C33.6773 15.2488 33.7776 15.462 33.7901 15.6876H33.3814C33.3764 15.5522 33.3237 15.4243 33.2335 15.3215C33.0003 15.1435 32.6692 15.1786 32.4787 15.4018C32.3834 15.5322 32.3332 15.7227 32.3307 15.9735V16.1816C32.3307 16.4349 32.3759 16.628 32.4661 16.7609C32.5539 16.8913 32.7069 16.969 32.8648 16.959C32.9952 16.969 33.1231 16.9314 33.2259 16.8512C33.3187 16.7534 33.3739 16.6255 33.3789 16.4901H33.7851V16.4976Z" fill="#098850"/>
<path d="M32.8498 17.7876C31.907 17.7876 31.1396 17.0203 31.1396 16.0749C31.1396 15.1296 31.9045 14.3647 32.8498 14.3647C33.7952 14.3647 34.56 15.1296 34.56 16.0749C34.5625 17.0203 33.7952 17.7876 32.8498 17.7876ZM32.8498 14.4525C31.9521 14.4525 31.2249 15.1797 31.2249 16.0774C31.2249 16.9751 31.9521 17.7024 32.8498 17.7024C33.7475 17.7024 34.4747 16.9726 34.4747 16.0749C34.4747 15.1797 33.7475 14.4525 32.8498 14.4525Z" fill="#098850"/>
</g>
<defs>
<clipPath id="clip0_703_2719">
<rect width="40" height="40" fill="white"/>
</clipPath>
</defs>
</svg>
