<svg width="39" height="39" viewBox="0 0 39 39" fill="none" xmlns="http://www.w3.org/2000/svg">
<path d="M19.5 39C30.2696 39 39 30.2696 39 19.5C39 8.73045 30.2696 0 19.5 0C8.73045 0 0 8.73045 0 19.5C0 30.2696 8.73045 39 19.5 39Z" fill="white"/>
<path d="M31.8734 32.3696C31.8563 32.3952 31.8482 32.4126 31.8311 32.4382C31.069 33.7475 29.1824 35.108 26.6425 36.1765C24.4057 37.1566 22.01 37.7068 19.5764 37.7993C18.1916 37.7723 16.8155 37.5696 15.4801 37.1959H15.472C14.4621 36.9286 13.4721 36.589 12.5093 36.1796C11.9002 35.9215 11.3163 35.6459 10.7828 35.3529C9.52721 34.7392 8.41824 33.8543 7.5331 32.7599C7.44237 32.6368 7.36028 32.5075 7.28746 32.3726C6.16196 30.3401 7.30458 28.6517 10.2583 27.9674C11.2122 27.7585 12.1859 27.6575 13.1616 27.6662C15.2108 27.5824 17.2532 27.9558 19.1455 28.7603C19.4223 28.8753 19.7324 28.8753 20.0093 28.7603C20.9618 28.3256 21.9708 28.0327 23.0052 27.8905C23.9968 27.7376 24.9984 27.6626 26.0012 27.6662C27.3081 27.638 28.6102 27.8362 29.8519 28.2522C30.3141 28.4116 30.7527 28.6346 31.1556 28.915C31.5237 29.163 31.8284 29.4966 32.0445 29.8883C32.2364 30.2797 32.3217 30.7163 32.2916 31.1527C32.2615 31.5891 32.1171 32.0093 31.8734 32.3696Z" fill="#DE0040"/>
<path d="M9.70769 26.6744C10.7083 26.4493 11.7302 26.3366 12.755 26.3384C14.916 26.2465 17.0686 26.6652 19.0439 27.5617C19.1874 27.6277 19.3436 27.6599 19.501 27.6559C19.6582 27.6581 19.814 27.6259 19.958 27.5617C20.954 27.0799 22.015 26.7519 23.106 26.5884C24.1469 26.4181 25.1997 26.3345 26.254 26.3384C27.6295 26.3109 28.999 26.5297 30.3 26.9849C30.8934 27.2094 31.4587 27.5044 31.9842 27.8639C32.4356 28.2078 32.8203 28.634 33.1188 29.1209C33.3468 29.5809 33.4676 30.0882 33.472 30.6034C33.4764 31.1186 33.3641 31.628 33.1439 32.0919C35.4884 29.4162 37.0228 26.1079 37.5624 22.5653C38.1019 19.0227 37.6236 15.3969 36.185 12.1245C34.7464 8.85213 32.4089 6.07276 29.454 4.12108C26.4991 2.16941 23.0528 1.12865 19.53 1.12416C16.0073 1.11967 12.5584 2.15162 9.59872 4.09575C6.639 6.03988 4.29466 8.81328 2.84802 12.082C1.40139 15.3507 0.914137 18.9752 1.44496 22.5192C1.97578 26.0632 3.50203 29.3754 5.83991 32.0571C4.72246 29.8104 6.39863 27.4151 9.70769 26.6744ZM19.5 10.6218C20.7218 10.6226 21.9159 10.9921 22.9314 11.6835C23.9469 12.3749 24.7381 13.3572 25.2051 14.5061C25.6721 15.6551 25.7938 16.9192 25.5549 18.1386C25.3159 19.3579 24.7271 20.4778 23.8628 21.3566C22.9985 22.2355 21.8976 22.8338 20.6992 23.0759C19.5007 23.3181 18.2587 23.1932 17.13 22.7171C16.0014 22.2409 15.0368 21.4349 14.3582 20.4009C13.6796 19.3669 13.3176 18.1514 13.3178 16.9081C13.3186 15.2402 13.9703 13.641 15.1297 12.4621C16.289 11.2832 17.8611 10.6213 19.5 10.6218Z" fill="#00703C"/>
<path d="M22.8271 13.9166C22.6902 13.7837 22.5083 13.7096 22.3192 13.7096C22.13 13.7096 21.9482 13.7837 21.8113 13.9166L18.5777 17.1949L17.1814 15.7606C17.0445 15.6278 16.8627 15.5537 16.6735 15.5537C16.4844 15.5537 16.3025 15.6278 16.1656 15.7606L15.5989 16.3374C15.4683 16.4767 15.3955 16.6618 15.3955 16.8543C15.3955 17.0468 15.4683 17.2318 15.5989 17.3711L18.0704 19.9118C18.2072 20.0447 18.3891 20.1188 18.5782 20.1188C18.7674 20.1188 18.9492 20.0447 19.0861 19.9118L19.6529 19.3351C19.6804 19.3054 19.706 19.2739 19.7294 19.2408L23.3938 15.5281C23.5244 15.3888 23.5972 15.2037 23.5972 15.0112C23.5972 14.8188 23.5244 14.6337 23.3938 14.4944L22.8271 13.9166Z" fill="#00703C"/>
</svg>
