<svg width="40" height="40" viewBox="0 0 40 40" fill="none" xmlns="http://www.w3.org/2000/svg">
<g clip-path="url(#clip0_703_2558)">
<path d="M20 39C30.4934 39 39 30.4934 39 20C39 9.50659 30.4934 1 20 1C9.50659 1 1 9.50659 1 20C1 30.4934 9.50659 39 20 39Z" fill="white"/>
<path d="M20 39C30.4934 39 39 30.4934 39 20C39 9.50659 30.4934 1 20 1C9.50659 1 1 9.50659 1 20C1 30.4934 9.50659 39 20 39Z" stroke="#9B9B9B" stroke-width="0.5"/>
<path d="M20.0278 33.9998C20.0278 33.9998 19.2917 32.823 19.0463 31.9488C18.808 31.0947 18.7659 28.7881 19.3267 27.6785C19.8876 26.5689 20.168 26.0646 20.869 25.3585C21.5701 24.6524 23.3227 23.5428 24.0588 22.5004C24.7949 21.4581 25.1805 20.4158 25.1805 20.4158L24.9351 20.483C24.9351 20.483 25.3557 19.3062 25.3207 18.3647C25.2856 17.4232 25.2506 16.8853 25.2506 16.8853C25.2506 16.8853 24.3743 18.7682 23.5681 19.4743C22.7619 20.1804 22.4464 20.483 21.535 20.8865C20.6237 21.29 19.2216 22.097 18.5205 22.9376C17.8195 23.7782 16.838 25.1904 16.6628 26.6698C16.4875 28.1493 16.7329 30.0995 17.2587 31.0409C17.7844 31.9824 18.3803 32.7557 18.801 33.1256C19.2216 33.4955 19.3968 33.63 19.5371 33.7308C19.6773 33.8317 20.0278 33.9998 20.0278 33.9998Z" fill="#4A2973"/>
<path d="M17.5737 31.579C17.5737 31.579 17.6298 29.1951 18.3449 27.7459C18.9092 26.6027 19.6488 25.7049 21.0439 24.9887C22.439 24.2692 23.9883 22.7695 24.3739 22.1307C24.7595 21.4918 25.1801 20.4159 25.1801 20.4159L24.9698 20.4495C24.9698 20.4495 25.3904 19.4408 25.3553 18.6338C25.3203 17.8268 25.2852 16.8181 25.2852 16.8181C25.2852 16.8181 24.6543 18.0622 24.1285 18.8019C23.6378 19.4912 22.3934 20.5369 20.9388 21.122C19.4315 21.7272 17.7139 23.4756 17.048 25.2241C16.4415 26.8145 16.2768 28.2771 16.7675 29.7969C17.2232 31.2091 17.5737 31.579 17.5737 31.579Z" fill="#6A4B97"/>
<path d="M20.9705 7C20.9705 7 21.7066 8.17684 21.9519 9.05106C22.1903 9.90511 22.2324 12.2117 21.6715 13.3213C21.1107 14.4309 20.8303 14.9352 20.1292 15.6413C19.4282 16.3474 17.6756 17.457 16.9395 18.4994C16.2034 19.5417 15.8178 20.5841 15.8178 20.5841L16.0632 20.5168C16.0632 20.5168 15.6425 21.6936 15.6776 22.6351C15.7126 23.5766 15.7477 24.1146 15.7477 24.1146C15.7477 24.1146 16.624 22.2316 17.4302 21.5255C18.2364 20.8194 18.5519 20.5168 19.4632 20.1133C20.3746 19.7098 21.7767 18.9029 22.4777 18.0623C23.1788 17.2217 24.1602 15.8095 24.3355 14.33C24.5108 12.8506 24.2654 10.9004 23.7396 9.9589C23.2138 9.01743 22.6179 8.24408 22.1973 7.87422C21.7767 7.50436 21.6014 7.36986 21.4612 7.26899C21.321 7.16812 20.9705 7 20.9705 7Z" fill="#073F2B"/>
<path d="M23.4239 9.42114C23.4239 9.42114 23.3678 11.8051 22.6528 13.2543C22.0884 14.3975 21.3488 15.2952 19.9538 16.0114C18.5587 16.731 17.0094 18.2306 16.6238 18.8695C16.2382 19.5083 15.8176 20.5843 15.8176 20.5843L16.0279 20.5507C16.0279 20.5507 15.6073 21.5594 15.6423 22.3663C15.6774 23.1733 15.7124 24.182 15.7124 24.182C15.7124 24.182 16.3434 22.938 16.8692 22.1982C17.3599 21.5089 18.6042 20.4632 20.0589 19.8782C21.5662 19.2729 23.2837 17.5245 23.9497 15.7761C24.5561 14.1857 24.7209 12.723 24.2301 11.2032C23.7745 9.79101 23.4239 9.42114 23.4239 9.42114Z" fill="#10543D"/>
<path d="M22.3653 25.9639C22.3653 25.9639 22.6878 26.4817 22.7965 26.8684C22.9016 27.2449 22.9192 28.2604 22.6738 28.7479C22.4284 29.2355 22.3022 29.4574 21.9938 29.7701C21.6853 30.0828 20.9142 30.5703 20.5882 31.0276C20.2622 31.4849 20.0939 31.9456 20.0939 31.9456L20.2026 31.9153C20.2026 31.9153 20.0168 32.4331 20.0344 32.8467C20.0484 33.2603 20.0659 33.499 20.0659 33.499C20.0659 33.499 20.4515 32.6685 20.8055 32.3591C21.1595 32.0498 21.2997 31.9153 21.6993 31.7371C22.0989 31.5589 22.7194 31.2025 23.0278 30.8326C23.3363 30.4627 23.7674 29.8407 23.8445 29.1884C23.9217 28.5361 23.813 27.6787 23.5816 27.2651C23.3503 26.8515 23.0874 26.5086 22.9016 26.3472C22.7159 26.1858 22.6387 26.1253 22.5791 26.0816C22.5196 26.0378 22.3653 25.9639 22.3653 25.9639Z" fill="#073F2B"/>
<path d="M23.4452 27.0295C23.4452 27.0295 23.4207 28.0786 23.1052 28.7175C22.8563 29.2218 22.5304 29.6152 21.9169 29.9313C21.3035 30.2473 20.62 30.9097 20.4518 31.1888C20.2835 31.4713 20.0977 31.9454 20.0977 31.9454L20.1889 31.9319C20.1889 31.9319 20.0031 32.3757 20.0206 32.7322C20.0381 33.0886 20.0522 33.5324 20.0522 33.5324C20.0522 33.5324 20.3291 32.9843 20.5604 32.6582C20.7777 32.3556 21.3246 31.8949 21.966 31.636C22.6285 31.3704 23.3856 30.6004 23.6801 29.8304C23.9465 29.131 24.0201 28.4855 23.8028 27.8163C23.5995 27.1909 23.4452 27.0295 23.4452 27.0295Z" fill="#10543D"/>
</g>
<defs>
<clipPath id="clip0_703_2558">
<rect width="40" height="40" fill="white"/>
</clipPath>
</defs>
</svg>
