<svg width="40" height="40" viewBox="0 0 40 40" fill="none" xmlns="http://www.w3.org/2000/svg">
<g clip-path="url(#clip0_703_2690)">
<path d="M20 39C30.4934 39 39 30.4934 39 20C39 9.50659 30.4934 1 20 1C9.50659 1 1 9.50659 1 20C1 30.4934 9.50659 39 20 39Z" fill="white"/>
<path d="M20 39C30.4934 39 39 30.4934 39 20C39 9.50659 30.4934 1 20 1C9.50659 1 1 9.50659 1 20C1 30.4934 9.50659 39 20 39Z" stroke="#9B9B9B" stroke-width="0.5"/>
<path d="M30.3231 17.6078C30.3231 17.6078 30.8742 12.49 26.1501 10.8366C21.426 9.18315 16.3083 12.9624 14.5761 16.5842C12.8439 20.206 13.8675 23.9853 16.9381 24.7727C18.9852 25.1663 21.0323 24.7727 22.8433 23.7491C22.8433 23.7491 19.6939 26.2686 16.5445 26.1899C13.3951 26.1112 9.30084 24.1428 11.1117 17.5291C12.9226 10.9153 24.2605 4.69526 29.457 12.9624C30.2443 14.3797 30.5593 16.0331 30.3231 17.6078Z" fill="#D12027"/>
<path d="M10.0886 20.6786C10.0886 20.6786 9.53743 25.7964 14.2615 27.4498C18.9856 29.1033 24.1034 25.324 25.8356 21.7022C27.5677 18.0804 26.5442 14.3011 23.4735 13.5138C21.4264 13.1201 19.3793 13.5138 17.5684 14.5373C17.5684 14.5373 20.7178 12.0178 23.8672 12.0965C27.0166 12.1753 31.1108 14.1436 29.2999 20.7574C27.489 27.3711 15.9937 33.6699 10.7972 25.4027C10.0886 23.9068 9.85237 22.2533 10.0886 20.6786Z" fill="#00703C"/>
<path d="M27.3315 29.2604L27.0166 28.9454L28.67 27.292L28.985 27.6069C29.2999 27.9219 29.2999 28.3943 28.985 28.6305L28.3551 29.2604C28.0402 29.4966 27.5677 29.4966 27.3315 29.2604Z" fill="#D12027"/>
<mask id="mask0_703_2690" style="mask-type:luminance" maskUnits="userSpaceOnUse" x="22" y="23" width="8" height="8">
<path d="M24.5477 23.0579C24.5477 23.0579 24.154 23.5303 23.7604 24.0027C23.4454 24.3176 23.1305 24.6326 22.7368 24.9475L28.0121 30.0653L29.9017 28.2544L24.5477 23.0579Z" fill="white"/>
</mask>
<g mask="url(#mask0_703_2690)">
<path d="M22.8154 24.7113L23.6815 23.8452L24.4689 23.0579L28.4843 27.0733L26.8309 28.7268L22.8154 24.7113Z" fill="#D12027"/>
</g>
<mask id="mask1_703_2690" style="mask-type:luminance" maskUnits="userSpaceOnUse" x="21" y="21" width="4" height="4">
<path d="M24.2504 22.4327C24.3292 22.5114 23.9355 23.1413 23.3843 23.6924C22.8332 24.2436 22.2033 24.716 22.1246 24.5585C22.0458 24.4011 21.1798 22.5114 21.8096 21.8815C22.4395 21.2517 24.1717 22.354 24.2504 22.4327Z" fill="white"/>
</mask>
<g mask="url(#mask1_703_2690)">
<path d="M24.172 22.9053L22.676 24.4012L21.8887 22.1179L24.172 22.9053Z" fill="#D12027"/>
</g>
</g>
<defs>
<clipPath id="clip0_703_2690">
<rect width="40" height="40" fill="white"/>
</clipPath>
</defs>
</svg>
