<svg width="40" height="40" viewBox="0 0 40 40" fill="none" xmlns="http://www.w3.org/2000/svg">
<g clip-path="url(#clip0_703_2514)">
<path d="M20 39C30.4934 39 39 30.4934 39 20C39 9.50659 30.4934 1 20 1C9.50659 1 1 9.50659 1 20C1 30.4934 9.50659 39 20 39Z" fill="white"/>
<path d="M20 39C30.4934 39 39 30.4934 39 20C39 9.50659 30.4934 1 20 1C9.50659 1 1 9.50659 1 20C1 30.4934 9.50659 39 20 39Z" stroke="#9B9B9B" stroke-width="0.5"/>
<path d="M19.106 22.1013L21.1186 14.2065H23.3628L21.5824 21.1721L26.8456 28.3701L24.833 29.9953L19.106 22.1013Z" fill="#0E83C4"/>
<mask id="mask0_703_2514" style="mask-type:luminance" maskUnits="userSpaceOnUse" x="8" y="9" width="25" height="22">
<path d="M19.9965 25.3912L23.8667 30.6544H8V9H32.3466V30.6544L30.0197 30.693L23.9825 22.4887L19.9965 25.3912Z" fill="white"/>
</mask>
<g mask="url(#mask0_703_2514)">
<path d="M29.5236 13.2214C26.7519 9.2244 20.2091 8.96295 14.9089 12.6379C9.60869 16.3128 7.559 22.532 10.33 26.529C13.1009 30.526 19.6445 30.7874 24.9447 27.1125C30.2449 23.4375 32.2946 17.2184 29.5236 13.2214ZM23.5061 25.0029C19.698 27.5786 15.0427 27.3487 13.1072 24.4888C11.1717 21.6288 12.6915 17.2216 16.4995 14.6459C20.3075 12.0702 24.9628 12.3001 26.8983 15.16C28.8338 18.02 27.3141 22.4272 23.5061 25.0029Z" fill="url(#paint0_linear_703_2514)"/>
</g>
</g>
<defs>
<linearGradient id="paint0_linear_703_2514" x1="9.09521" y1="19.8752" x2="30.7584" y2="19.8752" gradientUnits="userSpaceOnUse">
<stop stop-color="#109BF8"/>
<stop offset="1" stop-color="#0E83C4"/>
</linearGradient>
<clipPath id="clip0_703_2514">
<rect width="40" height="40" fill="white"/>
</clipPath>
</defs>
</svg>
