<svg width="40" height="40" viewBox="0 0 40 40" fill="none" xmlns="http://www.w3.org/2000/svg">
<g clip-path="url(#clip0_703_2528)">
<path d="M20 39C30.4934 39 39 30.4934 39 20C39 9.50659 30.4934 1 20 1C9.50659 1 1 9.50659 1 20C1 30.4934 9.50659 39 20 39Z" fill="white"/>
<path d="M20 39C30.4934 39 39 30.4934 39 20C39 9.50659 30.4934 1 20 1C9.50659 1 1 9.50659 1 20C1 30.4934 9.50659 39 20 39Z" stroke="#9B9B9B" stroke-width="0.5"/>
<path d="M30.1175 15.426L20.9928 19.25C20.9207 19.2861 20.8711 19.3672 20.8711 19.4574V21.9782H22.9889C23.3269 21.9782 23.5972 22.2894 23.5972 22.6727V27.7909C23.5972 28.1742 23.3224 28.4854 22.9889 28.4854H20.8711V31.2497C20.8711 31.4075 21.0108 31.5203 21.1415 31.4571L29.9913 27.9758C30.2301 27.8676 30.3923 27.6015 30.3923 27.3039V15.6334C30.3923 15.4711 30.2481 15.3628 30.1175 15.426Z" fill="#00703C"/>
<path d="M17.811 27.5878H19.8478V25.5496H17.811V27.5878ZM18.4464 26.253H19.1493V26.9565H18.4464V26.253Z" fill="#D12027"/>
<path d="M17.811 24.9138H19.8478V22.8755H17.811V24.9138ZM18.4464 23.5068H19.1493V24.2103H18.4464V23.5068Z" fill="#D12027"/>
<path d="M20.4834 27.5878H21.1863V26.5326H21.4657V26.8844H22.5201V25.5496H22.1687V25.9013H21.4657V25.5496H20.4834V27.5878Z" fill="#D12027"/>
<path d="M22.5201 22.8755H20.4834V24.9138H22.5201V22.8755ZM21.1863 24.2103V23.5068H21.8893V24.2103H21.1863Z" fill="#D12027"/>
<path d="M24.8223 11.0969L20.4785 9.06764C20.2847 8.97745 20.0639 8.97745 19.8702 9.06764L10.1056 13.6493C9.92986 13.7304 9.93437 13.9875 10.1146 14.0596L14.5395 15.9446L24.8223 11.0969Z" fill="#00703C"/>
<path d="M30.194 13.6491L25.5934 11.4575L15.3467 16.2826L20.0825 18.2803C20.1366 18.3029 20.1997 18.3029 20.2582 18.2803L30.1895 14.0595C30.3698 13.9828 30.3743 13.7303 30.194 13.6491Z" fill="#00703C"/>
<path d="M14.3056 17.2159L10.1826 15.4663C10.0519 15.4031 9.90771 15.5113 9.90771 15.6737V27.3487C9.90771 27.6418 10.0654 27.9079 10.3088 28.0206L19.1586 31.5515C19.2893 31.6101 19.4289 31.5019 19.4289 31.3441V28.5347H17.248C16.9101 28.5347 16.6397 28.2235 16.6397 27.8402V22.7175C16.6397 22.3342 16.9146 22.023 17.248 22.023H19.4289V19.5473C19.4289 19.4571 19.3794 19.376 19.3073 19.3399L15.1212 17.5632" fill="#00703C"/>
<path d="M14.5352 15.9401L14.5397 15.8364L16.2249 15.9041L16.2204 16.0078L14.5352 15.9401Z" fill="#00703C"/>
<path d="M17.1063 14.6085L16.0884 15.9526L16.171 16.0153L17.1889 14.6711L17.1063 14.6085Z" fill="#00703C"/>
<path d="M19.6522 13.4078L18.6343 14.752L18.7169 14.8146L19.7348 13.4704L19.6522 13.4078Z" fill="#00703C"/>
<path d="M22.2034 12.2127L21.1855 13.5569L21.2681 13.6195L22.286 12.2754L22.2034 12.2127Z" fill="#00703C"/>
<path d="M23.7368 12.3598L23.8179 12.423L24.8228 11.0972H24.6966L23.7368 12.3598Z" fill="#00703C"/>
<path d="M17.1032 14.6317L17.0986 14.7354L18.7822 14.8104L18.7868 14.7067L17.1032 14.6317Z" fill="#00703C"/>
<path d="M19.6438 13.4293L19.6392 13.533L21.3227 13.608L21.3273 13.5044L19.6438 13.4293Z" fill="#00703C"/>
<path d="M22.1975 12.2333L22.1929 12.3369L23.8764 12.4119L23.881 12.3083L22.1975 12.2333Z" fill="#00703C"/>
</g>
<defs>
<clipPath id="clip0_703_2528">
<rect width="40" height="40" fill="white"/>
</clipPath>
</defs>
</svg>
