<svg width="40" height="40" viewBox="0 0 40 40" fill="none" xmlns="http://www.w3.org/2000/svg">
<g clip-path="url(#clip0_703_2449)">
<path d="M20 39C30.4934 39 39 30.4934 39 20C39 9.50659 30.4934 1 20 1C9.50659 1 1 9.50659 1 20C1 30.4934 9.50659 39 20 39Z" fill="white"/>
<path d="M20 39C30.4934 39 39 30.4934 39 20C39 9.50659 30.4934 1 20 1C9.50659 1 1 9.50659 1 20C1 30.4934 9.50659 39 20 39Z" stroke="#9B9B9B" stroke-width="0.5"/>
<path d="M10 26.9436L16.1155 25.3323V19.2168L10 20.8464V26.9436Z" fill="#00703C"/>
<path d="M16.7012 28.5732L22.8167 26.9436V20.8464L16.7012 22.4577V28.5732Z" fill="#00703C"/>
<path d="M23.4028 30.1113L29.5 28.5V22.3845L23.4028 24.0141V30.1113Z" fill="#00703C"/>
<path d="M23.4028 23.4099L29.5 21.7986V15.6831L23.4028 17.3127V23.4099Z" fill="#00703C"/>
<path d="M23.4028 10.6113V16.7268L29.5 15.0972V9L23.4028 10.6113Z" fill="#00703C"/>
<path d="M16.7012 21.8718L22.8167 20.2605V14.145L16.7012 15.7563V21.8718Z" fill="#00703C"/>
</g>
<defs>
<clipPath id="clip0_703_2449">
<rect width="40" height="40" fill="white"/>
</clipPath>
</defs>
</svg>
