<svg width="40" height="40" viewBox="0 0 40 40" fill="none" xmlns="http://www.w3.org/2000/svg">
<g clip-path="url(#clip0_703_2642)">
<path d="M20 39C30.4934 39 39 30.4934 39 20C39 9.50659 30.4934 1 20 1C9.50659 1 1 9.50659 1 20C1 30.4934 9.50659 39 20 39Z" fill="white"/>
<path d="M20 39C30.4934 39 39 30.4934 39 20C39 9.50659 30.4934 1 20 1C9.50659 1 1 9.50659 1 20C1 30.4934 9.50659 39 20 39Z" stroke="#9B9B9B" stroke-width="0.5"/>
<path d="M27.3768 10H16.9191C15.8183 10 14.8748 10.9435 14.8748 12.0444V14.875H17.3123V12.4375H27.0623V22.1875H24.6248V24.625H27.4554C28.5562 24.625 29.4998 23.6815 29.4998 22.5806V12.0444C29.4998 10.9435 28.5562 10 27.3768 10Z" fill="#098850"/>
<path d="M22.1875 24.6248V26.9836H12.4375V17.3123H14.875V14.8748H12.0444C10.9435 14.8748 10 15.8183 10 16.9191V27.3768C10 28.4776 10.9435 29.4211 12.0444 29.4211H22.502C23.6028 29.4211 24.5464 28.4776 24.5464 27.3768V24.5461H22.1875V24.6248Z" fill="#D12027"/>
</g>
<defs>
<clipPath id="clip0_703_2642">
<rect width="40" height="40" fill="white"/>
</clipPath>
</defs>
</svg>
