<svg width="40" height="40" viewBox="0 0 40 40" fill="none" xmlns="http://www.w3.org/2000/svg">
<g clip-path="url(#clip0_703_2458)">
<path d="M20 39C30.4934 39 39 30.4934 39 20C39 9.50659 30.4934 1 20 1C9.50659 1 1 9.50659 1 20C1 30.4934 9.50659 39 20 39Z" fill="white"/>
<path d="M20 39C30.4934 39 39 30.4934 39 20C39 9.50659 30.4934 1 20 1C9.50659 1 1 9.50659 1 20C1 30.4934 9.50659 39 20 39Z" stroke="#9B9B9B" stroke-width="0.5"/>
<path d="M29.2534 10.363C29.0278 10.1595 28.7388 10.0405 28.4354 10.026C27.8942 9.97298 27.3508 10.1029 26.8921 10.395C26.0343 10.9338 25.1085 11.3559 24.1391 11.6502C22.71 12.0668 21.2369 12.3142 19.7501 12.3873C18.2641 12.3075 16.7917 12.0603 15.3612 11.6502C14.3936 11.3512 13.4684 10.9293 12.6082 10.395C12.1451 10.1133 11.6052 9.98428 11.0648 10.026C10.7615 10.0405 10.4724 10.1595 10.2469 10.363C9.72878 10.9274 10.0742 12.0478 10.8366 12.5532C12.0607 13.3411 13.3911 13.9501 14.7875 14.3619C16.4179 14.7135 18.0747 14.9293 19.7409 15.0072C21.407 14.9293 23.0638 14.7135 24.6943 14.3619C26.0851 13.9355 27.4135 13.3273 28.6452 12.5532C29.4261 12.0478 29.7723 10.9392 29.2534 10.363Z" fill="#00703C"/>
<path d="M29.2534 29.1615C29.0278 29.3649 28.7388 29.484 28.4354 29.4985C27.8942 29.5515 27.3508 29.4216 26.8921 29.1295C26.0343 28.5907 25.1085 28.1686 24.1391 27.8743C22.71 27.4577 21.2369 27.2103 19.7501 27.1372C18.2641 27.217 16.7917 27.4642 15.3612 27.8743C14.3936 28.1733 13.4684 28.5952 12.6082 29.1295C12.145 29.4111 11.6052 29.5402 11.0648 29.4985C10.7615 29.484 10.4724 29.3649 10.2469 29.1615C9.72878 28.5971 10.0742 27.4767 10.8366 26.9713C12.0624 26.1838 13.3922 25.5713 14.7875 25.1516C16.4179 24.8001 18.0747 24.5843 19.7409 24.5063C21.407 24.5843 23.0638 24.8001 24.6943 25.1516C26.0877 25.5761 27.4169 26.1883 28.6452 26.9713C29.4261 27.4801 29.7723 28.5853 29.2534 29.1615Z" fill="#00703C"/>
<path d="M10.3632 10.2711C10.1598 10.4967 10.0407 10.7857 10.0262 11.0891C9.97323 11.6303 10.1031 12.1737 10.3952 12.6324C10.934 13.4902 11.3561 14.416 11.6504 15.3854C12.067 16.8145 12.3144 18.2876 12.3875 19.7744C12.3078 21.2604 12.0605 22.7328 11.6504 24.1633C11.3514 25.1309 10.9296 26.0561 10.3952 26.9164C10.1136 27.3794 9.98453 27.9193 10.0262 28.4597C10.0407 28.7631 10.1598 29.0521 10.3632 29.2776C10.9276 29.7957 12.048 29.4503 12.5535 28.688C13.3409 27.4621 13.9534 26.1323 14.3731 24.737C14.7246 23.1066 14.9405 21.4498 15.0184 19.7836C14.9405 18.1175 14.7246 16.4607 14.3731 14.8302C13.9525 13.429 13.3401 12.0926 12.5535 10.8591C12.048 10.0984 10.9276 9.75301 10.3632 10.2711Z" fill="#00703C"/>
<path d="M10.8465 26.9731C10.6178 27.1286 10.4254 27.3317 10.2823 27.5684C10.1393 27.805 10.049 28.0698 10.0176 28.3446V28.4482C10.0255 28.7262 10.127 28.9933 10.3057 29.2064C10.5241 29.3757 10.7881 29.476 11.0639 29.4945H11.1675C11.4421 29.463 11.7067 29.3726 11.9432 29.2296C12.1798 29.0865 12.3827 28.8941 12.5381 28.6655C13.1985 27.6336 13.7357 26.5279 14.1387 25.3708C12.9835 25.777 11.8788 26.3146 10.8465 26.9731Z" fill="#91EEC5"/>
<path d="M12.54 10.8585C12.3846 10.6299 12.1817 10.4375 11.9452 10.2945C11.7087 10.1514 11.4441 10.061 11.1694 10.0295H11.0658C10.7878 10.0374 10.5207 10.1389 10.3076 10.3176C10.1383 10.5361 10.038 10.8001 10.0195 11.0758V11.1794C10.051 11.4541 10.1414 11.7187 10.2845 11.9552C10.4275 12.1917 10.6199 12.3946 10.8485 12.55C11.8808 13.213 12.9875 13.7525 14.1457 14.1574C13.739 12.9997 13.2002 11.8928 12.54 10.8585Z" fill="#91EEC5"/>
<path d="M29.1498 29.2534C29.3532 29.0278 29.4723 28.7388 29.4868 28.4354C29.5398 27.8942 29.4099 27.3508 29.1178 26.8921C28.579 26.0343 28.1569 25.1085 27.8626 24.1391C27.446 22.71 27.1986 21.2369 27.1255 19.7501C27.2052 18.2641 27.4525 16.7917 27.8626 15.3612C28.1616 14.3936 28.5834 13.4684 29.1178 12.6081C29.3994 12.145 29.5284 11.6052 29.4868 11.0648C29.4723 10.7614 29.3532 10.4724 29.1498 10.2469C28.5854 9.72878 27.465 10.0742 26.9595 10.8366C26.1721 12.0624 25.5596 13.3922 25.1399 14.7875C24.7884 16.4179 24.5725 18.0747 24.4946 19.7409C24.5725 21.407 24.7884 23.0638 25.1399 24.6943C25.5644 26.0877 26.1765 27.4169 26.9595 28.6452C27.4793 29.4261 28.5854 29.7723 29.1498 29.2534Z" fill="#00703C"/>
<path d="M29.4996 28.4481V28.3445C29.4681 28.0699 29.3777 27.8053 29.2347 27.5687C29.0916 27.3322 28.8993 27.1293 28.6707 26.9739C27.6388 26.3134 26.533 25.7762 25.376 25.3733C25.7813 26.5293 26.3184 27.6348 26.9766 28.668C27.132 28.8966 27.3349 29.0889 27.5714 29.232C27.808 29.375 28.0726 29.4654 28.3472 29.4969H28.4508C28.7288 29.489 28.9959 29.3875 29.209 29.2088C29.3778 28.9889 29.4788 28.7245 29.4996 28.4481Z" fill="#91EEC5"/>
<path d="M28.6662 12.5518C28.8948 12.3963 29.0871 12.1934 29.2302 11.9569C29.3733 11.7204 29.4636 11.4558 29.4951 11.1811V11.0775C29.4872 10.7996 29.3857 10.5324 29.207 10.3194C28.9886 10.15 28.7246 10.0497 28.4488 10.0312H28.3452C28.0706 10.0628 27.806 10.1531 27.5695 10.2962C27.3329 10.4392 27.13 10.6316 26.9746 10.8602C26.3142 11.8921 25.777 12.9979 25.374 14.1549C26.5313 13.7534 27.6365 13.2152 28.6662 12.5518Z" fill="#91EEC5"/>
</g>
<defs>
<clipPath id="clip0_703_2458">
<rect width="40" height="40" fill="white"/>
</clipPath>
</defs>
</svg>
