<svg xmlns="http://www.w3.org/2000/svg" width="17.5" height="20" viewBox="0 0 17.5 20">
  <g id="bell" transform="translate(0.011 -3.32)">
    <path id="Path_16348" data-name="Path 16348" d="M16.6-4.57a2.763,2.763,0,0,1,.9,1.992,2.48,2.48,0,0,1-.762,1.816A2.525,2.525,0,0,1,14.883,0H11.25a2.416,2.416,0,0,1-.723,1.777A2.416,2.416,0,0,1,8.75,2.5a2.416,2.416,0,0,1-1.777-.723A2.416,2.416,0,0,1,6.25,0H2.617A2.525,2.525,0,0,1,.762-.762,2.48,2.48,0,0,1,0-2.578,2.763,2.763,0,0,1,.9-4.57a4.479,4.479,0,0,0,.625-.742,3.821,3.821,0,0,0,.508-1.328,12.875,12.875,0,0,0,.2-2.461,6.371,6.371,0,0,1,.723-2.988,6.611,6.611,0,0,1,1.973-2.3,6.244,6.244,0,0,1,2.813-1.152,1.143,1.143,0,0,1-.234-.7,1.2,1.2,0,0,1,.371-.879A1.2,1.2,0,0,1,8.75-17.5a1.2,1.2,0,0,1,.879.371A1.2,1.2,0,0,1,10-16.25a1.143,1.143,0,0,1-.234.7,6.244,6.244,0,0,1,2.813,1.152,6.611,6.611,0,0,1,1.973,2.3A6.371,6.371,0,0,1,15.273-9.1a12.875,12.875,0,0,0,.2,2.461,3.821,3.821,0,0,0,.508,1.328A4.479,4.479,0,0,0,16.6-4.57ZM8.75.938A.9.9,0,0,0,9.414.664.9.9,0,0,0,9.688,0H7.813a.9.9,0,0,0,.273.664A.9.9,0,0,0,8.75.938Zm6.133-2.812a.669.669,0,0,0,.684-.449.694.694,0,0,0-.176-.8,10.843,10.843,0,0,1-1.016-1.211,5.644,5.644,0,0,1-.7-1.758A13.939,13.939,0,0,1,13.4-9.1a4.542,4.542,0,0,0-.625-2.324,4.624,4.624,0,0,0-1.7-1.7A4.542,4.542,0,0,0,8.75-13.75a4.542,4.542,0,0,0-2.324.625,4.624,4.624,0,0,0-1.7,1.7A4.542,4.542,0,0,0,4.1-9.1a13.39,13.39,0,0,1-.273,2.969,5.631,5.631,0,0,1-.7,1.8A10.843,10.843,0,0,1,2.109-3.125a.694.694,0,0,0-.176.8.669.669,0,0,0,.684.449Z" transform="translate(-0.011 20.82)" fill="#010101"/>
  </g>
</svg>
