<svg width="30" height="30" viewBox="0 0 30 30" fill="none" xmlns="http://www.w3.org/2000/svg">
<mask id="mask0_553_36" style="mask-type:alpha" maskUnits="userSpaceOnUse" x="0" y="0" width="30" height="30">
<path d="M0 0H30V30H0V0Z" fill="#D9D9D9"/>
</mask>
<g mask="url(#mask0_553_36)">
<path d="M11.25 23.75C10.8333 23.75 10.4427 23.6562 10.0781 23.4688C9.71354 23.2812 9.41667 23.0208 9.1875 22.6875L3.75 15L9.1875 7.3125C9.41667 6.97917 9.71354 6.71875 10.0781 6.53125C10.4427 6.34375 10.8333 6.25 11.25 6.25H23.75C24.4375 6.25 25.026 6.49479 25.5156 6.98438C26.0052 7.47396 26.25 8.0625 26.25 8.75V21.25C26.25 21.9375 26.0052 22.526 25.5156 23.0156C25.026 23.5052 24.4375 23.75 23.75 23.75H11.25ZM11.25 21.25H23.75V8.75H11.25L6.8125 15L11.25 21.25ZM14.25 20L17.5 16.75L20.75 20L22.5 18.25L19.25 15L22.5 11.75L20.75 10L17.5 13.25L14.25 10L12.5 11.75L15.75 15L12.5 18.25L14.25 20Z" fill="#5F7D95"/>
</g>
</svg>
