<svg width="18" height="20" viewBox="0 0 18 20" fill="none" xmlns="http://www.w3.org/2000/svg">
<path d="M16.6002 12.9301C16.8778 13.1834 17.1008 13.4908 17.2555 13.8333C17.4103 14.1758 17.4935 14.5463 17.5002 14.9221C17.5039 15.2607 17.4382 15.5966 17.3071 15.9089C17.1761 16.2213 16.9824 16.5034 16.7382 16.7381C16.4974 16.985 16.2086 17.1801 15.8895 17.3111C15.5705 17.4422 15.228 17.5065 14.8832 17.5001H11.2502C11.2574 17.8299 11.1969 18.1578 11.0726 18.4634C10.9482 18.769 10.7626 19.0459 10.5272 19.2771C10.296 19.5125 10.0191 19.6981 9.71349 19.8225C9.40787 19.9468 9.08002 20.0073 8.75015 20.0001C8.42028 20.0073 8.09243 19.9468 7.78681 19.8225C7.48119 19.6981 7.20428 19.5125 6.97315 19.2771C6.73768 19.0459 6.55206 18.769 6.42771 18.4634C6.30336 18.1578 6.24294 17.8299 6.25015 17.5001H2.61715C2.2723 17.5065 1.9298 17.4422 1.61076 17.3111C1.29172 17.1801 1.00291 16.985 0.76215 16.7381C0.517858 16.5034 0.324215 16.2213 0.193161 15.9089C0.0621067 15.5966 -0.00358018 15.2607 0.000150447 14.9221C0.00679344 14.5463 0.090036 14.1758 0.244785 13.8333C0.399535 13.4908 0.622537 13.1834 0.90015 12.9301C1.13473 12.7061 1.3443 12.4573 1.52515 12.1881C1.77608 11.7811 1.9484 11.3306 2.03315 10.8601C2.1785 10.048 2.24548 9.2239 2.23315 8.39905C2.22663 7.35897 2.47486 6.3331 2.95615 5.41105C3.42687 4.50197 4.10228 3.71462 4.92915 3.11105C5.7576 2.50119 6.7239 2.10546 7.74215 1.95905C7.58889 1.75802 7.5066 1.51184 7.50815 1.25905C7.5066 1.09496 7.53873 0.932286 7.60254 0.781098C7.66635 0.629909 7.76049 0.493414 7.87915 0.380053C7.99081 0.260747 8.12566 0.165504 8.27543 0.100161C8.42521 0.0348178 8.58675 0.000753183 8.75015 5.35122e-05C8.91425 -0.00149618 9.07692 0.0306282 9.22811 0.0944406C9.3793 0.158253 9.51579 0.252397 9.62915 0.371054C9.74781 0.484415 9.84195 0.620908 9.90576 0.772097C9.96958 0.923286 10.0017 1.08596 10.0002 1.25005C10.0017 1.50284 9.91941 1.74902 9.76615 1.95005C10.7844 2.09646 11.7507 2.49219 12.5792 3.10205C13.406 3.70562 14.0814 4.49297 14.5522 5.40205C15.0343 6.32728 15.2819 7.35676 15.2732 8.40005C15.2608 9.2249 15.3278 10.049 15.4732 10.8611C15.5579 11.3316 15.7302 11.7821 15.9812 12.1891C16.1602 12.4576 16.3677 12.7061 16.6002 12.9301ZM8.75015 18.4381C8.87371 18.4404 8.99643 18.4173 9.11067 18.3702C9.22491 18.323 9.32821 18.2529 9.41415 18.1641C9.50296 18.0781 9.57313 17.9748 9.62027 17.8606C9.66741 17.7463 9.69051 17.6236 9.68815 17.5001H7.81315C7.81066 17.6235 7.83361 17.7462 7.88058 17.8605C7.92754 17.9747 7.99752 18.078 8.08615 18.1641C8.17209 18.2529 8.27539 18.323 8.38963 18.3702C8.50387 18.4173 8.62659 18.4404 8.75015 18.4381ZM14.8832 15.6261C15.0308 15.6375 15.178 15.5996 15.3018 15.5183C15.4256 15.4371 15.5189 15.317 15.5672 15.1771C15.6265 15.0423 15.6414 14.8921 15.6098 14.7483C15.5781 14.6045 15.5016 14.4745 15.3912 14.3771C15.0235 13.9986 14.6839 13.5939 14.3752 13.1661C14.0445 12.6236 13.8079 12.0293 13.6752 11.4081C13.4748 10.4183 13.3826 9.40972 13.4002 8.40005C13.4046 7.58328 13.1887 6.78043 12.7752 6.07605C12.3683 5.36941 11.7818 4.78292 11.0752 4.37605C10.3706 3.96203 9.56735 3.74576 8.75015 3.75005C7.93338 3.74564 7.13053 3.96155 6.42615 4.37505C5.71951 4.78192 5.13301 5.36841 4.72615 6.07505C4.31212 6.77962 4.09586 7.58285 4.10015 8.40005C4.11996 9.3968 4.02839 10.3926 3.82715 11.3691C3.69922 12.0049 3.4624 12.6138 3.12715 13.1691C2.81756 13.5952 2.47733 13.9983 2.10915 14.3751C1.99874 14.4725 1.92217 14.6025 1.89053 14.7463C1.8589 14.8901 1.87382 15.0403 1.93315 15.1751C1.9814 15.315 2.07473 15.4351 2.19851 15.5163C2.32229 15.5976 2.46952 15.6355 2.61715 15.6241L14.8832 15.6261Z" fill="#0E223D"/>
</svg>
