<svg width="18" height="17" viewBox="0 0 18 17" fill="none" xmlns="http://www.w3.org/2000/svg">
<g clip-path="url(#clip0_1069_115)">
<path fill-rule="evenodd" clip-rule="evenodd" d="M8.91862 1.54477C8.72095 1.54477 8.5277 1.6033 8.36324 1.71297L2.23545 5.79483C2.09841 5.88629 1.98606 6.01017 1.90837 6.15547C1.8966 6.17747 1.88569 6.19986 1.87564 6.2226L7.36512 9.88194C7.38114 9.89262 7.39662 9.90381 7.41155 9.91548L8.36042 10.5465C8.52488 10.6562 8.71895 10.7152 8.91662 10.7152C9.11429 10.7152 9.30754 10.6567 9.472 10.547L15.9606 6.22328C15.9508 6.20134 15.9402 6.17972 15.9289 6.15847C15.8512 6.01317 15.7388 5.8893 15.6018 5.79784C15.6018 5.79784 15.6018 5.79785 15.6018 5.79784L9.47412 1.71305C9.30966 1.60337 9.11629 1.54477 8.91862 1.54477ZM17.5468 6.59069C17.5479 6.55625 17.5467 6.52165 17.543 6.48716C17.5223 6.12537 17.4231 5.7718 17.2517 5.45122C17.0576 5.08819 16.7769 4.77868 16.4345 4.55016L10.3062 0.465021C9.89534 0.190999 9.41251 0.0447693 8.91862 0.0447693C8.42486 0.0447693 7.94216 0.190921 7.53133 0.464802C7.53144 0.464728 7.53122 0.464875 7.53133 0.464802L1.40333 4.5468C1.06092 4.77532 0.779668 5.08519 0.58557 5.44822C0.413135 5.77073 0.313793 6.12663 0.293859 6.49069C0.290515 6.52368 0.289378 6.55676 0.290403 6.5897C0.290211 6.60246 0.290116 6.61523 0.290119 6.628C0.290119 6.62792 0.290119 6.62808 0.290119 6.628V14.446C0.290119 14.7744 0.354809 15.0997 0.480496 15.4031C0.606184 15.7065 0.790407 15.9822 1.02264 16.2145C1.25488 16.4467 1.53059 16.6309 1.83403 16.7566C2.13746 16.8823 2.46268 16.947 2.79112 16.947H15.0461C15.3746 16.947 15.6998 16.8823 16.0032 16.7566C16.3066 16.6309 16.5824 16.4467 16.8146 16.2145C17.0468 15.9822 17.2311 15.7065 17.3567 15.4031C17.4822 15.1003 17.5469 14.7758 17.5471 14.448C17.5471 14.4473 17.5471 14.4467 17.5471 14.446V6.63124M16.0471 13.0447V7.96832L12.2395 10.5065L16.0471 13.0447ZM10.8869 11.4075L15.9811 14.8034C15.9778 14.812 15.9744 14.8206 15.9709 14.8291C15.9206 14.9505 15.8469 15.0609 15.7539 15.1538C15.661 15.2468 15.5506 15.3205 15.4292 15.3708C15.3077 15.4211 15.1776 15.447 15.0461 15.447H2.79112C2.65967 15.447 2.5295 15.4211 2.40805 15.3708C2.28661 15.3205 2.17626 15.2468 2.0833 15.1538C1.99035 15.0609 1.91662 14.9505 1.86632 14.8291C1.86279 14.8206 1.85939 14.812 1.8561 14.8034L6.94838 11.4089L7.529 11.795C7.52892 11.7949 7.52907 11.795 7.529 11.795C7.93985 12.0689 8.42282 12.2152 8.91662 12.2152C9.41042 12.2152 9.89316 12.069 10.304 11.7951C10.3039 11.7952 10.3041 11.7951 10.304 11.7951L10.8869 11.4075ZM5.59771 10.5065L1.79012 7.96832V13.0447L5.59771 10.5065ZM17.5471 6.63124C17.5471 6.61779 17.547 6.60412 17.5468 6.59069Z" fill="#00703C"/>
</g>
<defs>
<clipPath id="clip0_1069_115">
<rect width="17.837" height="16.946" fill="white"/>
</clipPath>
</defs>
</svg>
