<svg width="24" height="24" viewBox="0 0 24 24" fill="none" xmlns="http://www.w3.org/2000/svg">
<path d="M20.0227 15.2226C20.3241 15.5013 20.5662 15.8394 20.7342 16.2161C20.9022 16.5929 20.9926 17.0004 20.9998 17.4137C21.0039 17.7863 20.9326 18.1557 20.7903 18.4993C20.648 18.8428 20.4378 19.1532 20.1725 19.4113C19.9111 19.6829 19.5976 19.8975 19.2512 20.0416C18.9048 20.1858 18.533 20.2565 18.1586 20.2495H14.2142C14.2221 20.6123 14.1565 20.9729 14.0215 21.3091C13.8865 21.6453 13.6849 21.9499 13.4293 22.2041C13.1783 22.4631 12.8777 22.6673 12.5459 22.8041C12.2141 22.9408 11.8581 23.0073 11.5 22.9994C11.1419 23.0073 10.7859 22.9408 10.4541 22.8041C10.1223 22.6673 9.82166 22.4631 9.57072 22.2041C9.31507 21.9499 9.11354 21.6453 8.97854 21.3091C8.84353 20.9729 8.77793 20.6123 8.78576 20.2495H4.84143C4.46703 20.2565 4.09517 20.1858 3.74879 20.0416C3.40241 19.8975 3.08886 19.6829 2.82746 19.4113C2.56224 19.1532 2.352 18.8428 2.20971 18.4993C2.06743 18.1557 1.99611 17.7863 2.00016 17.4137C2.00738 17.0004 2.09775 16.5929 2.26576 16.2161C2.43377 15.8394 2.67589 15.5013 2.97729 15.2226C3.23198 14.9762 3.4595 14.7026 3.65585 14.4064C3.92828 13.9588 4.11536 13.4633 4.20738 12.9457C4.36519 12.0525 4.43791 11.146 4.42452 10.2387C4.41745 9.09461 4.68694 7.9662 5.20948 6.95197C5.72053 5.95201 6.45382 5.08595 7.35156 4.42205C8.251 3.75122 9.30011 3.31594 10.4056 3.15489C10.2392 2.93376 10.1499 2.66298 10.1516 2.38492C10.1499 2.20442 10.1848 2.02548 10.254 1.85918C10.3233 1.69288 10.4255 1.54274 10.5544 1.41804C10.6756 1.28681 10.822 1.18205 10.9846 1.11017C11.1472 1.0383 11.3226 1.00083 11.5 1.00006C11.6782 0.998354 11.8548 1.03369 12.0189 1.10388C12.1831 1.17407 12.3313 1.27763 12.4543 1.40815C12.5832 1.53284 12.6854 1.68298 12.7546 1.84928C12.8239 2.01558 12.8588 2.19451 12.8571 2.37502C12.8588 2.65308 12.7695 2.92386 12.6031 3.14499C13.7086 3.30604 14.7577 3.74132 15.6571 4.41215C16.5549 5.07605 17.2882 5.94211 17.7992 6.94207C18.3227 7.95978 18.5915 9.09218 18.582 10.2398C18.5686 11.1471 18.6413 12.0536 18.7991 12.9468C18.8911 13.4644 19.0782 13.9599 19.3507 14.4075C19.545 14.703 19.7704 14.9762 20.0227 15.2226ZM11.5 21.2812C11.6341 21.2838 11.7674 21.2584 11.8914 21.2065C12.0154 21.1547 12.1276 21.0775 12.2209 20.9798C12.3173 20.8853 12.3935 20.7717 12.4447 20.646C12.4959 20.5204 12.5209 20.3854 12.5184 20.2495H10.4827C10.48 20.3853 10.5049 20.5202 10.5559 20.6459C10.6069 20.7715 10.6829 20.8852 10.7791 20.9798C10.8724 21.0775 10.9846 21.1547 11.1086 21.2065C11.2326 21.2584 11.3659 21.2838 11.5 21.2812ZM18.1586 18.1881C18.3188 18.2007 18.4787 18.159 18.6131 18.0696C18.7475 17.9802 18.8488 17.8482 18.9012 17.6942C18.9656 17.546 18.9818 17.3808 18.9475 17.2226C18.9131 17.0644 18.83 16.9214 18.7101 16.8143C18.3109 16.398 17.9422 15.9528 17.607 15.4822C17.2481 14.8855 16.9912 14.2318 16.8471 13.5485C16.6295 12.4598 16.5294 11.3504 16.5485 10.2398C16.5533 9.34135 16.3189 8.45824 15.8699 7.68345C15.4282 6.90616 14.7914 6.26104 14.0242 5.81351C13.2593 5.35809 12.3872 5.1202 11.5 5.12493C10.6132 5.12007 9.74158 5.35757 8.97684 5.81241C8.20964 6.25994 7.57289 6.90506 7.13116 7.68235C6.68165 8.45735 6.44685 9.34087 6.45152 10.2398C6.47302 11.3362 6.37361 12.4315 6.15512 13.5056C6.01623 14.205 5.75912 14.8748 5.39513 15.4855C5.05902 15.9543 4.68962 16.3977 4.2899 16.8121C4.17002 16.9192 4.0869 17.0622 4.05255 17.2204C4.01819 17.3786 4.0344 17.5438 4.09881 17.692C4.1512 17.846 4.25252 17.978 4.38691 18.0674C4.5213 18.1568 4.68115 18.1985 4.84143 18.1859L18.1586 18.1881Z" fill="white"/>
</svg>
