<svg width="10" height="10" viewBox="0 0 10 10" fill="none" xmlns="http://www.w3.org/2000/svg">
<path d="M0.999675 10C0.868389 10 0.73839 9.97414 0.617136 9.9238C0.495881 9.87347 0.385759 9.79969 0.293087 9.7067C0.200171 9.61384 0.126462 9.50359 0.0761733 9.38223C0.0258841 9.26088 0 9.13081 0 8.99945C0 8.86808 0.0258841 8.73801 0.0761733 8.61666C0.126462 8.4953 0.200171 8.38505 0.293087 8.29219L8.29219 0.293087C8.38505 0.200171 8.4953 0.126462 8.61666 0.0761733C8.73801 0.0258841 8.86808 0 8.99944 0C9.13081 0 9.26088 0.0258841 9.38223 0.0761733C9.50359 0.126462 9.61384 0.200171 9.7067 0.293087C9.79953 0.386031 9.87313 0.496356 9.92331 0.617757C9.97348 0.739158 9.99924 0.869256 9.99912 1.00062C9.999 1.13198 9.97299 1.26203 9.92259 1.38333C9.87218 1.50464 9.79837 1.61483 9.70537 1.7076L1.70626 9.7067C1.61359 9.79969 1.50347 9.87347 1.38221 9.9238C1.26096 9.97414 1.13096 10 0.999675 10Z" fill="currentColor"/>
<path d="M8.9986 9.99989C8.86732 9.99992 8.73732 9.97403 8.61606 9.9237C8.49481 9.87337 8.38468 9.79959 8.29201 9.70659L0.292909 1.70749C0.105663 1.52001 0.000488281 1.26587 0.000488281 1.0009C0.000488281 0.735929 0.105663 0.481792 0.292909 0.294313C0.480388 0.107066 0.734525 0.00189209 0.999496 0.00189209C1.26447 0.00189209 1.5186 0.107066 1.70608 0.294313L9.70519 8.29342C9.84485 8.43325 9.93994 8.61133 9.97844 8.80518C10.017 8.99902 9.99715 9.19993 9.92155 9.38253C9.84594 9.56512 9.71792 9.72122 9.55365 9.8311C9.38938 9.94098 9.19623 9.99972 8.9986 9.99989Z" fill="currentColor"/>
</svg>
