<svg width="14" height="14" viewBox="0 0 14 14" fill="none" xmlns="http://www.w3.org/2000/svg">
  <path d="M14 3.11111V12.4444C14 12.8722 13.8477 13.2384 13.5431 13.5431C13.2384 13.8477 12.8722 14 12.4444 14H1.55556C1.12778 14 0.761574 13.8477 0.456944 13.5431C0.152315 13.2384 0 12.8722 0 12.4444V1.55556C0 1.12778 0.152315 0.761574 0.456944 0.456944C0.761574 0.152315 1.12778 0 1.55556 0H10.8889L14 3.11111ZM12.4444 3.77222L10.2278 1.55556H1.55556V12.4444H12.4444V3.77222ZM7 11.6667C7.64815 11.6667 8.19907 11.4398 8.65278 10.9861C9.10648 10.5324 9.33333 9.98148 9.33333 9.33333C9.33333 8.68519 9.10648 8.13426 8.65278 7.68056C8.19907 7.22685 7.64815 7 7 7C6.35185 7 5.80093 7.22685 5.34722 7.68056C4.89352 8.13426 4.66667 8.68519 4.66667 9.33333C4.66667 9.98148 4.89352 10.5324 5.34722 10.9861C5.80093 11.4398 6.35185 11.6667 7 11.6667ZM2.33333 5.44444H9.33333V2.33333H2.33333V5.44444Z" fill="#00703C"/>
</svg>
