<svg width="14" height="14" viewBox="0 0 14 14" fill="none" xmlns="http://www.w3.org/2000/svg">
  <path fill-rule="evenodd" clip-rule="evenodd" d="M0.417847 3.13063C0.417847 2.82542 0.665268 2.578 0.970478 2.578H12.5757C12.8809 2.578 13.1284 2.82542 13.1284 3.13063C13.1284 3.43584 12.8809 3.68327 12.5757 3.68327H0.970478C0.665268 3.68327 0.417847 3.43584 0.417847 3.13063Z" fill="#FF0000"/>
  <path fill-rule="evenodd" clip-rule="evenodd" d="M5.48371 1.10526C5.28829 1.10526 5.10087 1.18289 4.96268 1.32108C4.8245 1.45926 4.74687 1.64668 4.74687 1.8421V3.13158C4.74687 3.43679 4.49945 3.68421 4.19424 3.68421C3.88903 3.68421 3.64161 3.43679 3.64161 3.13158V1.8421C3.64161 1.35355 3.83568 0.885001 4.18115 0.53954C4.52661 0.194078 4.99515 0 5.48371 0H8.06265C8.55121 0 9.01976 0.194078 9.36522 0.53954C9.71068 0.885001 9.90476 1.35355 9.90476 1.8421V3.13158C9.90476 3.43679 9.65734 3.68421 9.35213 3.68421C9.04692 3.68421 8.7995 3.43679 8.7995 3.13158V1.8421C8.7995 1.64668 8.72186 1.45926 8.58368 1.32108C8.4455 1.18289 8.25808 1.10526 8.06265 1.10526H5.48371ZM2.26003 2.57895C2.56524 2.57895 2.81266 2.82637 2.81266 3.13158V12.1579C2.81266 12.3533 2.89029 12.5407 3.02848 12.6789C3.16666 12.8171 3.35408 12.8947 3.5495 12.8947H9.99686C10.0936 12.8947 10.1894 12.8757 10.2788 12.8386C10.3682 12.8016 10.4495 12.7473 10.5179 12.6789C10.5863 12.6105 10.6406 12.5293 10.6776 12.4399C10.7146 12.3505 10.7337 12.2546 10.7337 12.1579V3.13158C10.7337 2.82637 10.9811 2.57895 11.2863 2.57895C11.5915 2.57895 11.839 2.82637 11.839 3.13158V12.1579C11.839 12.3998 11.7913 12.6393 11.6987 12.8628C11.6062 13.0863 11.4705 13.2894 11.2994 13.4604C11.1284 13.6315 10.9253 13.7672 10.7018 13.8598C10.4783 13.9523 10.2388 14 9.99686 14H3.5495C3.06095 14 2.5924 13.8059 2.24694 13.4604C1.90148 13.115 1.7074 12.6464 1.7074 12.1579V3.13158C1.7074 2.82637 1.95482 2.57895 2.26003 2.57895Z" fill="#FF0000"/>
</svg>
