<svg width="18" height="18" viewBox="0 0 18 18" fill="none" xmlns="http://www.w3.org/2000/svg">
<path d="M9 18C7.755 18 6.585 17.7638 5.49 17.2912C4.395 16.8187 3.4425 16.1775 2.6325 15.3675C1.8225 14.5575 1.18125 13.605 0.70875 12.51C0.23625 11.415 0 10.245 0 9C0 7.755 0.23625 6.585 0.70875 5.49C1.18125 4.395 1.8225 3.4425 2.6325 2.6325C3.4425 1.8225 4.395 1.18125 5.49 0.70875C6.585 0.23625 7.755 0 9 0C9.975 0 10.8975 0.1425 11.7675 0.4275C12.6375 0.7125 13.44 1.11 14.175 1.62L12.87 2.9475C12.3 2.5875 11.6925 2.30625 11.0475 2.10375C10.4025 1.90125 9.72 1.8 9 1.8C7.005 1.8 5.30625 2.50125 3.90375 3.90375C2.50125 5.30625 1.8 7.005 1.8 9C1.8 10.995 2.50125 12.6938 3.90375 14.0962C5.30625 15.4987 7.005 16.2 9 16.2C10.995 16.2 12.6938 15.4987 14.0962 14.0962C15.4987 12.6938 16.2 10.995 16.2 9C16.2 8.73 16.185 8.46 16.155 8.19C16.125 7.92 16.08 7.6575 16.02 7.4025L17.4825 5.94C17.6475 6.42 17.775 6.915 17.865 7.425C17.955 7.935 18 8.46 18 9C18 10.245 17.7638 11.415 17.2912 12.51C16.8187 13.605 16.1775 14.5575 15.3675 15.3675C14.5575 16.1775 13.605 16.8187 12.51 17.2912C11.415 17.7638 10.245 18 9 18ZM7.74 13.14L3.915 9.315L5.175 8.055L7.74 10.62L16.74 1.5975L18 2.8575L7.74 13.14Z" fill="#0FBC2B"/>
</svg>
