<svg width="18" height="19" viewBox="0 0 18 19" fill="none" xmlns="http://www.w3.org/2000/svg">
<path d="M13 8C12.7167 8 12.4792 7.90417 12.2875 7.7125C12.0958 7.52083 12 7.28333 12 7V4C12 3.71667 12.0958 3.47917 12.2875 3.2875C12.4792 3.09583 12.7167 3 13 3V2C13 1.45 13.1958 0.979167 13.5875 0.5875C13.9792 0.195833 14.45 0 15 0C15.55 0 16.0208 0.195833 16.4125 0.5875C16.8042 0.979167 17 1.45 17 2V3C17.2833 3 17.5208 3.09583 17.7125 3.2875C17.9042 3.47917 18 3.71667 18 4V7C18 7.28333 17.9042 7.52083 17.7125 7.7125C17.5208 7.90417 17.2833 8 17 8H13ZM14 3H16V2C16 1.71667 15.9042 1.47917 15.7125 1.2875C15.5208 1.09583 15.2833 1 15 1C14.7167 1 14.4792 1.09583 14.2875 1.2875C14.0958 1.47917 14 1.71667 14 2V3ZM16.95 19C14.8 19 12.7042 18.5208 10.6625 17.5625C8.62083 16.6042 6.8125 15.3375 5.2375 13.7625C3.6625 12.1875 2.39583 10.3792 1.4375 8.3375C0.479167 6.29583 0 4.2 0 2.05C0 1.75 0.1 1.5 0.3 1.3C0.5 1.1 0.75 1 1.05 1H5.1C5.33333 1 5.54167 1.075 5.725 1.225C5.90833 1.375 6.01667 1.56667 6.05 1.8L6.7 5.3C6.73333 5.53333 6.72917 5.74583 6.6875 5.9375C6.64583 6.12917 6.55 6.3 6.4 6.45L3.975 8.9C4.675 10.1 5.55417 11.225 6.6125 12.275C7.67083 13.325 8.83333 14.2333 10.1 15L12.45 12.65C12.6 12.5 12.7958 12.3875 13.0375 12.3125C13.2792 12.2375 13.5167 12.2167 13.75 12.25L17.2 12.95C17.4333 13 17.625 13.1125 17.775 13.2875C17.925 13.4625 18 13.6667 18 13.9V17.95C18 18.25 17.9 18.5 17.7 18.7C17.5 18.9 17.25 19 16.95 19ZM3.025 7L4.675 5.35L4.25 3H2.025C2.10833 3.68333 2.225 4.35833 2.375 5.025C2.525 5.69167 2.74167 6.35 3.025 7ZM11.975 15.95C12.625 16.2333 13.2875 16.4583 13.9625 16.625C14.6375 16.7917 15.3167 16.9 16 16.95V14.75L13.65 14.275L11.975 15.95Z" fill="#298EF2"/>
</svg>
