<svg width="18" height="18" viewBox="0 0 18 18" fill="none" xmlns="http://www.w3.org/2000/svg">
<path d="M9 18C7.755 18 6.585 17.7638 5.49 17.2912C4.395 16.8187 3.4425 16.1775 2.6325 15.3675C1.8225 14.5575 1.18125 13.605 0.70875 12.51C0.23625 11.415 0 10.245 0 9C0 7.755 0.23625 6.585 0.70875 5.49C1.18125 4.395 1.8225 3.4425 2.6325 2.6325C3.4425 1.8225 4.395 1.18125 5.49 0.70875C6.585 0.23625 7.755 0 9 0C10.245 0 11.415 0.23625 12.51 0.70875C13.605 1.18125 14.5575 1.8225 15.3675 2.6325C16.1775 3.4425 16.8187 4.395 17.2912 5.49C17.7638 6.585 18 7.755 18 9C18 10.245 17.7638 11.415 17.2912 12.51C16.8187 13.605 16.1775 14.5575 15.3675 15.3675C14.5575 16.1775 13.605 16.8187 12.51 17.2912C11.415 17.7638 10.245 18 9 18ZM9 16.2C11.01 16.2 12.7125 15.5025 14.1075 14.1075C15.5025 12.7125 16.2 11.01 16.2 9C16.2 8.19 16.0688 7.41 15.8062 6.66C15.5437 5.91 15.165 5.22 14.67 4.59L4.59 14.67C5.22 15.165 5.91 15.5437 6.66 15.8062C7.41 16.0688 8.19 16.2 9 16.2ZM3.33 13.41L13.41 3.33C12.78 2.835 12.09 2.45625 11.34 2.19375C10.59 1.93125 9.81 1.8 9 1.8C6.99 1.8 5.2875 2.4975 3.8925 3.8925C2.4975 5.2875 1.8 6.99 1.8 9C1.8 9.81 1.93125 10.59 2.19375 11.34C2.45625 12.09 2.835 12.78 3.33 13.41Z" fill="#00BEA7"/>
</svg>
