<svg width="19" height="19" viewBox="0 0 19 19" fill="none" xmlns="http://www.w3.org/2000/svg">
<path d="M16.1025 19C14.06 19 12.069 18.5448 10.1294 17.6344C8.18979 16.724 6.47188 15.5206 4.97563 14.0244C3.47938 12.5281 2.27604 10.8102 1.36563 8.87063C0.455208 6.93104 0 4.94 0 2.8975C0 2.6125 0.095 2.375 0.285 2.185C0.475 1.995 0.7125 1.9 0.9975 1.9H4.845C5.06667 1.9 5.26458 1.97125 5.43875 2.11375C5.61292 2.25625 5.71583 2.43833 5.7475 2.66L6.365 5.985C6.39667 6.20667 6.39271 6.40854 6.35313 6.59062C6.31354 6.77271 6.2225 6.935 6.08 7.0775L3.77625 9.405C4.44125 10.545 5.27646 11.6138 6.28188 12.6112C7.28729 13.6088 8.39167 14.4717 9.595 15.2L11.8275 12.9675C11.97 12.825 12.156 12.7181 12.3856 12.6469C12.6152 12.5756 12.8408 12.5558 13.0625 12.5875L16.34 13.2525C16.5617 13.3 16.7437 13.4069 16.8862 13.5731C17.0287 13.7394 17.1 13.9333 17.1 14.155V18.0025C17.1 18.2875 17.005 18.525 16.815 18.715C16.625 18.905 16.3875 19 16.1025 19ZM2.87375 7.6L4.44125 6.0325L4.0375 3.8H1.92375C2.00292 4.44917 2.11375 5.09042 2.25625 5.72375C2.39875 6.35708 2.60458 6.9825 2.87375 7.6ZM11.3763 16.1025C11.9938 16.3717 12.6231 16.5854 13.2644 16.7437C13.9056 16.9021 14.5508 17.005 15.2 17.0525V14.9625L12.9675 14.5113L11.3763 16.1025ZM14.25 9.5C12.9358 9.5 11.8156 9.03688 10.8894 8.11063C9.96313 7.18438 9.5 6.06417 9.5 4.75C9.5 3.43583 9.96313 2.31562 10.8894 1.38937C11.8156 0.463125 12.9358 0 14.25 0C15.5642 0 16.6844 0.463125 17.6106 1.38937C18.5369 2.31562 19 3.43583 19 4.75C19 6.06417 18.5369 7.18438 17.6106 8.11063C16.6844 9.03688 15.5642 9.5 14.25 9.5ZM13.775 7.6H14.725V3.8H13.775V7.6ZM14.25 2.85C14.3767 2.85 14.4875 2.8025 14.5825 2.7075C14.6775 2.6125 14.725 2.50167 14.725 2.375C14.725 2.24833 14.6775 2.1375 14.5825 2.0425C14.4875 1.9475 14.3767 1.9 14.25 1.9C14.1233 1.9 14.0125 1.9475 13.9175 2.0425C13.8225 2.1375 13.775 2.24833 13.775 2.375C13.775 2.50167 13.8225 2.6125 13.9175 2.7075C14.0125 2.8025 14.1233 2.85 14.25 2.85Z" fill="#E48203"/>
</svg>
