<svg width="18" height="18" viewBox="0 0 18 18" fill="none" xmlns="http://www.w3.org/2000/svg">
<path d="M8.07519 18C6.93233 17.8797 5.86842 17.5602 4.88346 17.0414C3.8985 16.5226 3.04511 15.8609 2.32331 15.0564C1.6015 14.2519 1.03383 13.3308 0.620301 12.2932C0.206767 11.2556 0 10.1579 0 9C0 6.66917 0.770677 4.65038 2.31203 2.94361C3.85338 1.23684 5.78196 0.255639 8.09774 0V1.80451C6.2782 2.06015 4.77444 2.86842 3.58647 4.22932C2.3985 5.59023 1.80451 7.18045 1.80451 9C1.80451 10.8195 2.3985 12.4098 3.58647 13.7707C4.77444 15.1316 6.27068 15.9398 8.07519 16.1955V18ZM8.97744 13.5338L4.44361 8.97744L5.72932 7.69173L8.07519 10.0376V4.51128H9.8797V10.0376L12.203 7.71429L13.4887 9.02256L8.97744 13.5338ZM9.8797 18V16.1955C10.5263 16.1053 11.1466 15.9323 11.7406 15.6767C12.3346 15.4211 12.8872 15.0977 13.3985 14.7068L14.7068 16.015C14 16.5714 13.2406 17.0188 12.4286 17.3571C11.6165 17.6955 10.7669 17.9098 9.8797 18ZM13.4436 3.29323C12.9173 2.90226 12.3571 2.57895 11.7632 2.32331C11.1692 2.06767 10.5489 1.89474 9.90226 1.80451V0C10.7895 0.0902256 11.6391 0.304511 12.4511 0.642857C13.2632 0.981203 14.015 1.42857 14.7068 1.98496L13.4436 3.29323ZM15.9699 14.7068L14.7068 13.4211C15.0977 12.9098 15.4135 12.3571 15.6541 11.7632C15.8947 11.1692 16.0602 10.5489 16.1504 9.90226H18C17.8797 10.7895 17.6541 11.6429 17.3233 12.4624C16.9925 13.282 16.5414 14.0301 15.9699 14.7068ZM16.1504 8.09774C16.0602 7.45113 15.8947 6.83083 15.6541 6.23684C15.4135 5.64286 15.0977 5.09023 14.7068 4.57895L15.9699 3.29323C16.5414 3.96992 17 4.71805 17.3459 5.53759C17.6917 6.35714 17.9098 7.21053 18 8.09774H16.1504Z" fill="#CFB929"/>
</svg>
