<svg width="17" height="16" viewBox="0 0 17 16" fill="none" xmlns="http://www.w3.org/2000/svg">
<path d="M0 16V1.88235C0 1.36471 0.184314 0.921569 0.552941 0.552941C0.921569 0.184314 1.36471 0 1.88235 0H13.1765C13.6941 0 14.1373 0.184314 14.5059 0.552941C14.8745 0.921569 15.0588 1.36471 15.0588 1.88235V6.65882C14.902 6.62745 14.7451 6.60784 14.5882 6.6C14.4314 6.59216 14.2745 6.58824 14.1176 6.58824C13.9608 6.58824 13.8039 6.59216 13.6471 6.6C13.4902 6.60784 13.3333 6.62745 13.1765 6.65882V1.88235H1.88235V11.2941H8.54118C8.5098 11.451 8.4902 11.6078 8.48235 11.7647C8.47451 11.9216 8.47059 12.0784 8.47059 12.2353C8.47059 12.3922 8.47451 12.549 8.48235 12.7059C8.4902 12.8627 8.5098 13.0196 8.54118 13.1765H2.82353L0 16ZM3.76471 5.64706H11.2941V3.76471H3.76471V5.64706ZM3.76471 9.41177H8.47059V7.52941H3.76471V9.41177Z" fill="#CAB709"/>
<path d="M14.7174 14.3013L13.4883 15.5L9.97655 12.0753L13.4883 8.6505L14.7393 9.84916L13.3346 11.2191H17V12.9314H13.3346L14.7174 14.3013Z" fill="#CAB709"/>
</svg>
