<svg width="19" height="16" viewBox="0 0 19 16" fill="none" xmlns="http://www.w3.org/2000/svg">
<path d="M8.63492 7.57895L1.72698 3.36842V11.7895H9.49841V13.4737H1.72698C1.25206 13.4737 0.845503 13.3088 0.507302 12.9789C0.169101 12.6491 0 12.2526 0 11.7895V1.68421C0 1.22105 0.169101 0.824561 0.507302 0.494737C0.845503 0.164912 1.25206 0 1.72698 0H15.5429C16.0178 0 16.4243 0.164912 16.7625 0.494737C17.1007 0.824561 17.2698 1.22105 17.2698 1.68421V7.57895H15.5429V3.36842L8.63492 7.57895ZM8.63492 5.89474L15.5429 1.68421H1.72698L8.63492 5.89474ZM14.6794 16L13.4705 14.8211L14.8305 13.4737H11.2254V11.7895H14.8305L13.4489 10.4421L14.6794 9.26316L18.1333 12.6316L14.6794 16ZM1.72698 3.36842V12.6316V7.57895V7.64211V1.68421V3.36842Z" fill="#298EF2"/>
</svg>