<svg width="20" height="16" viewBox="0 0 20 16" fill="none" xmlns="http://www.w3.org/2000/svg">
<path d="M8.77932 7.70569L1.75586 3.42475V11.9866H9.65725V13.699H1.75586C1.273 13.699 0.859642 13.5313 0.515785 13.196C0.171928 12.8606 0 12.4575 0 11.9866V1.71237C0 1.24147 0.171928 0.83835 0.515785 0.50301C0.859642 0.16767 1.273 0 1.75586 0H15.8028C16.2856 0 16.699 0.16767 17.0429 0.50301C17.3867 0.83835 17.5586 1.24147 17.5586 1.71237V7.70569H15.8028V3.42475L8.77932 7.70569ZM8.77932 5.99331L15.8028 1.71237H1.75586L8.77932 5.99331ZM1.75586 3.42475V12.8428V7.70569V7.7699V1.71237V3.42475Z" fill="#009751"/>
<path d="M16.9415 14.8013L15.7124 16L12.2007 12.5753L15.7124 9.1505L16.9634 10.3492L15.5588 11.7191H19.2241V13.4314H15.5588L16.9415 14.8013Z" fill="#009751"/>
</svg>
