<svg width="19" height="16" viewBox="0 0 19 16" fill="none" xmlns="http://www.w3.org/2000/svg">
<path d="M2.76792 12.255C2.71164 12.2297 2.67099 12.2011 2.73665 12.1441C2.7773 12.1124 2.82108 12.0839 2.86486 12.0554C3.27448 11.786 3.65909 11.4913 3.91237 11.0572C4.12499 10.6959 4.0906 10.4836 3.82481 10.2174C2.34266 8.71538 1.69227 6.91862 2.01747 4.79547C2.20195 3.59764 2.74291 2.56142 3.53088 1.66145C4.00617 1.11641 4.57214 0.675933 5.19127 0.308343C5.22879 0.286161 5.28195 0.279823 5.2882 0.222784C5.27569 0.191095 5.2538 0.200602 5.23504 0.200602C4.18128 0.200602 3.12751 0.178419 2.07688 0.206939C1.07002 0.238628 0.200739 1.02768 0.203866 2.15897C0.21012 5.46411 0.203866 8.76925 0.203866 12.0776C0.203866 13.1043 0.976209 13.963 1.9862 14.0011C2.83984 14.0359 3.69348 14.0074 4.55025 14.0042C4.61279 14.0074 4.67533 14.0106 4.73787 14.0106H9.25311C10.3788 14.0106 11.5045 14.0169 12.6302 14.0106C13.6745 14.0106 14.5219 13.155 14.5219 12.0997V12.0807V10.2269C14.5219 10.1826 14.5376 10.135 14.5094 10.0875C14.4531 10.0907 14.4312 10.1382 14.4 10.1699C13.7934 10.7878 13.0773 11.2853 12.2924 11.6371C10.3694 12.4958 8.41197 12.5561 6.42639 11.8652C6.25441 11.8019 6.0668 11.7955 5.88856 11.8399C5.62591 11.9064 5.36637 11.9857 5.10684 12.0649C4.34388 12.3057 3.56528 12.4135 2.76792 12.255ZM5.03492 6.91545C5.08808 6.84574 5.11622 6.80454 5.14749 6.76335C5.55711 6.23731 5.96674 5.71128 6.37636 5.18208C6.49518 5.02997 6.614 4.8747 6.68905 4.6909C6.7766 4.48176 6.6828 4.28528 6.47017 4.20923C6.37636 4.18071 6.2763 4.16804 6.17624 4.17437C5.61965 4.17121 5.05994 4.17121 4.50335 4.17437C4.42518 4.17437 4.347 4.18388 4.27196 4.20289C4.09685 4.24726 3.99054 4.42788 4.03431 4.60851C4.06558 4.72893 4.15939 4.82399 4.27821 4.85251C4.35326 4.87153 4.43143 4.88103 4.5096 4.87787C4.84731 4.88103 5.18814 4.87787 5.52584 4.88103C5.56337 4.88103 5.61027 4.85568 5.63841 4.91272C5.61027 4.95075 5.58213 4.98878 5.55399 5.02363C5.06932 5.64473 4.58778 6.269 4.10311 6.8901C3.98428 7.04538 3.92175 7.2165 4.0093 7.40663C4.09685 7.59676 4.27509 7.63162 4.45645 7.6443C4.60028 7.6538 4.74725 7.64746 4.89421 7.64746C5.40077 7.64746 5.9042 7.65063 6.41076 7.6443C6.67967 7.64113 6.82351 7.47635 6.79536 7.22284C6.77348 7.0232 6.63902 6.91862 6.38887 6.91545C5.94798 6.91228 5.50708 6.91545 5.03492 6.91545ZM8.66212 5.24862C8.27126 4.90322 7.83975 4.88103 7.41762 5.13454C6.90481 5.43876 6.71719 5.93627 6.77973 6.51301C6.83914 7.05172 7.07053 7.49219 7.62712 7.67282C7.9742 7.7869 8.29628 7.7457 8.58082 7.5112C8.65587 7.45099 8.67776 7.46367 8.73091 7.53022C8.8341 7.66331 9.01233 7.71401 9.16868 7.6538C9.32502 7.60627 9.42821 7.4605 9.42821 7.29572C9.43134 6.66194 9.43447 6.02817 9.42821 5.39439C9.42509 5.14088 9.19057 4.97927 8.94667 5.02997C8.81221 5.05849 8.73717 5.15039 8.66212 5.24862ZM10.8291 6.42428C10.8166 7.2165 11.4638 7.81541 12.2768 7.73302C13.0241 7.65697 13.5088 7.08974 13.4838 6.28802C13.4588 5.4958 12.8772 4.95392 12.0798 4.97927C11.3325 5.00145 10.804 5.60988 10.8291 6.42428ZM10.5539 5.79367C10.5539 5.29616 10.557 4.80181 10.5539 4.3043C10.5539 4.05079 10.3944 3.89234 10.1568 3.89551C9.92539 3.89868 9.77217 4.05713 9.76904 4.30113C9.76592 4.45007 9.76904 4.59583 9.76904 4.74477V7.26403C9.76904 7.4605 9.88787 7.63162 10.0442 7.67282C10.26 7.73302 10.482 7.6031 10.5383 7.38445C10.5476 7.34642 10.5539 7.30839 10.5508 7.2672C10.557 6.77602 10.5539 6.28485 10.5539 5.79367Z" fill="#FDFEFE"/>
<path d="M4.54707 14.0069C3.69343 14.0069 2.83666 14.0354 1.98301 14.0038C0.973027 13.9626 0.200684 13.1038 0.200684 12.0802C0.200684 8.77511 0.206937 5.46997 0.200684 2.16166C0.200684 1.03037 1.07309 0.241319 2.07682 0.212799C3.12746 0.184279 4.18122 0.206461 5.23499 0.206461C5.25375 0.206461 5.27876 0.196954 5.28814 0.228643C5.28189 0.285683 5.22561 0.292021 5.19121 0.314203C4.57209 0.681793 4.00612 1.12227 3.53083 1.66731C2.74598 2.56727 2.2019 3.60033 2.01741 4.80133C1.69221 6.92131 2.34573 8.72123 3.82476 10.2233C4.08742 10.4926 4.12181 10.7018 3.91231 11.063C3.65903 11.4972 3.27442 11.7919 2.8648 12.0612C2.82102 12.0866 2.77725 12.1183 2.73347 12.1468C2.66781 12.2038 2.70845 12.2324 2.76474 12.2577C2.77725 12.2862 2.79288 12.3116 2.81164 12.3369C3.17124 12.6601 3.51207 13.0056 3.86541 13.3351C4.03113 13.4904 4.19686 13.652 4.35633 13.8136C4.42199 13.8738 4.53144 13.8928 4.54707 14.0069Z" fill="#0180C7"/>
<path d="M4.54698 14.0073C4.53135 13.8964 4.4219 13.8774 4.35624 13.8108C4.19677 13.6461 4.03104 13.4876 3.86532 13.3323C3.51198 13.0028 3.17115 12.6574 2.81155 12.3341C2.79279 12.3088 2.77716 12.2834 2.76465 12.2549C3.56201 12.4134 4.3406 12.3056 5.10669 12.068C5.36623 11.9887 5.62576 11.9095 5.88842 11.843C6.06665 11.7954 6.25427 11.8049 6.42624 11.8683C8.4087 12.5591 10.3661 12.4958 12.2923 11.6402C13.0772 11.2884 13.7932 10.7941 14.3998 10.1761C14.4311 10.1445 14.453 10.0969 14.5093 10.0938C14.5374 10.1381 14.5218 10.1856 14.5218 10.2332V12.087C14.528 13.1454 13.69 14.0073 12.6456 14.0168H12.63C11.5043 14.0232 10.3786 14.0168 9.25296 14.0168H4.73459C4.67206 14.0105 4.60952 14.0073 4.54698 14.0073Z" fill="#0180C7"/>
<path d="M5.03471 6.91509C5.50687 6.91509 5.95089 6.91192 6.39178 6.91509C6.63881 6.91826 6.77327 7.02283 6.79828 7.22247C6.82642 7.47281 6.68259 7.64076 6.41367 7.64393C5.90712 7.65027 5.40368 7.6471 4.89713 7.6471C4.75016 7.6471 4.60633 7.65344 4.45936 7.64393C4.278 7.63443 4.09977 7.5964 4.01222 7.40627C3.92466 7.21614 3.9872 7.04502 4.10602 6.88974C4.58756 6.26864 5.07223 5.64437 5.5569 5.02327C5.58504 4.98525 5.61319 4.94722 5.64133 4.91236C5.61006 4.85849 5.56628 4.88384 5.52876 4.88067C5.19106 4.8775 4.85022 4.88067 4.51252 4.8775C4.43435 4.8775 4.35617 4.868 4.28113 4.85215C4.1029 4.81096 3.99345 4.63033 4.0341 4.45287C4.06225 4.33246 4.15605 4.23422 4.27488 4.2057C4.34992 4.18669 4.42809 4.17718 4.50627 4.17718C5.06285 4.17401 5.62257 4.17401 6.17916 4.17718C6.27922 4.17401 6.37615 4.18669 6.47308 4.21204C6.68571 4.28492 6.77639 4.48456 6.69197 4.69371C6.61692 4.87433 6.4981 5.02961 6.37928 5.18488C5.96965 5.71409 5.56003 6.24012 5.15041 6.76299C5.11601 6.80418 5.08474 6.84538 5.03471 6.91509Z" fill="#0180C7"/>
<path fill-rule="evenodd" clip-rule="evenodd" d="M8.94358 5.03197C8.81538 5.05732 8.7372 5.14921 8.66216 5.24745C8.2713 4.90204 7.83978 4.87986 7.41452 5.13654C6.90171 5.44075 6.71097 5.9351 6.77664 6.515C6.83918 7.05054 7.06744 7.49102 7.62403 7.67481C7.97111 7.78889 8.29318 7.74769 8.57773 7.5132C8.65278 7.45299 8.67466 7.46566 8.72782 7.53221C8.83101 7.66847 9.00924 7.71601 9.16559 7.6558C9.31881 7.60826 9.42512 7.4625 9.42512 7.29771C9.43137 6.66394 9.4345 6.03016 9.42512 5.39639C9.42199 5.14288 9.1906 4.98126 8.94358 5.03197ZM8.27368 5.73393C8.22895 5.7181 8.18177 5.70887 8.13358 5.70679C7.79275 5.68778 7.55198 5.95713 7.5551 6.40395C7.56136 6.54338 7.60513 6.67647 7.68331 6.78738C7.71457 6.82858 7.74897 6.86343 7.78649 6.89195C7.87449 6.95792 7.97643 6.99139 8.07816 6.99455C8.1916 6.99898 8.30738 6.96584 8.40575 6.8921C8.44327 6.86358 8.47767 6.82872 8.50894 6.78752C8.68405 6.54669 8.68405 6.15058 8.50894 5.90975C8.4494 5.8257 8.36672 5.7651 8.27368 5.73393ZM12.083 4.9781C11.3325 5.00028 10.8041 5.6087 10.8291 6.4231C10.8166 7.21532 11.4639 7.81424 12.28 7.73185C13.0273 7.6558 13.512 7.08857 13.487 6.28684C13.4619 5.49462 12.8803 4.95274 12.083 4.9781ZM11.6258 6.19927C11.6179 6.24602 11.6138 6.29534 11.6138 6.34691C11.6138 6.3493 11.6137 6.35169 11.6137 6.35408C11.6094 6.49892 11.6495 6.64083 11.7293 6.76285C11.7354 6.7722 11.7417 6.78144 11.7483 6.79055C11.7733 6.82541 11.8014 6.8571 11.8358 6.88245C11.8804 6.9181 11.9292 6.94505 11.9801 6.96354C12.0965 7.00645 12.2264 7.00582 12.3444 6.95771C12.425 6.92559 12.4986 6.87248 12.5562 6.79937C12.5569 6.79859 12.5576 6.79781 12.5583 6.79703C12.6314 6.69989 12.6751 6.57594 12.6894 6.44681C12.7106 6.2558 12.6677 6.05344 12.5614 5.90975C12.5497 5.89373 12.5372 5.87849 12.5239 5.86411C12.4371 5.7703 12.3166 5.71271 12.1892 5.70996C12.141 5.70725 12.0949 5.71027 12.0513 5.71858C11.8286 5.76048 11.6692 5.93896 11.6258 6.19927ZM10.5546 6.28367C10.5543 6.11995 10.5539 5.95622 10.5539 5.7925C10.5539 5.62783 10.5543 5.46282 10.5546 5.29768C10.5553 4.96706 10.556 4.63597 10.5539 4.30629C10.5539 4.05278 10.3945 3.89434 10.1568 3.89751C9.92542 3.89751 9.77221 4.05595 9.76908 4.29996C9.767 4.39913 9.76769 4.4969 9.76838 4.59513C9.76873 4.64442 9.76908 4.69383 9.76908 4.7436V7.26286C9.76908 7.4625 9.8879 7.63045 10.0442 7.67164C10.0818 7.68115 10.1224 7.68432 10.1599 7.68432C10.382 7.67798 10.5571 7.49102 10.5539 7.26603C10.556 6.93857 10.5553 6.61112 10.5546 6.28367Z" fill="#0180C7"/>
<path fill-rule="evenodd" clip-rule="evenodd" d="M2.24873 0.432494C1.24831 0.432494 0.432494 1.25509 0.432494 2.27602V11.8777C0.432494 12.8986 1.24831 13.7212 2.24873 13.7212H12.5081C13.5085 13.7212 14.3243 12.8986 14.3243 11.8777V2.27602C14.3243 1.25509 13.5085 0.432494 12.5081 0.432494H2.24873ZM0 2.27602C0 1.02169 1.00403 0 2.24873 0H12.5081C13.7528 0 14.7568 1.02169 14.7568 2.27602V11.8777C14.7568 13.132 13.7528 14.1537 12.5081 14.1537H2.24873C1.00403 14.1537 0 13.132 0 11.8777V2.27602Z" fill="#0180C7"/>
<circle cx="14.2105" cy="11.7896" r="4.21053" fill="#DAF2FF"/>
<path d="M13.0735 13.943L14.0915 14.9358L17.0001 12.0993L14.0915 9.2627L13.0553 10.2555L14.2187 11.3901H11.1829V12.8084H14.2187L13.0735 13.943Z" fill="#0180C7"/>
</svg>
