<svg width="22" height="19" viewBox="0 0 22 19" fill="none" xmlns="http://www.w3.org/2000/svg">
<path d="M3.28677 14.5529C3.21993 14.5228 3.17166 14.4889 3.24964 14.4212C3.29791 14.3836 3.34989 14.3497 3.40188 14.3158C3.88831 13.996 4.34503 13.646 4.6458 13.1305C4.89829 12.7015 4.85745 12.4493 4.54183 12.1333C2.78178 10.3496 2.00943 8.21593 2.3956 5.69469C2.61468 4.27226 3.25706 3.04174 4.19279 1.97304C4.75719 1.32579 5.42928 0.802732 6.16449 0.366219C6.20905 0.339878 6.27217 0.332351 6.2796 0.264617C6.26475 0.226986 6.23876 0.238275 6.21648 0.238275C4.96513 0.238275 3.71379 0.211934 2.46615 0.245801C1.27051 0.283432 0.23824 1.22043 0.241953 2.56384C0.24938 6.48869 0.241953 10.4135 0.241953 14.3422C0.241953 15.5614 1.15911 16.5812 2.35847 16.6263C3.37217 16.6677 4.38587 16.6339 5.40329 16.6301C5.47755 16.6339 5.55182 16.6376 5.62608 16.6376H10.9879C12.3247 16.6376 13.6614 16.6451 14.9982 16.6376C16.2384 16.6376 17.2447 15.6216 17.2447 14.3685V14.3459V12.1445C17.2447 12.0919 17.2632 12.0354 17.2298 11.979C17.163 11.9827 17.137 12.0392 17.0998 12.0768C16.3795 12.8106 15.5292 13.4014 14.5971 13.8191C12.3135 14.8389 9.98908 14.9104 7.6312 14.09C7.42698 14.0148 7.20418 14.0072 6.99253 14.0599C6.68062 14.139 6.37243 14.233 6.06424 14.3271C5.15822 14.6131 4.23363 14.741 3.28677 14.5529ZM5.97883 8.21216C6.04196 8.12938 6.07538 8.08046 6.11251 8.03154C6.59893 7.40687 7.08536 6.78221 7.57179 6.15378C7.71289 5.97315 7.85399 5.78876 7.94311 5.57051C8.04708 5.32215 7.93568 5.08884 7.68319 4.99852C7.57179 4.96466 7.45297 4.9496 7.33415 4.95713C6.6732 4.95337 6.00854 4.95337 5.34759 4.95713C5.25476 4.95713 5.16193 4.96842 5.07281 4.991C4.86487 5.04368 4.73863 5.25817 4.79061 5.47267C4.82774 5.61566 4.93914 5.72855 5.08024 5.76242C5.16936 5.785 5.26219 5.79629 5.35502 5.79253C5.75604 5.79629 6.16078 5.79253 6.5618 5.79629C6.60636 5.79629 6.66206 5.76618 6.69548 5.83392C6.66206 5.87908 6.62864 5.92423 6.59522 5.96563C6.01968 6.70318 5.44785 7.4445 4.8723 8.18206C4.7312 8.36645 4.65694 8.56965 4.76091 8.79543C4.86488 9.02122 5.07653 9.06261 5.29189 9.07766C5.4627 9.08895 5.63722 9.08143 5.81174 9.08143C6.41328 9.08143 7.0111 9.08519 7.61264 9.07766C7.93197 9.0739 8.10278 8.87822 8.06936 8.57718C8.04337 8.34011 7.8837 8.21593 7.58664 8.21216C7.06308 8.2084 6.53952 8.21216 5.97883 8.21216ZM10.2861 6.2328C9.82198 5.82263 9.30956 5.79629 8.80828 6.09733C8.19932 6.45858 7.97653 7.04938 8.05079 7.73426C8.12134 8.37397 8.39612 8.89704 9.05707 9.11153C9.46923 9.247 9.85169 9.19808 10.1896 8.91961C10.2787 8.84812 10.3047 8.86317 10.3678 8.94219C10.4904 9.10024 10.702 9.16045 10.8877 9.08895C11.0733 9.03251 11.1959 8.85941 11.1959 8.66373C11.1996 7.91112 11.2033 7.15851 11.1959 6.4059C11.1922 6.10486 10.9137 5.91294 10.624 5.97315C10.4644 6.00702 10.3752 6.11615 10.2861 6.2328ZM12.8594 7.62889C12.8445 8.56965 13.6132 9.28087 14.5786 9.18303C15.466 9.09271 16.0416 8.41913 16.0119 7.46708C15.9822 6.52632 15.2915 5.88284 14.3446 5.91294C13.4572 5.93929 12.8297 6.66179 12.8594 7.62889ZM12.5326 6.88005C12.5326 6.28925 12.5363 5.70221 12.5326 5.11142C12.5326 4.81037 12.3432 4.62222 12.061 4.62598C11.7863 4.62975 11.6043 4.8179 11.6006 5.10765C11.5969 5.28452 11.6006 5.45762 11.6006 5.63448V8.6261C11.6006 8.85941 11.7417 9.06261 11.9274 9.11153C12.1836 9.18303 12.4472 9.02874 12.514 8.76909C12.5252 8.72394 12.5326 8.67878 12.5289 8.62986C12.5363 8.04659 12.5326 7.46332 12.5326 6.88005Z" fill="#FDFEFE"/>
<path d="M5.39962 16.6332C4.38591 16.6332 3.3685 16.667 2.3548 16.6294C1.15544 16.5805 0.238281 15.5607 0.238281 14.3452C0.238281 10.4204 0.245708 6.49552 0.238281 2.56691C0.238281 1.2235 1.27426 0.286505 2.4662 0.252637C3.71383 0.21877 4.96517 0.245111 6.21652 0.245111C6.2388 0.245111 6.2685 0.233822 6.27964 0.271453C6.27222 0.339187 6.20538 0.346713 6.16453 0.373055C5.42932 0.809568 4.75723 1.33263 4.19283 1.97987C3.26082 3.04858 2.61472 4.27533 2.39564 5.70152C2.00947 8.219 2.78553 10.3564 4.54187 12.1401C4.85378 12.4599 4.89462 12.7083 4.64584 13.1373C4.34507 13.6528 3.88835 14.0028 3.40192 14.3227C3.34993 14.3528 3.29795 14.3904 3.24597 14.4243C3.16799 14.492 3.21626 14.5259 3.2831 14.556C3.29795 14.5898 3.31652 14.6199 3.33879 14.65C3.76581 15.0339 4.17055 15.444 4.59014 15.8354C4.78694 16.0198 4.98374 16.2117 5.17311 16.4036C5.25109 16.4751 5.38105 16.4977 5.39962 16.6332Z" fill="#0180C7"/>
<path d="M5.39948 16.6337C5.38091 16.502 5.25095 16.4794 5.17297 16.4004C4.9836 16.2047 4.7868 16.0165 4.59 15.8322C4.17041 15.4408 3.76567 15.0306 3.33866 14.6468C3.31638 14.6167 3.29781 14.5866 3.28296 14.5527C4.22982 14.7409 5.15441 14.6129 6.06414 14.3307C6.37233 14.2366 6.68053 14.1426 6.99244 14.0635C7.20409 14.0071 7.42688 14.0184 7.6311 14.0936C9.98527 14.914 12.3097 14.8387 14.597 13.8227C15.5291 13.405 16.3794 12.818 17.0997 12.0842C17.1369 12.0465 17.1629 11.9901 17.2297 11.9863C17.2631 12.039 17.2446 12.0955 17.2446 12.1519V14.3533C17.252 15.6101 16.2568 16.6337 15.0166 16.645H14.9981C13.6613 16.6525 12.3246 16.645 10.9878 16.645H5.62227C5.548 16.6374 5.47374 16.6337 5.39948 16.6337Z" fill="#0180C7"/>
<path d="M5.97875 8.2121C6.53944 8.2121 7.06671 8.20834 7.59027 8.2121C7.88362 8.21586 8.04328 8.34004 8.07299 8.57711C8.10641 8.87439 7.9356 9.07384 7.61627 9.0776C7.01473 9.08512 6.41691 9.08136 5.81537 9.08136C5.64085 9.08136 5.47004 9.08889 5.29552 9.0776C5.08016 9.06631 4.86851 9.02115 4.76454 8.79537C4.66057 8.56959 4.73483 8.36638 4.87593 8.18199C5.44776 7.44444 6.02331 6.70312 6.59885 5.96556C6.63227 5.92041 6.66569 5.87525 6.69911 5.83386C6.66198 5.76988 6.60999 5.79999 6.56543 5.79623C6.16441 5.79246 5.75967 5.79623 5.35865 5.79246C5.26582 5.79246 5.17299 5.78117 5.08387 5.76236C4.87222 5.71344 4.74226 5.49895 4.79053 5.28821C4.82395 5.14522 4.93534 5.02856 5.07644 4.9947C5.16556 4.97212 5.25839 4.96083 5.35122 4.96083C6.01217 4.95707 6.67683 4.95707 7.33778 4.96083C7.4566 4.95707 7.57171 4.97212 7.68682 5.00222C7.93931 5.08877 8.047 5.32585 7.94674 5.57421C7.85762 5.7887 7.71652 5.97309 7.57542 6.15748C7.08899 6.78591 6.60257 7.41057 6.11614 8.03147C6.07529 8.08039 6.03816 8.12931 5.97875 8.2121Z" fill="#0180C7"/>
<path d="M10.2863 6.23202C10.3755 6.11536 10.4683 6.00624 10.6205 5.97613C10.9139 5.91592 11.1886 6.10784 11.1924 6.40888C11.2035 7.16149 11.1998 7.9141 11.1924 8.66671C11.1924 8.86238 11.0661 9.03548 10.8842 9.09193C10.6985 9.16343 10.4869 9.10698 10.3643 8.94517C10.3012 8.86615 10.2752 8.8511 10.1861 8.92259C9.84819 9.20106 9.46573 9.24998 9.05356 9.11451C8.39261 8.89625 8.12155 8.37319 8.04729 7.73723C7.96931 7.0486 8.19582 6.46156 8.80478 6.10031C9.30977 5.79551 9.82219 5.82185 10.2863 6.23202ZM8.97187 7.60553C8.9793 7.7711 9.03128 7.92915 9.12783 8.06086C9.32834 8.3318 9.7108 8.38824 9.98186 8.18504C10.0264 8.15117 10.0673 8.10978 10.1044 8.06086C10.3123 7.77486 10.3123 7.30448 10.1044 7.01849C10.0004 6.87173 9.83705 6.78518 9.66253 6.78142C9.25408 6.75508 8.96816 7.07494 8.97187 7.60553ZM12.8596 7.62811C12.8299 6.661 13.4574 5.9385 14.3486 5.91216C15.2954 5.88206 15.9861 6.52554 16.0158 7.4663C16.0455 8.41835 15.47 9.09193 14.5825 9.18224C13.6134 9.28008 12.8447 8.56887 12.8596 7.62811ZM13.7916 7.53779C13.7842 7.72595 13.8399 7.91033 13.9513 8.06462C14.1555 8.33556 14.5379 8.38824 14.8053 8.17751C14.8461 8.14741 14.8796 8.10978 14.913 8.07215C15.1283 7.78615 15.1283 7.30448 14.9167 7.01849C14.8127 6.8755 14.6493 6.78518 14.4748 6.78142C14.0738 6.75884 13.7916 7.06741 13.7916 7.53779ZM12.5328 6.87926C12.5328 7.46253 12.5365 8.0458 12.5328 8.62908C12.5365 8.89625 12.3286 9.11827 12.065 9.1258C12.0204 9.1258 11.9721 9.12203 11.9276 9.11075C11.7419 9.06183 11.6008 8.86238 11.6008 8.62531V5.63369C11.6008 5.45683 11.5971 5.28373 11.6008 5.10687C11.6045 4.81711 11.7865 4.62896 12.0612 4.62896C12.3434 4.6252 12.5328 4.81335 12.5328 5.11439C12.5365 5.70143 12.5328 6.29223 12.5328 6.87926Z" fill="#0180C7"/>
<path d="M8.97172 7.60536C8.968 7.07477 9.25392 6.75491 9.65866 6.77749C9.83318 6.78501 9.99656 6.87156 10.1005 7.01832C10.3085 7.30055 10.3085 7.77469 10.1005 8.06069C9.90001 8.33162 9.51755 8.38807 9.24649 8.18487C9.20193 8.151 9.16109 8.10961 9.12396 8.06069C9.03113 7.92898 8.97914 7.77093 8.97172 7.60536ZM13.7914 7.53762C13.7914 7.07101 14.0736 6.75867 14.4747 6.78125C14.6492 6.78501 14.8126 6.87533 14.9165 7.01832C15.1282 7.30431 15.1282 7.78975 14.9128 8.07197C14.7049 8.33915 14.3187 8.38431 14.0551 8.17358C14.0142 8.14347 13.9808 8.10584 13.9511 8.06445C13.8397 7.91016 13.7877 7.72578 13.7914 7.53762Z" fill="#CDEAFB"/>
<path fill-rule="evenodd" clip-rule="evenodd" d="M2.67037 0.513587C1.48237 0.513587 0.513587 1.49042 0.513587 2.70277V14.1048C0.513587 15.3171 1.48237 16.294 2.67037 16.294H14.8533C16.0413 16.294 17.0101 15.3171 17.0101 14.1048V2.70277C17.0101 1.49042 16.0413 0.513587 14.8533 0.513587H2.67037ZM0 2.70277C0 1.21326 1.19229 0 2.67037 0H14.8533C16.3314 0 17.5237 1.21326 17.5237 2.70277V14.1048C17.5237 15.5943 16.3314 16.8076 14.8533 16.8076H2.67037C1.19229 16.8076 0 15.5943 0 14.1048V2.70277Z" fill="#0180C7"/>
<circle cx="17" cy="14" r="5" fill="#DAF2FF"/>
<path d="M18.7408 16.6508L17.5117 17.8495L14 14.4247L17.5117 11L18.7628 12.1987L17.3581 13.5686H21.0235V15.2809H17.3581L18.7408 16.6508Z" fill="#0180C7"/>
</svg>
